{
.appVersion = "1342";
DisplayStrings = (
"HHOHHOOHOO\012nnonnoonoo\012nncnnoocoo\012nnónnooóoo\012nnocin\012nnHnnooHoo\012nnNnnooNoo\012\012n",
"cerrar/space flora/space missy/space conservador/space cumplen/space pagarás/space habitualmente/space mental/space clennam/space trayendo/space globos/space carguen/space aprendí/space gobernar/space mentir/space ivamos/space gaulle/space lealtad/space vídeo/space aniversario",
"refrigerador/space high/space pidan/space barricada/space molde/space dele/space cebra/space comprado/space mercado/space cede/space volved/space annie/space odio/space llamarme/space call/space domingo/space coro/space over/space arrogancia/space pierda",
"/tildecomb",
"/acutecomb",
nnrnn,
"AJjMÖSXZrstuxz\012/zero.tf/one.tf/two.tf/three.tf/four.tf/five.tf/six.tf/seven.tf/eight.tf/nine.tf :!¡",
a,
"/zero.tf/one.tf/two.tf/three.tf/four.tf/five.tf/six.tf/seven.tf/eight.tf/nine.tf \012AJjKkMÖRSs\012tuXxWZz:!¡\012\012g",
D,
Wqbd,
w,
v,
G,
P,
V,
U,
"/tildecomb ñ"
);
date = "2021-08-25 02:31:37 +0000";
designer = "Adriana Garcidueñas Villalobos, Cris R Hernández, Liliana Cerdio, Luis Valencia Cordova, Mara Osman";
familyName = Brujala;
featurePrefixes = (
{
automatic = 1;
code = "languagesystem DFLT dflt;\012";
name = Languagesystems;
}
);
features = (
{
automatic = 1;
code = "lookup ccmp_Other_1 {\012	@CombiningTopAccents = [acutecomb tildecomb];\012	sub [i]' @CombiningTopAccents by [idotless];\012} ccmp_Other_1;\012";
name = ccmp;
}
);
fontMaster = (
{
ascender = 800;
capHeight = 680;
customParameters = (
{
name = typoAscender;
value = 750;
},
{
name = typoDescender;
value = -250;
},
{
name = typoLineGap;
value = 200;
},
{
name = winAscent;
value = 952;
},
{
name = winDescent;
value = 250;
},
{
name = hheaAscender;
value = 750;
},
{
name = hheaDescender;
value = -250;
},
{
name = strikeoutPosition;
value = 290;
},
{
name = strikeoutSize;
value = 50;
}
);
descender = -200;
guideLines = (
{
locked = 1;
name = "x-height";
position = "{2, 500}";
},
{

glyphs = (
{
color = 6;
glyphname = A;
lastChange = "2021-09-16 04:02:20 +0000";
layers = (
{
layerId = "037EC45F-2845-4C9D-A982-99EFE46CDFCF";
paths = (
{
closed = 1;
nodes = (
"334 680 LINE",
"218 680 LINE",
"0 0 LINE",
"97 0 LINE",
"284 656 LINE",
"250 656 LINE",
"443 0 LINE",
"554 0 LINE"
);
},
{
closed = 1;
nodes = (
"447 171 LINE",
"447 247 LINE",
"141 247 LINE",
"141 171 LINE"
);
}
);
width = 554;
},
{
associatedMasterId = "037EC45F-2845-4C9D-A982-99EFE46CDFCF";
layerId = "126A022D-19DA-48EF-89CC-C229AE314AEC";
name = "Sep 6 21, 22:42";
paths = (
{
closed = 1;
nodes = (
"131 0 LINE",
"301 655 LINE",
"260 655 LINE",
"416 0 LINE",
"526 0 LINE",
"327 680 LINE",
"219 680 LINE",
"20 0 LINE"
);
},
{
closed = 1;
nodes = (
"138 232 LINE",
"138 150 LINE",
"414 150 LINE",
"414 232 LINE"
);
}
);
width = 546;
},
{
associatedMasterId = "037EC45F-2845-4C9D-A982-99EFE46CDFCF";
layerId = "7429857D-A5F8-4875-8A86-FFF5CD6A1C74";
name = "Sep 6 21, 22:45";
paths = (
{
closed = 1;
nodes = (
"131 0 LINE",
"299 655 LINE",
"258 655 LINE",
"426 0 LINE",
"526 0 LINE",
"327 680 LINE",
"219 680 LINE",
"20 0 LINE"
);
},
{
closed = 1;
nodes = (
"132 156 LINE",
"408 156 LINE",
"408 232 LINE",
"132 232 LINE"
);
}
);
width = 546;
},
{
associatedMasterId = "037EC45F-2845-4C9D-A982-99EFE46CDFCF";
layerId = "AE3FAC06-F8EE-4748-B00E-185FE6FEF18A";
name = "Sep 15 21, 19:01";
paths = (
{
closed = 1;
nodes = (
"327 680 LINE",
"219 680 LINE",
"20 0 LINE",
"120 0 LINE",
"288 655 LINE",
"247 655 LINE",
"415 0 LINE",
"526 0 LINE"
);
},
{
closed = 1;
nodes = (
"138 232 LINE",
"138 156 LINE",
"414 156 LINE",
"414 232 LINE"
);
}
);
width = 546;
},
{
associatedMasterId = "037EC45F-2845-4C9D-A982-99EFE46CDFCF";
layerId = "F37CE9CF-643C-4247-9CC2-E4AA0D859DC3";
name = "Sep 15 21, 19:41";
paths = (
{
closed = 1;
nodes = (
"448 171 LINE",
"448 269 LINE",
"142 269 LINE",
"142 171 LINE"
);
},
{
closed = 1;
nodes = (
"124 0 LINE",
"316 626 LINE",
"275 626 LINE",
"466 0 LINE",
"570 0 LINE",
"362 680 LINE",
"228 680 LINE",
"20 0 LINE"
);
}
);
width = 600;
},
{
associatedMasterId = "037EC45F-2845-4C9D-A982-99EFE46CDFCF";
layerId = "E7B6BDB8-EF35-4624-9DB2-D853BC1C7F9B";
name = "Sep 15 21, 19:43";
paths = (
{
closed = 1;
nodes = (
"447 171 LINE",
"447 249 LINE",
"141 249 LINE",
"141 171 LINE"
);
},
{
closed = 1;
nodes = (
"360 680 LINE",
"226 680 LINE",
"20 0 LINE",
"124 0 LINE",
"313 626 LINE",
"273 626 LINE",
"464 0 LINE",
"568 0 LINE"
);
}
);
width = 598;
}
);
unicode = 0041;
},
{
color = 1;
glyphname = B;
lastChange = "2021-09-16 02:02:07 +0000";
layers = (
{
layerId = "037EC45F-2845-4C9D-A982-99EFE46CDFCF";
paths = (
{
closed = 1;
nodes = (
"357 0 LINE",
"445 0 OFFCURVE",
"545 82 OFFCURVE",
"545 202 CURVE SMOOTH",
"545 331 OFFCURVE",
"450 379 OFFCURVE",
"389 387 CURVE",
"348 346 LINE",
"430 355 OFFCURVE",
"519 405 OFFCURVE",
"519 517 CURVE SMOOTH",
"519 631 OFFCURVE",
"423 680 OFFCURVE",
"318 680 CURVE SMOOTH",
"82 680 LINE",
"82 0 LINE"
);
},
{
closed = 1;
nodes = (
"442 177 OFFCURVE",
"433 104 OFFCURVE",
"419 74 CURVE",
"431 93 LINE",
"379 80 OFFCURVE",
"261 79 OFFCURVE",
"180 87 CURVE",
"180 321 LINE",
"315 321 LINE",
"421 321 OFFCURVE",
"442 285 OFFCURVE",
"442 201 CURVE SMOOTH"
);
},
{
closed = 1;
nodes = (
"390 401 LINE",
"176 401 LINE",
"176 596 LINE",
"308 596 LINE SMOOTH",
"384 596 OFFCURVE",
"426 565 OFFCURVE",
"426 503 CURVE SMOOTH",
"426 445 OFFCURVE",
"388 411 OFFCURVE",
"345 390 CURVE"
);
}
);
width = 595;
},
{
associatedMasterId = "037EC45F-2845-4C9D-A982-99EFE46CDFCF";
layerId = "289703F8-7A70-47AA-A54B-D0D098A5D2A0";
name = "Aug 31 21, 20:54";
paths = (
{
closed = 1;
nodes = (
"354 0 LINE SMOOTH",
"475 0 OFFCURVE",
"568 67 OFFCURVE",
"568 191 CURVE SMOOTH",
"568 301 OFFCURVE",
"486 353 OFFCURVE",
"442 360 CURVE",
"390 322 LINE",
"506 322 OFFCURVE",
"549 434 OFFCURVE",
"549 501 CURVE SMOOTH",
"549 649 OFFCURVE",
"430 680 OFFCURVE",
"342 680 CURVE SMOOTH",
"82 680 LINE",
"82 0 LINE"
);
},
{
closed = 1;
nodes = (
"477 104 LINE",
"416 84 OFFCURVE",
"374 82 OFFCURVE",
"333 82 CURVE SMOOTH",
"180 82 LINE",
"180 300 LINE",
"378 300 LINE SMOOTH",
"429 300 OFFCURVE",
"462 245 OFFCURVE",
"462 181 CURVE SMOOTH",
"462 134 OFFCURVE",
"445 110 OFFCURVE",
"375 57 CURVE"
);
},
{
closed = 1;
nodes = (
"471 427 LINE",
"406 384 OFFCURVE",
"342 382 OFFCURVE",
"265 382 CURVE SMOOTH",
"180 382 LINE",
"180 598 LINE",
"315 598 LINE SMOOTH",
"379 598 OFFCURVE",
"449 586 OFFCURVE",
"449 479 CURVE SMOOTH",
"449 445 OFFCURVE",
"442 418 OFFCURVE",
"403 373 CURVE"
);
}
);
width = 614;
},
{
associatedMasterId = "037EC45F-2845-4C9D-A982-99EFE46CDFCF";
layerId = "6F601B1F-9ED9-41FE-A554-AA541829708B";
name = e_02;
paths = (
{
closed = 1;
nodes = (
"357 0 LINE",
"495 0 OFFCURVE",
"585 82 OFFCURVE",
"585 202 CURVE SMOOTH",
"585 331 OFFCURVE",
"490 379 OFFCURVE",
"389 387 CURVE",
"348 346 LINE",
"430 355 OFFCURVE",
"519 405 OFFCURVE",
"519 517 CURVE SMOOTH",
"519 631 OFFCURVE",
"423 680 OFFCURVE",
"318 680 CURVE SMOOTH",
"82 680 LINE",
"82 0 LINE"
);
},
{
closed = 1;
nodes = (
"311 80 CURVE SMOOTH",
"276 80 OFFCURVE",
"222 83 OFFCURVE",
"180 87 CURVE",
"180 321 LINE",
"315 321 LINE",
"431 321 OFFCURVE",
"492 285 OFFCURVE",
"492 201 CURVE SMOOTH",
"492 123 OFFCURVE",
"435 80 OFFCURVE"
);
},
{
closed = 1;
nodes = (
"390 401 LINE",
"176 401 LINE",
"176 596 LINE",
"308 596 LINE SMOOTH",
"384 596 OFFCURVE",
"426 565 OFFCURVE",
"426 503 CURVE SMOOTH",
"426 445 OFFCURVE",
"388 411 OFFCURVE",
"345 390 CURVE"
);
}
);
width = 609;
}
);
leftMetricsKey = H;
unicode = 0042;
},
{
color = 4;
glyphname = C;
lastChange = "2021-09-16 02:33:05 +0000";
layers = (
{
associatedMasterId = "037EC45F-2845-4C9D-A982-99EFE46CDFCF";
layerId = "71E6E01E-D841-4400-A87F-7A763A050A6C";
name = "Aug 29 21, 16:51";
paths = (
{
closed = 1;
nodes = (
"502 -14 OFFCURVE",
"618 109 OFFCURVE",
"618 345 CURVE SMOOTH",
"618 575 OFFCURVE",
"510 694 OFFCURVE",
"341 694 CURVE SMOOTH",
"158 694 OFFCURVE",
"42 571 OFFCURVE",
"42 335 CURVE SMOOTH",
"42 105 OFFCURVE",
"150 -14 OFFCURVE",
"319 -14 CURVE SMOOTH"
);
},
{
closed = 1;
nodes = (
"536 146 LINE",
"478 97 OFFCURVE",
"405 74 OFFCURVE",
"333 74 CURVE SMOOTH",
"211 74 OFFCURVE",
"150 139 OFFCURVE",
"150 329 CURVE SMOOTH",
"150 473 OFFCURVE",
"174 581 OFFCURVE",
"206 610 CURVE",
"124 534 LINE",
"182 583 OFFCURVE",
"255 606 OFFCURVE",
"327 606 CURVE SMOOTH",
"449 606 OFFCURVE",
"510 541 OFFCURVE",
"510 351 CURVE SMOOTH",
"510 207 OFFCURVE",
"486 99 OFFCURVE",
"454 70 CURVE"
);
}
);
width = 600;
},
{
associatedMasterId = "037EC45F-2845-4C9D-A982-99EFE46CDFCF";
layerId = "84D85153-9882-436C-A2C6-D7426E94B809";
name = "Aug 29 21, 16:51";
paths = (
{
closed = 1;
nodes = (
"503 -14 OFFCURVE",
"619 109 OFFCURVE",
"619 345 CURVE SMOOTH",
"619 575 OFFCURVE",
"511 694 OFFCURVE",
"342 694 CURVE SMOOTH",
"159 694 OFFCURVE",
"43 571 OFFCURVE",
"43 335 CURVE SMOOTH",
"43 105 OFFCURVE",
"151 -14 OFFCURVE",
"320 -14 CURVE SMOOTH"
);
},
{
closed = 1;
nodes = (
"508 154 LINE",
"458 107 OFFCURVE",
"395 85 OFFCURVE",
"334 85 CURVE SMOOTH",
"229 85 OFFCURVE",
"177 147 OFFCURVE",
"177 329 CURVE SMOOTH",
"177 467 OFFCURVE",
"197 571 OFFCURVE",
"225 599 CURVE",
"154 526 LINE",
"204 573 OFFCURVE",
"267 595 OFFCURVE",
"328 595 CURVE SMOOTH",
"433 595 OFFCURVE",
"485 533 OFFCURVE",
"485 351 CURVE SMOOTH",
"485 213 OFFCURVE",
"465 109 OFFCURVE",
"437 81 CURVE"
);
},
{
closed = 1;
nodes = (
"450 96 OFFCURVE",
"403 85 OFFCURVE",
"361 85 CURVE SMOOTH",
"229 85 OFFCURVE",
"177 147 OFFCURVE",
"177 329 CURVE SMOOTH",
"177 467 OFFCURVE",
"197 571 OFFCURVE",
"225 599 CURVE",
"154 526 LINE",
"204 573 OFFCURVE",
"267 595 OFFCURVE",
"328 595 CURVE SMOOTH",
"359 595 OFFCURVE",
"393 591 OFFCURVE",
"458 555 CURVE",
"383 611 LINE",
"377 587 OFFCURVE",
"373 568 OFFCURVE",
"373 549 CURVE SMOOTH",
"373 493 OFFCURVE",
"406 469 OFFCURVE",
"448 469 CURVE SMOOTH",
"493 469 OFFCURVE",
"531 492 OFFCURVE",
"531 556 CURVE SMOOTH",
"531 635 OFFCURVE",
"456 694 OFFCURVE",
"342 694 CURVE SMOOTH",
"159 694 OFFCURVE",
"43 571 OFFCURVE",
"43 335 CURVE SMOOTH",
"43 105 OFFCURVE",
"151 -14 OFFCURVE",
"334 -14 CURVE SMOOTH",
"390 -14 OFFCURVE",
"445 -7 OFFCURVE",
"509 26 CURVE",
"509 128 LINE"
);
}
);
width = 600;
},
{
associatedMasterId = "037EC45F-2845-4C9D-A982-99EFE46CDFCF";
layerId = "435FEAC1-3868-464D-AA88-FBE71A5B94B5";
name = "Aug 29 21, 16:51";
paths = (
{
closed = 1;
nodes = (
"449 96 OFFCURVE",
"402 85 OFFCURVE",
"360 85 CURVE SMOOTH",
"228 85 OFFCURVE",
"176 147 OFFCURVE",
"176 329 CURVE SMOOTH",
"176 467 OFFCURVE",
"196 571 OFFCURVE",
"224 599 CURVE",
"153 526 LINE",
"203 573 OFFCURVE",
"266 595 OFFCURVE",
"327 595 CURVE SMOOTH",
"358 595 OFFCURVE",
"392 591 OFFCURVE",
"457 555 CURVE",
"382 611 LINE",
"376 587 OFFCURVE",
"372 568 OFFCURVE",
"372 549 CURVE SMOOTH",
"372 493 OFFCURVE",
"405 469 OFFCURVE",
"447 469 CURVE SMOOTH",
"492 469 OFFCURVE",
"530 492 OFFCURVE",
"530 556 CURVE SMOOTH",
"530 635 OFFCURVE",
"455 694 OFFCURVE",
"341 694 CURVE SMOOTH",
"158 694 OFFCURVE",
"42 571 OFFCURVE",
"42 335 CURVE SMOOTH",
"42 105 OFFCURVE",
"150 -14 OFFCURVE",
"333 -14 CURVE SMOOTH",
"389 -14 OFFCURVE",
"444 -7 OFFCURVE",
"508 26 CURVE",
"508 128 LINE"
);
}
);
width = 599;
},
{
associatedMasterId = "037EC45F-2845-4C9D-A982-99EFE46CDFCF";
layerId = "6CE83E66-3589-4268-BADA-42079B5EAE66";
name = "Aug 29 21, 16:54";
paths = (
{
closed = 1;
nodes = (
"508 26 LINE",
"444 -7 OFFCURVE",
"389 -14 OFFCURVE",
"333 -14 CURVE SMOOTH",
"150 -14 OFFCURVE",
"42 105 OFFCURVE",
"42 335 CURVE SMOOTH",
"42 571 OFFCURVE",
"158 694 OFFCURVE",
"341 694 CURVE SMOOTH",
"455 694 OFFCURVE",
"530 642 OFFCURVE",
"530 572 CURVE SMOOTH",
"530 515 OFFCURVE",
"492 494 OFFCURVE",
"447 494 CURVE SMOOTH",
"405 494 OFFCURVE",
"372 516 OFFCURVE",
"372 565 CURVE SMOOTH",
"372 582 OFFCURVE",
"376 599 OFFCURVE",
"382 620 CURVE",
"457 571 LINE",
"392 603 OFFCURVE",
"358 606 OFFCURVE",
"327 606 CURVE SMOOTH",
"255 606 OFFCURVE",
"182 583 OFFCURVE",
"124 534 CURVE",
"206 610 LINE",
"174 581 OFFCURVE",
"150 473 OFFCURVE",
"150 329 CURVE SMOOTH",
"150 139 OFFCURVE",
"211 74 OFFCURVE",
"333 74 CURVE SMOOTH",
"391 74 OFFCURVE",
"450 90 OFFCURVE",
"508 128 CURVE"
);
}
);
width = 599;
},
{
associatedMasterId = "037EC45F-2845-4C9D-A982-99EFE46CDFCF";
layerId = "A584EFEB-DA92-4599-80E4-09BFC8C2B89F";
name = "Aug 29 21, 16:56";
paths = (
{
closed = 1;
nodes = (
"150 -14 OFFCURVE",
"42 105 OFFCURVE",
"42 335 CURVE SMOOTH",
"42 571 OFFCURVE",
"158 694 OFFCURVE",
"341 694 CURVE SMOOTH",
"463 694 OFFCURVE",
"530 641 OFFCURVE",
"530 571 CURVE SMOOTH",
"530 514 OFFCURVE",
"497 494 OFFCURVE",
"456 494 CURVE SMOOTH",
"420 494 OFFCURVE",
"390 515 OFFCURVE",
"390 565 CURVE SMOOTH",
"390 582 OFFCURVE",
"393 599 OFFCURVE",
"399 620 CURVE",
"466 570 LINE",
"408 603 OFFCURVE",
"378 606 OFFCURVE",
"327 606 CURVE SMOOTH",
"255 606 OFFCURVE",
"182 583 OFFCURVE",
"124 534 CURVE",
"206 610 LINE",
"174 581 OFFCURVE",
"150 473 OFFCURVE",
"150 329 CURVE SMOOTH",
"150 139 OFFCURVE",
"211 74 OFFCURVE",
"333 74 CURVE SMOOTH",
"378 74 OFFCURVE",
"408 77 OFFCURVE",
"466 110 CURVE",
"399 60 LINE",
"393 81 OFFCURVE",
"390 98 OFFCURVE",
"390 115 CURVE SMOOTH",
"390 165 OFFCURVE",
"420 186 OFFCURVE",
"456 186 CURVE SMOOTH",
"497 186 OFFCURVE",
"530 166 OFFCURVE",
"530 109 CURVE SMOOTH",
"530 39 OFFCURVE",
"463 -14 OFFCURVE",
"333 -14 CURVE SMOOTH"
);
}
);
width = 599;
},
{
associatedMasterId = "037EC45F-2845-4C9D-A982-99EFE46CDFCF";
layerId = "0F6A33F0-B3E3-4B42-A4C3-F27D404B290F";
name = "Aug 29 21, 16:56";
paths = (
{
closed = 1;
nodes = (
"150 -14 OFFCURVE",
"42 105 OFFCURVE",
"42 335 CURVE SMOOTH",
"42 571 OFFCURVE",
"158 694 OFFCURVE",
"341 694 CURVE SMOOTH",
"463 694 OFFCURVE",
"530 641 OFFCURVE",
"530 571 CURVE SMOOTH",
"530 514 OFFCURVE",
"497 494 OFFCURVE",
"456 494 CURVE SMOOTH",
"420 494 OFFCURVE",
"390 515 OFFCURVE",
"390 565 CURVE SMOOTH",
"390 582 OFFCURVE",
"393 599 OFFCURVE",
"399 620 CURVE",
"466 570 LINE",
"408 603 OFFCURVE",
"378 606 OFFCURVE",
"327 606 CURVE SMOOTH",
"255 606 OFFCURVE",
"182 583 OFFCURVE",
"124 534 CURVE",
"206 610 LINE",
"174 581 OFFCURVE",
"150 473 OFFCURVE",
"150 329 CURVE SMOOTH",
"150 139 OFFCURVE",
"211 74 OFFCURVE",
"333 74 CURVE SMOOTH",
"378 74 OFFCURVE",
"408 77 OFFCURVE",
"466 110 CURVE",
"399 60 LINE",
"393 81 OFFCURVE",
"390 98 OFFCURVE",
"390 115 CURVE SMOOTH",
"390 165 OFFCURVE",
"420 186 OFFCURVE",
"456 186 CURVE SMOOTH",
"497 186 OFFCURVE",
"530 166 OFFCURVE",
"530 109 CURVE SMOOTH",
"530 39 OFFCURVE",
"463 -14 OFFCURVE",
"333 -14 CURVE SMOOTH"
);
}
);
width = 599;
},
{
layerId = "037EC45F-2845-4C9D-A982-99EFE46CDFCF";
paths = (
{
closed = 1;
nodes = (
"42 105 OFFCURVE",
"150 -14 OFFCURVE",
"333 -14 CURVE SMOOTH",
"389 -14 OFFCURVE",
"444 -7 OFFCURVE",
"508 26 CURVE",
"508 118 LINE",
"458 91 OFFCURVE",
"391 74 OFFCURVE",
"333 74 CURVE SMOOTH",
"211 74 OFFCURVE",
"150 139 OFFCURVE",
"150 329 CURVE SMOOTH",
"150 429 OFFCURVE",
"157 508 OFFCURVE",
"183 581 CURVE",
"127 541 LINE",
"162 563 OFFCURVE",
"226 606 OFFCURVE",
"335 606 CURVE SMOOTH",
"381 606 OFFCURVE",
"446 594 OFFCURVE",
"503 567 CURVE",
"503 665 LINE",
"466 684 OFFCURVE",
"412 694 OFFCURVE",
"344 694 CURVE SMOOTH",
"145 694 OFFCURVE",
"42 559 OFFCURVE",
"42 335 CURVE SMOOTH"
);
}
);
width = 550;
},
{
associatedMasterId = "037EC45F-2845-4C9D-A982-99EFE46CDFCF";
layerId = "7A7284E8-1BDE-40D2-9AB8-3FB3233D3ADF";
name = "Aug 31 21, 20:12";
paths = (
{
closed = 1;
nodes = (
"255 606 OFFCURVE",
"182 583 OFFCURVE",
"124 534 CURVE",
"206 610 LINE",
"174 581 OFFCURVE",
"150 473 OFFCURVE",
"150 329 CURVE SMOOTH",
"150 139 OFFCURVE",
"211 74 OFFCURVE",
"333 74 CURVE SMOOTH",
"391 74 OFFCURVE",
"458 91 OFFCURVE",
"508 118 CURVE",
"508 26 LINE",
"444 -7 OFFCURVE",
"389 -14 OFFCURVE",
"333 -14 CURVE SMOOTH",
"150 -14 OFFCURVE",
"42 105 OFFCURVE",
"42 335 CURVE SMOOTH",
"42 571 OFFCURVE",
"158 694 OFFCURVE",
"341 694 CURVE SMOOTH",
"463 694 OFFCURVE",
"530 641 OFFCURVE",
"530 571 CURVE SMOOTH",
"530 514 OFFCURVE",
"497 494 OFFCURVE",
"456 494 CURVE SMOOTH",
"420 494 OFFCURVE",
"390 515 OFFCURVE",
"390 565 CURVE SMOOTH",
"390 582 OFFCURVE",
"393 599 OFFCURVE",
"399 620 CURVE",
"466 570 LINE",
"408 603 OFFCURVE",
"378 606 OFFCURVE",
"327 606 CURVE SMOOTH"
);
}
);
width = 550;
}
);
leftMetricsKey = O;
unicode = 0043;
},
{
color = 1;
glyphname = D;
lastChange = "2021-09-16 04:11:29 +0000";
layers = (
{
layerId = "037EC45F-2845-4C9D-A982-99EFE46CDFCF";
paths = (
{
closed = 1;
nodes = (
"182 0 LINE",
"284 0 LINE SMOOTH",
"462 0 OFFCURVE",
"596 116 OFFCURVE",
"596 367 CURVE SMOOTH",
"596 592 OFFCURVE",
"485 680 OFFCURVE",
"331 680 CURVE SMOOTH",
"82 680 LINE",
"82 0 LINE"
);
},
{
closed = 1;
nodes = (
"455 102 LINE",
"396 78 OFFCURVE",
"230 80 OFFCURVE",
"158 94 CURVE",
"182 43 LINE",
"182 647 LINE",
"137 596 LINE",
"316 596 LINE SMOOTH",
"426 596 OFFCURVE",
"488 530 OFFCURVE",
"488 362 CURVE SMOOTH",
"488 199 OFFCURVE",
"466 120 OFFCURVE",
"384 70 CURVE"
);
}
);
width = 638;
},
{
associatedMasterId = "037EC45F-2845-4C9D-A982-99EFE46CDFCF";
layerId = "79FDD2FE-DAB0-4F67-B27E-02AEC90810B9";
name = "Aug 29 21, 23:52";
paths = (
{
closed = 1;
nodes = (
"200 0 LINE",
"200 602 LINE",
"314 602 LINE SMOOTH",
"424 602 OFFCURVE",
"466 556 OFFCURVE",
"466 462 CURVE SMOOTH",
"466 382 OFFCURVE",
"456 348 OFFCURVE",
"396 286 CURVE",
"486 363 LINE",
"437 329 OFFCURVE",
"388 298 OFFCURVE",
"305 298 CURVE SMOOTH",
"171 298 LINE",
"171 220 LINE",
"282 219 LINE SMOOTH",
"450 217 OFFCURVE",
"564 315 OFFCURVE",
"564 467 CURVE SMOOTH",
"564 612 OFFCURVE",
"473 680 OFFCURVE",
"329 680 CURVE SMOOTH",
"100 680 LINE",
"100 0 LINE"
);
}
);
width = 600;
},
{
associatedMasterId = "037EC45F-2845-4C9D-A982-99EFE46CDFCF";
layerId = "B66A74A2-E022-405F-9D34-42DEE18A34A6";
name = "Sep 15 21, 21:08";
paths = (
{
closed = 1;
nodes = (
"182 0 LINE",
"284 0 LINE SMOOTH",
"452 0 OFFCURVE",
"586 116 OFFCURVE",
"586 367 CURVE SMOOTH",
"586 592 OFFCURVE",
"475 680 OFFCURVE",
"331 680 CURVE SMOOTH",
"82 680 LINE",
"82 0 LINE"
);
},
{
closed = 1;
nodes = (
"488 144 LINE",
"439 110 OFFCURVE",
"390 80 OFFCURVE",
"307 79 CURVE SMOOTH",
"182 78 LINE",
"182 602 LINE",
"316 602 LINE SMOOTH",
"426 602 OFFCURVE",
"488 536 OFFCURVE",
"488 362 CURVE SMOOTH",
"488 183 OFFCURVE",
"458 129 OFFCURVE",
"398 67 CURVE"
);
}
);
width = 628;
}
);
leftMetricsKey = H;
rightMetricsKey = O;
unicode = 0044;
},
{
color = 4;
glyphname = E;
lastChange = "2021-09-16 04:11:32 +0000";
layers = (
{
layerId = "037EC45F-2845-4C9D-A982-99EFE46CDFCF";
paths = (
{
closed = 1;
nodes = (
"452 0 LINE",
"458 90 LINE",
"182 82 LINE",
"182 312 LINE",
"411 304 LINE",
"411 396 LINE",
"182 388 LINE",
"182 598 LINE",
"458 590 LINE",
"452 680 LINE",
"82 680 LINE",
"82 0 LINE"
);
}
);
width = 494;
},
{
associatedMasterId = "037EC45F-2845-4C9D-A982-99EFE46CDFCF";
layerId = "E58F29CC-3CCE-48A4-B6B6-4F66E77F17CC";
name = e_02;
paths = (
{
closed = 1;
nodes = (
"452 0 LINE",
"452 84 LINE",
"182 84 LINE",
"182 308 LINE",
"420 308 LINE",
"420 392 LINE",
"182 392 LINE",
"182 596 LINE",
"446 596 LINE",
"446 680 LINE",
"82 680 LINE",
"82 0 LINE"
);
}
);
width = 496;
}
);
leftMetricsKey = H;
unicode = 0045;
},
{
color = 4;
glyphname = F;
lastChange = "2021-09-16 04:11:32 +0000";
layers = (
{
layerId = "037EC45F-2845-4C9D-A982-99EFE46CDFCF";
paths = (
{
closed = 1;
nodes = (
"184 0 LINE",
"184 288 LINE",
"422 288 LINE",
"422 372 LINE",
"184 372 LINE",
"184 596 LINE",
"448 596 LINE",
"448 680 LINE",
"84 680 LINE",
"84 0 LINE"
);
}
);
width = 480;
}
);
unicode = 0046;
},
{
color = 1;
glyphname = G;
lastChange = "2021-09-16 04:11:50 +0000";
layers = (
{
layerId = "037EC45F-2845-4C9D-A982-99EFE46CDFCF";
paths = (
{
closed = 1;
nodes = (
"42 106 OFFCURVE",
"150 -14 OFFCURVE",
"323 -14 CURVE SMOOTH",
"424 -14 OFFCURVE",
"534 36 OFFCURVE",
"578 99 CURVE",
"578 356 LINE",
"334 356 LINE",
"334 272 LINE",
"522 272 LINE",
"478 318 LINE",
"478 72 LINE",
"515 130 LINE",
"464 100 OFFCURVE",
"411 74 OFFCURVE",
"341 74 CURVE SMOOTH",
"199 74 OFFCURVE",
"150 152 OFFCURVE",
"150 329 CURVE SMOOTH",
"150 429 OFFCURVE",
"157 508 OFFCURVE",
"183 581 CURVE",
"127 531 LINE",
"153 553 OFFCURVE",
"223 607 OFFCURVE",
"335 607 CURVE SMOOTH",
"411 607 OFFCURVE",
"476 595 OFFCURVE",
"533 568 CURVE",
"533 665 LINE",
"486 684 OFFCURVE",
"432 694 OFFCURVE",
"354 694 CURVE SMOOTH",
"145 694 OFFCURVE",
"42 559 OFFCURVE",
"42 335 CURVE SMOOTH"
);
}
);
width = 608;
},
{
associatedMasterId = "037EC45F-2845-4C9D-A982-99EFE46CDFCF";
layerId = "BEE4BDD5-00B9-4CCF-9E00-1C773C2CCD5E";
name = "Aug 30 21, 00:23";
paths = (
{
closed = 1;
nodes = (
"255 606 OFFCURVE",
"182 583 OFFCURVE",
"124 534 CURVE",
"206 610 LINE",
"174 581 OFFCURVE",
"150 473 OFFCURVE",
"150 329 CURVE SMOOTH",
"150 139 OFFCURVE",
"211 74 OFFCURVE",
"333 74 CURVE SMOOTH",
"391 74 OFFCURVE",
"458 91 OFFCURVE",
"508 118 CURVE",
"508 26 LINE",
"444 -7 OFFCURVE",
"389 -14 OFFCURVE",
"333 -14 CURVE SMOOTH",
"150 -14 OFFCURVE",
"42 105 OFFCURVE",
"42 335 CURVE SMOOTH",
"42 571 OFFCURVE",
"158 694 OFFCURVE",
"341 694 CURVE SMOOTH",
"463 694 OFFCURVE",
"530 641 OFFCURVE",
"530 571 CURVE SMOOTH",
"530 514 OFFCURVE",
"497 494 OFFCURVE",
"456 494 CURVE SMOOTH",
"420 494 OFFCURVE",
"390 515 OFFCURVE",
"390 565 CURVE SMOOTH",
"390 582 OFFCURVE",
"393 599 OFFCURVE",
"399 620 CURVE",
"466 570 LINE",
"408 603 OFFCURVE",
"378 606 OFFCURVE",
"327 606 CURVE SMOOTH"
);
}
);
visible = 1;
width = 600;
},
{
associatedMasterId = "037EC45F-2845-4C9D-A982-99EFE46CDFCF";
layerId = "E0FDFBB6-B7C8-4E89-8B8E-3A359AC4881F";
name = "Aug 30 21, 00:24";
paths = (
{
closed = 1;
nodes = (
"409 -14 OFFCURVE",
"489 2 OFFCURVE",
"555 46 CURVE",
"555 362 LINE",
"325 362 LINE",
"325 282 LINE",
"459 282 LINE",
"459 59 LINE",
"508 118 LINE",
"458 91 OFFCURVE",
"391 74 OFFCURVE",
"333 74 CURVE SMOOTH",
"211 74 OFFCURVE",
"150 139 OFFCURVE",
"150 329 CURVE SMOOTH",
"150 473 OFFCURVE",
"174 581 OFFCURVE",
"206 610 CURVE",
"124 534 LINE",
"182 583 OFFCURVE",
"255 606 OFFCURVE",
"337 606 CURVE SMOOTH",
"408 606 OFFCURVE",
"438 603 OFFCURVE",
"496 570 CURVE",
"429 620 LINE",
"423 599 OFFCURVE",
"420 582 OFFCURVE",
"420 565 CURVE SMOOTH",
"420 515 OFFCURVE",
"450 494 OFFCURVE",
"486 494 CURVE SMOOTH",
"527 494 OFFCURVE",
"560 514 OFFCURVE",
"560 571 CURVE SMOOTH",
"560 641 OFFCURVE",
"493 694 OFFCURVE",
"351 694 CURVE SMOOTH",
"158 694 OFFCURVE",
"42 571 OFFCURVE",
"42 335 CURVE SMOOTH",
"42 105 OFFCURVE",
"150 -14 OFFCURVE",
"333 -14 CURVE SMOOTH"
);
}
);
width = 600;
},
{
associatedMasterId = "037EC45F-2845-4C9D-A982-99EFE46CDFCF";
layerId = "626B3835-7896-4676-9B33-92377ADD3470";
name = "Aug 31 21, 20:12";
paths = (
{
closed = 1;
nodes = (
"409 -14 OFFCURVE",
"479 2 OFFCURVE",
"545 46 CURVE",
"545 322 LINE",
"449 322 LINE",
"449 59 LINE",
"508 118 LINE",
"458 91 OFFCURVE",
"391 74 OFFCURVE",
"333 74 CURVE SMOOTH",
"211 74 OFFCURVE",
"150 139 OFFCURVE",
"150 329 CURVE SMOOTH",
"150 473 OFFCURVE",
"174 581 OFFCURVE",
"206 610 CURVE",
"124 534 LINE",
"182 583 OFFCURVE",
"255 606 OFFCURVE",
"327 606 CURVE SMOOTH",
"398 606 OFFCURVE",
"428 603 OFFCURVE",
"486 570 CURVE",
"419 620 LINE",
"413 599 OFFCURVE",
"410 582 OFFCURVE",
"410 565 CURVE SMOOTH",
"410 515 OFFCURVE",
"440 494 OFFCURVE",
"476 494 CURVE SMOOTH",
"517 494 OFFCURVE",
"550 514 OFFCURVE",
"550 571 CURVE SMOOTH",
"550 641 OFFCURVE",
"483 694 OFFCURVE",
"341 694 CURVE SMOOTH",
"158 694 OFFCURVE",
"42 571 OFFCURVE",
"42 335 CURVE SMOOTH",
"42 105 OFFCURVE",
"150 -14 OFFCURVE",
"333 -14 CURVE SMOOTH"
);
}
);
width = 600;
},
{
associatedMasterId = "037EC45F-2845-4C9D-A982-99EFE46CDFCF";
layerId = "5A164B37-5D4D-4E99-92E9-360AAAF7BD04";
name = "Aug 31 21, 20:57";
paths = (
{
closed = 1;
nodes = (
"424 -14 OFFCURVE",
"534 36 OFFCURVE",
"578 99 CURVE",
"578 386 LINE",
"334 386 LINE",
"315 303 LINE",
"492 303 LINE",
"494 72 LINE",
"515 130 LINE",
"479 100 OFFCURVE",
"411 74 OFFCURVE",
"341 74 CURVE SMOOTH",
"199 74 OFFCURVE",
"150 152 OFFCURVE",
"150 361 CURVE SMOOTH",
"150 429 OFFCURVE",
"157 508 OFFCURVE",
"183 581 CURVE",
"127 541 LINE",
"162 563 OFFCURVE",
"226 607 OFFCURVE",
"355 607 CURVE SMOOTH",
"401 607 OFFCURVE",
"466 595 OFFCURVE",
"523 568 CURVE",
"555 648 LINE",
"506 674 OFFCURVE",
"432 694 OFFCURVE",
"344 694 CURVE SMOOTH",
"145 694 OFFCURVE",
"42 559 OFFCURVE",
"42 329 CURVE SMOOTH",
"42 106 OFFCURVE",
"150 -14 OFFCURVE",
"323 -14 CURVE SMOOTH"
);
}
);
visible = 1;
width = 608;
},
{
associatedMasterId = "037EC45F-2845-4C9D-A982-99EFE46CDFCF";
layerId = "C17CFF52-E0E9-4800-9EAE-E7FE33797BEC";
name = "Sep 15 21, 21:11";
paths = (
{
closed = 1;
nodes = (
"42 106 OFFCURVE",
"150 -14 OFFCURVE",
"323 -14 CURVE SMOOTH",
"424 -14 OFFCURVE",
"534 36 OFFCURVE",
"578 99 CURVE",
"578 386 LINE",
"334 386 LINE",
"334 303 LINE",
"492 303 LINE",
"494 72 LINE",
"515 130 LINE",
"479 100 OFFCURVE",
"411 74 OFFCURVE",
"341 74 CURVE SMOOTH",
"199 74 OFFCURVE",
"150 152 OFFCURVE",
"150 329 CURVE SMOOTH",
"150 429 OFFCURVE",
"157 508 OFFCURVE",
"183 581 CURVE",
"127 541 LINE",
"162 563 OFFCURVE",
"226 607 OFFCURVE",
"335 607 CURVE SMOOTH",
"411 607 OFFCURVE",
"476 595 OFFCURVE",
"533 568 CURVE",
"533 665 LINE",
"486 684 OFFCURVE",
"432 694 OFFCURVE",
"354 694 CURVE SMOOTH",
"145 694 OFFCURVE",
"42 559 OFFCURVE",
"42 335 CURVE SMOOTH"
);
}
);
width = 608;
}
);
unicode = 0047;
},
{
color = 4;
glyphname = H;
lastChange = "2021-09-16 02:12:34 +0000";
layers = (
{
layerId = "037EC45F-2845-4C9D-A982-99EFE46CDFCF";
paths = (
{
closed = 1;
nodes = (
"488 0 LINE",
"588 0 LINE",
"588 680 LINE",
"488 680 LINE",
"488 389 LINE",
"182 389 LINE",
"182 680 LINE",
"82 680 LINE",
"82 0 LINE",
"182 0 LINE",
"182 311 LINE",
"488 311 LINE"
);
}
);
width = 670;
},
{
associatedMasterId = "037EC45F-2845-4C9D-A982-99EFE46CDFCF";
layerId = "F442FEE8-458A-461F-A314-857CF3BFF174";
name = "Aug 25 21, 00:13";
paths = (
{
closed = 1;
nodes = (
"525 -4 OFFCURVE",
"557 -4 OFFCURVE",
"594 0 CURVE",
"590 350 LINE",
"594 680 LINE",
"557 684 OFFCURVE",
"525 684 OFFCURVE",
"488 680 CURVE",
"492 350 LINE",
"488 0 LINE"
);
},
{
closed = 1;
nodes = (
"117 -4 OFFCURVE",
"149 -4 OFFCURVE",
"186 0 CURVE",
"182 350 LINE",
"186 680 LINE",
"149 684 OFFCURVE",
"117 684 OFFCURVE",
"80 680 CURVE",
"84 350 LINE",
"80 0 LINE"
);
},
{
closed = 1;
nodes = (
"518 309 LINE",
"518 391 LINE",
"156 391 LINE",
"156 309 LINE"
);
}
);
width = 674;
},
{
associatedMasterId = "037EC45F-2845-4C9D-A982-99EFE46CDFCF";
layerId = "F528DFDF-44A5-419B-B68E-33DFC5894E75";
name = "Aug 25 21, 00:15";
paths = (
{
closed = 1;
nodes = (
"488 0 LINE",
"525 -4 OFFCURVE",
"560 -4 OFFCURVE",
"597 0 CURVE",
"590 350 LINE",
"597 680 LINE",
"560 684 OFFCURVE",
"525 684 OFFCURVE",
"488 680 CURVE",
"490 391 LINE",
"184 391 LINE",
"186 680 LINE",
"149 684 OFFCURVE",
"114 684 OFFCURVE",
"77 680 CURVE",
"84 350 LINE",
"77 0 LINE",
"114 -4 OFFCURVE",
"149 -4 OFFCURVE",
"186 0 CURVE",
"184 311 LINE",
"236 309 OFFCURVE",
"289 309 OFFCURVE",
"341 309 CURVE",
"391 309 OFFCURVE",
"440 309 OFFCURVE",
"490 311 CURVE"
);
}
);
width = 674;
},
{
associatedMasterId = "037EC45F-2845-4C9D-A982-99EFE46CDFCF";
layerId = "77D4F565-8A0F-4CB7-B800-1FD2CF404806";
name = "Aug 26 21, 19:30";
paths = (
{
closed = 1;
nodes = (
"488 0 LINE",
"525 -4 OFFCURVE",
"560 -4 OFFCURVE",
"597 0 CURVE",
"590 350 LINE",
"597 680 LINE",
"560 684 OFFCURVE",
"525 684 OFFCURVE",
"488 680 CURVE",
"490 391 LINE",
"184 391 LINE",
"186 680 LINE",
"149 684 OFFCURVE",
"114 684 OFFCURVE",
"77 680 CURVE",
"84 350 LINE",
"77 0 LINE",
"114 -4 OFFCURVE",
"149 -4 OFFCURVE",
"186 0 CURVE",
"184 309 LINE",
"490 309 LINE"
);
}
);
width = 674;
}
);
unicode = 0048;
},
{
color = 4;
glyphname = I;
lastChange = "2021-09-16 01:38:55 +0000";
layers = (
{
anchors = (
{
name = bottom;
position = "{132, 0}";
},
{
name = ogonek;
position = "{238, 10}";
},
{
name = top;
position = "{132, 680}";
},
{
name = topleft;
position = "{20, 680}";
}
);
layerId = "037EC45F-2845-4C9D-A982-99EFE46CDFCF";
paths = (
{
closed = 1;
nodes = (
"182 0 LINE",
"182 680 LINE",
"82 680 LINE",
"82 0 LINE"
);
}
);
width = 264;
},
{
associatedMasterId = "037EC45F-2845-4C9D-A982-99EFE46CDFCF";
layerId = "5469C001-1985-498B-AC27-191D5ECC1BFC";
name = "Aug 29 21, 16:17";
paths = (
{
closed = 1;
nodes = (
"117 684 OFFCURVE",
"149 684 OFFCURVE",
"186 680 CURVE",
"182 350 LINE",
"186 0 LINE",
"149 -4 OFFCURVE",
"117 -4 OFFCURVE",
"80 0 CURVE",
"84 350 LINE",
"80 680 LINE"
);
}
);
width = 263;
}
);
leftMetricsKey = H;
rightMetricsKey = H;
unicode = 0049;
},
{
color = 6;
glyphname = J;
lastChange = "2021-09-16 04:05:25 +0000";
layers = (
{
layerId = "037EC45F-2845-4C9D-A982-99EFE46CDFCF";
paths = (
{
closed = 1;
nodes = (
"219 65 LINE",
"244 134 LINE",
"199 102 OFFCURVE",
"162 90 OFFCURVE",
"122 90 CURVE SMOOTH",
"72 90 OFFCURVE",
"30 101 OFFCURVE",
"16 111 CURVE",
"16 9 LINE",
"35 -5 OFFCURVE",
"65 -14 OFFCURVE",
"104 -14 CURVE SMOOTH",
"235 -14 OFFCURVE",
"319 76 OFFCURVE",
"319 259 CURVE SMOOTH",
"319 680 LINE",
"219 680 LINE"
);
}
);
width = 375;
}
);
rightMetricsKey = U;
unicode = 004A;
},
{
color = 6;
glyphname = K;
lastChange = "2021-09-16 04:06:28 +0000";
layers = (
{
layerId = "037EC45F-2845-4C9D-A982-99EFE46CDFCF";
paths = (
{
closed = 1;
nodes = (
"373 379 LINE",
"142 379 LINE",
"142 303 LINE",
"368 303 LINE",
"292 318 LINE",
"497 0 LINE",
"606 0 LINE",
"356 375 LINE",
"356 330 LINE",
"574 679 LINE",
"472 680 LINE",
"249 326 LINE"
);
},
{
closed = 1;
nodes = (
"182 0 LINE",
"182 680 LINE",
"82 680 LINE",
"82 0 LINE"
);
}
);
width = 606;
},
{
associatedMasterId = "037EC45F-2845-4C9D-A982-99EFE46CDFCF";
layerId = "93DE333D-2462-418F-BF8B-5B182C5B36A9";
name = "Sep 15 21, 20:17";
width = 600;
}
);
leftMetricsKey = H;
unicode = 004B;
},
{
color = 4;
glyphname = L;
lastChange = "2021-09-16 04:06:31 +0000";
layers = (
{
layerId = "037EC45F-2845-4C9D-A982-99EFE46CDFCF";
paths = (
{
closed = 1;
nodes = (
"454 0 LINE",
"454 84 LINE",
"184 84 LINE",
"184 680 LINE",
"84 680 LINE",
"84 0 LINE"
);
}
);
width = 486;
}
);
unicode = 004C;
},
{
color = 6;
glyphname = M;
lastChange = "2021-09-16 04:07:34 +0000";
layers = (
{
layerId = "037EC45F-2845-4C9D-A982-99EFE46CDFCF";
paths = (
{
closed = 1;
nodes = (
"126 0 LINE",
"189 569 LINE",
"184 567 LINE",
"344 0 LINE",
"424 0 LINE",
"584 567 LINE",
"579 569 LINE",
"642 0 LINE",
"746 0 LINE",
"656 680 LINE",
"532 680 LINE",
"362 102 LINE",
"401 102 LINE",
"236 680 LINE",
"112 680 LINE",
"22 0 LINE"
);
}
);
width = 768;
}
);
unicode = 004D;
},
{
color = 4;
glyphname = N;
lastChange = "2021-09-16 00:39:27 +0000";
layers = (
{
anchors = (
{
name = bottom;
position = "{331, 0}";
},
{
name = top;
position = "{331, 680}";
}
);
layerId = "037EC45F-2845-4C9D-A982-99EFE46CDFCF";
paths = (
{
closed = 1;
nodes = (
"178 0 LINE",
"178 582 LINE",
"142 582 LINE",
"480 0 LINE",
"580 0 LINE",
"580 680 LINE",
"484 680 LINE",
"484 98 LINE",
"520 98 LINE",
"182 680 LINE",
"82 680 LINE",
"82 0 LINE"
);
}
);
width = 662;
}
);
leftMetricsKey = H;
rightMetricsKey = H;
unicode = 004E;
},
{
color = 4;
glyphname = O;
lastChange = "2021-09-16 01:35:58 +0000";
layers = (
{
associatedMasterId = "037EC45F-2845-4C9D-A982-99EFE46CDFCF";
guideLines = (
{
position = "{0, 340}";
showMeasurement = 1;
},
{
angle = 90;
position = "{302, 500}";
showMeasurement = 1;
}
);
layerId = "8AFECB49-C821-4BAC-8BA2-F68B899DD823";
name = "Aug 26 21, 19:42";
paths = (
{
closed = 1;
nodes = (
"474 -14 OFFCURVE",
"590 109 OFFCURVE",
"590 345 CURVE SMOOTH",
"590 575 OFFCURVE",
"482 694 OFFCURVE",
"313 694 CURVE SMOOTH",
"130 694 OFFCURVE",
"14 571 OFFCURVE",
"14 335 CURVE SMOOTH",
"14 105 OFFCURVE",
"122 -14 OFFCURVE",
"291 -14 CURVE SMOOTH"
);
},
{
closed = 1;
nodes = (
"479 154 LINE",
"429 107 OFFCURVE",
"366 85 OFFCURVE",
"305 85 CURVE SMOOTH",
"200 85 OFFCURVE",
"148 147 OFFCURVE",
"148 329 CURVE SMOOTH",
"148 467 OFFCURVE",
"168 571 OFFCURVE",
"196 599 CURVE",
"125 526 LINE",
"175 573 OFFCURVE",
"238 595 OFFCURVE",
"299 595 CURVE SMOOTH",
"404 595 OFFCURVE",
"456 533 OFFCURVE",
"456 351 CURVE SMOOTH",
"456 213 OFFCURVE",
"436 109 OFFCURVE",
"408 81 CURVE"
);
}
);
width = 604;
},
{
anchors = (
{
name = bottom;
position = "{322, 0}";
},
{
name = center;
position = "{322, 340}";
},
{
name = ogonek;
position = "{580, 10}";
},
{
name = top;
position = "{322, 680}";
},
{
name = topleft;
position = "{20, 680}";
},
{
name = topright;
position = "{624, 680}";
}
);
associatedMasterId = "037EC45F-2845-4C9D-A982-99EFE46CDFCF";
guideLines = (
{
position = "{20, 340}";
showMeasurement = 1;
},
{
angle = 90;
position = "{322, 500}";
showMeasurement = 1;
}
);
layerId = "04B784D4-9AC9-4A4E-80CA-2BDEBD7ADBA3";
name = "Aug 29 21, 16:47";
paths = (
{
closed = 1;
nodes = (
"494 -14 OFFCURVE",
"610 109 OFFCURVE",
"610 345 CURVE SMOOTH",
"610 575 OFFCURVE",
"502 694 OFFCURVE",
"333 694 CURVE SMOOTH",
"150 694 OFFCURVE",
"34 571 OFFCURVE",
"34 335 CURVE SMOOTH",
"34 105 OFFCURVE",
"142 -14 OFFCURVE",
"311 -14 CURVE SMOOTH"
);
},
{
closed = 1;
nodes = (
"517 146 LINE",
"470 102 OFFCURVE",
"396 74 OFFCURVE",
"325 74 CURVE SMOOTH",
"194 74 OFFCURVE",
"142 150 OFFCURVE",
"142 329 CURVE SMOOTH",
"142 541 OFFCURVE",
"180 647 OFFCURVE",
"264 621 CURVE",
"127 534 LINE",
"174 578 OFFCURVE",
"248 606 OFFCURVE",
"319 606 CURVE SMOOTH",
"450 606 OFFCURVE",
"502 530 OFFCURVE",
"502 351 CURVE SMOOTH",
"502 139 OFFCURVE",
"464 33 OFFCURVE",
"380 59 CURVE"
);
}
);
width = 644;
},
{
anchors = (
{
name = bottom;
position = "{330, 0}";
},
{
name = center;
position = "{330, 340}";
},
{
name = ogonek;
position = "{594, 10}";
},
{
name = top;
position = "{330, 680}";
},
{
name = topleft;
position = "{20, 680}";
},
{
name = topright;
position = "{640, 680}";
}
);
guideLines = (
{
position = "{28, 340}";
showMeasurement = 1;
},
{
angle = 90;
position = "{330, 500}";
showMeasurement = 1;
}
);
layerId = "037EC45F-2845-4C9D-A982-99EFE46CDFCF";
paths = (
{
closed = 1;
nodes = (
"502 -14 OFFCURVE",
"618 109 OFFCURVE",
"618 345 CURVE SMOOTH",
"618 575 OFFCURVE",
"510 694 OFFCURVE",
"341 694 CURVE SMOOTH",
"158 694 OFFCURVE",
"42 571 OFFCURVE",
"42 335 CURVE SMOOTH",
"42 105 OFFCURVE",
"150 -14 OFFCURVE",
"319 -14 CURVE SMOOTH"
);
},
{
closed = 1;
nodes = (
"536 146 LINE",
"478 97 OFFCURVE",
"405 74 OFFCURVE",
"333 74 CURVE SMOOTH",
"211 74 OFFCURVE",
"150 139 OFFCURVE",
"150 329 CURVE SMOOTH",
"150 473 OFFCURVE",
"174 581 OFFCURVE",
"206 610 CURVE",
"124 534 LINE",
"182 583 OFFCURVE",
"255 606 OFFCURVE",
"327 606 CURVE SMOOTH",
"449 606 OFFCURVE",
"510 541 OFFCURVE",
"510 351 CURVE SMOOTH",
"510 207 OFFCURVE",
"486 99 OFFCURVE",
"454 70 CURVE"
);
}
);
width = 660;
}
);
unicode = 004F;
},
{
color = 1;
glyphname = P;
lastChange = "2021-09-16 04:12:13 +0000";
layers = (
{
layerId = "037EC45F-2845-4C9D-A982-99EFE46CDFCF";
paths = (
{
closed = 1;
nodes = (
"182 0 LINE",
"182 602 LINE",
"296 602 LINE SMOOTH",
"406 602 OFFCURVE",
"448 556 OFFCURVE",
"448 462 CURVE SMOOTH",
"448 382 OFFCURVE",
"452 336 OFFCURVE",
"391 274 CURVE",
"445 315 LINE",
"396 298 OFFCURVE",
"370 298 OFFCURVE",
"287 298 CURVE SMOOTH",
"153 298 LINE",
"153 215 LINE",
"264 215 LINE SMOOTH",
"442 215 OFFCURVE",
"556 311 OFFCURVE",
"556 467 CURVE SMOOTH",
"556 612 OFFCURVE",
"465 680 OFFCURVE",
"311 680 CURVE SMOOTH",
"82 680 LINE",
"82 0 LINE"
);
}
);
width = 592;
},
{
associatedMasterId = "037EC45F-2845-4C9D-A982-99EFE46CDFCF";
layerId = "B1C26EA1-CD0E-4005-BD05-72F037A72482";
name = "Sep 15 21, 21:12";
paths = (
{
closed = 1;
nodes = (
"200 0 LINE",
"200 602 LINE",
"314 602 LINE SMOOTH",
"424 602 OFFCURVE",
"466 556 OFFCURVE",
"466 462 CURVE SMOOTH",
"466 382 OFFCURVE",
"456 348 OFFCURVE",
"396 286 CURVE",
"486 363 LINE",
"437 329 OFFCURVE",
"388 298 OFFCURVE",
"305 298 CURVE SMOOTH",
"171 298 LINE",
"171 220 LINE",
"282 219 LINE SMOOTH",
"450 217 OFFCURVE",
"564 315 OFFCURVE",
"564 467 CURVE SMOOTH",
"564 612 OFFCURVE",
"473 680 OFFCURVE",
"329 680 CURVE SMOOTH",
"100 680 LINE",
"100 0 LINE"
);
}
);
width = 600;
}
);
leftMetricsKey = H;
unicode = 0050;
},
{
color = 4;
glyphname = Q;
lastChange = "2021-09-16 00:44:52 +0000";
layers = (
{
associatedMasterId = "037EC45F-2845-4C9D-A982-99EFE46CDFCF";
layerId = "E80B8798-749D-4439-90A9-E8F69ED0645A";
name = "Aug 30 21, 22:57";
paths = (
{
closed = 1;
nodes = (
"502 -14 OFFCURVE",
"618 109 OFFCURVE",
"618 345 CURVE SMOOTH",
"618 575 OFFCURVE",
"510 694 OFFCURVE",
"341 694 CURVE SMOOTH",
"158 694 OFFCURVE",
"42 571 OFFCURVE",
"42 335 CURVE SMOOTH",
"42 105 OFFCURVE",
"150 -14 OFFCURVE",
"319 -14 CURVE SMOOTH"
);
},
{
closed = 1;
nodes = (
"536 146 LINE",
"478 97 OFFCURVE",
"405 74 OFFCURVE",
"333 74 CURVE SMOOTH",
"211 74 OFFCURVE",
"150 139 OFFCURVE",
"150 329 CURVE SMOOTH",
"150 473 OFFCURVE",
"174 581 OFFCURVE",
"206 610 CURVE",
"124 534 LINE",
"182 583 OFFCURVE",
"255 606 OFFCURVE",
"327 606 CURVE SMOOTH",
"449 606 OFFCURVE",
"510 541 OFFCURVE",
"510 351 CURVE SMOOTH",
"510 207 OFFCURVE",
"486 99 OFFCURVE",
"454 70 CURVE"
);
},
{
closed = 1;
nodes = (
"444 32 LINE",
"555 -107 LINE",
"642 -33 LINE",
"513 78 LINE"
);
}
);
width = 660;
},
{
layerId = "037EC45F-2845-4C9D-A982-99EFE46CDFCF";
paths = (
{
closed = 1;
nodes = (
"630 -40 LINE",
"357 275 LINE",
"303 243 LINE",
"538 -94 LINE"
);
},
{
closed = 1;
nodes = (
"502 -14 OFFCURVE",
"618 109 OFFCURVE",
"618 345 CURVE SMOOTH",
"618 575 OFFCURVE",
"510 694 OFFCURVE",
"341 694 CURVE SMOOTH",
"158 694 OFFCURVE",
"42 571 OFFCURVE",
"42 335 CURVE SMOOTH",
"42 105 OFFCURVE",
"150 -14 OFFCURVE",
"319 -14 CURVE SMOOTH"
);
},
{
closed = 1;
nodes = (
"536 146 LINE",
"478 97 OFFCURVE",
"405 74 OFFCURVE",
"333 74 CURVE SMOOTH",
"211 74 OFFCURVE",
"150 139 OFFCURVE",
"150 329 CURVE SMOOTH",
"150 473 OFFCURVE",
"174 581 OFFCURVE",
"206 610 CURVE",
"124 534 LINE",
"182 583 OFFCURVE",
"255 606 OFFCURVE",
"327 606 CURVE SMOOTH",
"449 606 OFFCURVE",
"510 541 OFFCURVE",
"510 351 CURVE SMOOTH",
"510 207 OFFCURVE",
"486 99 OFFCURVE",
"454 70 CURVE"
);
}
);
width = 660;
},
{
associatedMasterId = "037EC45F-2845-4C9D-A982-99EFE46CDFCF";
backgroundImage = {
crop = "{{0, 0}, {428, 490}}";
imagePath = "/Users/crishernandez/Desktop/Screen Shot 2021-08-30 at 10.56.03 PM.png";
locked = "1";
transform = "{1.9, 0, 0, 1.9, -62, -163}";
};
layerId = "E197A61A-8CB8-4B57-A7DA-858C418AC079";
name = "Aug 30 21, 22:57";
paths = (
{
closed = 1;
nodes = (
"630 -40 LINE",
"355 278 LINE",
"306 240 LINE",
"543 -99 LINE"
);
},
{
closed = 1;
nodes = (
"502 -14 OFFCURVE",
"618 109 OFFCURVE",
"618 345 CURVE SMOOTH",
"618 575 OFFCURVE",
"510 694 OFFCURVE",
"341 694 CURVE SMOOTH",
"158 694 OFFCURVE",
"42 571 OFFCURVE",
"42 335 CURVE SMOOTH",
"42 105 OFFCURVE",
"150 -14 OFFCURVE",
"319 -14 CURVE SMOOTH"
);
},
{
closed = 1;
nodes = (
"536 146 LINE",
"478 97 OFFCURVE",
"405 74 OFFCURVE",
"333 74 CURVE SMOOTH",
"211 74 OFFCURVE",
"150 139 OFFCURVE",
"150 329 CURVE SMOOTH",
"150 473 OFFCURVE",
"174 581 OFFCURVE",
"206 610 CURVE",
"124 534 LINE",
"182 583 OFFCURVE",
"255 606 OFFCURVE",
"327 606 CURVE SMOOTH",
"449 606 OFFCURVE",
"510 541 OFFCURVE",
"510 351 CURVE SMOOTH",
"510 207 OFFCURVE",
"486 99 OFFCURVE",
"454 70 CURVE"
);
}
);
width = 660;
}
);
leftMetricsKey = O;
unicode = 0051;
},
{
color = 6;
glyphname = R;
lastChange = "2021-09-16 04:08:08 +0000";
layers = (
{
layerId = "037EC45F-2845-4C9D-A982-99EFE46CDFCF";
paths = (
{
closed = 1;
nodes = (
"182 0 LINE",
"182 647 LINE",
"137 602 LINE",
"296 602 LINE SMOOTH",
"406 602 OFFCURVE",
"438 546 OFFCURVE",
"438 452 CURVE SMOOTH",
"438 391 OFFCURVE",
"431 358 OFFCURVE",
"403 328 CURVE",
"431 349 LINE",
"376 334 OFFCURVE",
"360 338 OFFCURVE",
"287 338 CURVE SMOOTH",
"153 338 LINE",
"153 255 LINE",
"264 255 LINE SMOOTH",
"460 255 OFFCURVE",
"546 337 OFFCURVE",
"546 477 CURVE SMOOTH",
"546 612 OFFCURVE",
"455 680 OFFCURVE",
"311 680 CURVE SMOOTH",
"82 680 LINE",
"82 0 LINE"
);
},
{
closed = 1;
nodes = (
"579 0 LINE",
"417 288 LINE",
"318 278 LINE",
"458 0 LINE"
);
}
);
width = 611;
}
);
unicode = 0052;
},
{
color = 6;
glyphname = S;
lastChange = "2021-09-16 04:03:02 +0000";
layers = (
{
layerId = "037EC45F-2845-4C9D-A982-99EFE46CDFCF";
paths = (
{
closed = 1;
nodes = (
"470 64 OFFCURVE",
"375 -14 OFFCURVE",
"224 -14 CURVE SMOOTH",
"144 -14 OFFCURVE",
"93 -6 OFFCURVE",
"30 24 CURVE",
"30 118 LINE",
"102 85 OFFCURVE",
"163 74 OFFCURVE",
"248 74 CURVE SMOOTH",
"307 74 OFFCURVE",
"371 96 OFFCURVE",
"420 143 CURVE",
"349 70 LINE",
"377 98 OFFCURVE",
"377 122 OFFCURVE",
"377 138 CURVE SMOOTH",
"377 306 OFFCURVE",
"31 315 OFFCURVE",
"31 507 CURVE SMOOTH",
"31 616 OFFCURVE",
"126 694 OFFCURVE",
"287 694 CURVE SMOOTH",
"341 694 OFFCURVE",
"405 686 OFFCURVE",
"455 656 CURVE",
"455 562 LINE",
"396 595 OFFCURVE",
"336 606 OFFCURVE",
"263 606 CURVE SMOOTH",
"194 606 OFFCURVE",
"130 585 OFFCURVE",
"81 537 CURVE",
"150 610 LINE",
"122 582 OFFCURVE",
"122 558 OFFCURVE",
"122 542 CURVE SMOOTH",
"122 394 OFFCURVE",
"470 387 OFFCURVE",
"470 173 CURVE SMOOTH"
);
}
);
width = 498;
}
);
unicode = 0053;
},
{
color = 4;
glyphname = T;
lastChange = "2021-09-16 00:44:55 +0000";
layers = (
{
layerId = "037EC45F-2845-4C9D-A982-99EFE46CDFCF";
paths = (
{
closed = 1;
nodes = (
"212 0 LINE",
"312 0 LINE",
"312 680 LINE",
"212 680 LINE"
);
},
{
closed = 1;
nodes = (
"504 600 LINE",
"504 680 LINE",
"20 680 LINE",
"20 600 LINE"
);
}
);
width = 524;
},
{
associatedMasterId = "037EC45F-2845-4C9D-A982-99EFE46CDFCF";
layerId = "D47F2D83-AC94-4354-803D-480691D30906";
name = "Aug 25 21, 00:29";
paths = (
{
closed = 1;
nodes = (
"315 0 LINE",
"315 680 LINE",
"209 680 LINE",
"209 0 LINE"
);
},
{
closed = 1;
nodes = (
"101 605 OFFCURVE",
"163 610 OFFCURVE",
"262 610 CURVE SMOOTH",
"343 610 OFFCURVE",
"423 605 OFFCURVE",
"504 587 CURVE",
"504 625 OFFCURVE",
"504 652 OFFCURVE",
"494 680 CURVE",
"30 680 LINE",
"20 652 OFFCURVE",
"20 625 OFFCURVE",
"20 587 CURVE"
);
}
);
width = 524;
},
{
associatedMasterId = "037EC45F-2845-4C9D-A982-99EFE46CDFCF";
layerId = "EE12968D-C62E-4136-9652-55C414F0BDD3";
name = "Aug 25 21, 00:34";
paths = (
{
closed = 1;
nodes = (
"315 0 LINE",
"315 680 LINE",
"209 680 LINE",
"209 0 LINE"
);
},
{
closed = 1;
nodes = (
"384 600 LINE",
"416 600 OFFCURVE",
"445 597 OFFCURVE",
"481 597 CURVE SMOOTH",
"497 597 OFFCURVE",
"500 655 OFFCURVE",
"494 682 CURVE",
"421 680 LINE",
"103 680 LINE",
"34 682 LINE",
"34 655 OFFCURVE",
"36 627 OFFCURVE",
"38 600 CURVE"
);
}
);
width = 524;
}
);
unicode = 0054;
},
{
color = 1;
glyphname = U;
lastChange = "2021-09-16 04:13:07 +0000";
layers = (
{
anchors = (
{
name = bottom;
position = "{309, 0}";
},
{
name = ogonek;
position = "{556, 10}";
},
{
name = top;
position = "{309, 680}";
},
{
name = topright;
position = "{598, 680}";
}
);
layerId = "037EC45F-2845-4C9D-A982-99EFE46CDFCF";
paths = (
{
closed = 1;
nodes = (
"451 -14 OFFCURVE",
"562 75 OFFCURVE",
"562 256 CURVE SMOOTH",
"562 680 LINE",
"462 680 LINE",
"462 70 LINE",
"480 146 LINE",
"422 97 OFFCURVE",
"382 74 OFFCURVE",
"312 74 CURVE SMOOTH",
"212 74 OFFCURVE",
"156 109 OFFCURVE",
"156 280 CURVE SMOOTH",
"156 680 LINE",
"56 680 LINE",
"56 256 LINE SMOOTH",
"56 75 OFFCURVE",
"149 -14 OFFCURVE",
"298 -14 CURVE SMOOTH"
);
}
);
width = 618;
},
{
associatedMasterId = "037EC45F-2845-4C9D-A982-99EFE46CDFCF";
layerId = "B9789970-8705-4B33-8281-803FA9445FE1";
name = /H;
paths = (
{
closed = 1;
nodes = (
"488 0 LINE",
"588 0 LINE",
"588 680 LINE",
"488 680 LINE",
"488 389 LINE",
"182 389 LINE",
"182 680 LINE",
"82 680 LINE",
"82 0 LINE",
"182 0 LINE",
"182 311 LINE",
"488 311 LINE"
);
}
);
visible = 1;
width = 670;
},
{
associatedMasterId = "037EC45F-2845-4C9D-A982-99EFE46CDFCF";
layerId = "3E2B151C-EC37-4BC9-A136-D13A9BF1A6AF";
name = "Aug 29 21, 22:57";
paths = (
{
closed = 1;
nodes = (
"553 79 OFFCURVE",
"442 -14 OFFCURVE",
"289 -14 CURVE SMOOTH",
"150 -14 OFFCURVE",
"47 75 OFFCURVE",
"47 275 CURVE SMOOTH",
"47 680 LINE",
"147 680 LINE",
"147 269 LINE SMOOTH",
"147 109 OFFCURVE",
"203 74 OFFCURVE",
"303 74 CURVE SMOOTH",
"373 74 OFFCURVE",
"413 97 OFFCURVE",
"471 146 CURVE",
"397 70 LINE",
"429 99 OFFCURVE",
"453 177 OFFCURVE",
"453 291 CURVE SMOOTH",
"453 680 LINE",
"553 680 LINE",
"553 285 LINE SMOOTH"
);
}
);
width = 600;
},
{
anchors = (
{
name = bottom;
position = "{309, 0}";
},
{
name = ogonek;
position = "{556, 10}";
},
{
name = top;
position = "{309, 680}";
},
{
name = topright;
position = "{598, 680}";
}
);
associatedMasterId = "037EC45F-2845-4C9D-A982-99EFE46CDFCF";
layerId = "1CF86EB9-D4C0-42E4-B4CC-654C9EA07528";
name = "Sep 15 21, 21:05";
paths = (
{
closed = 1;
nodes = (
"451 -14 OFFCURVE",
"562 79 OFFCURVE",
"562 280 CURVE SMOOTH",
"562 680 LINE",
"462 680 LINE",
"462 256 LINE SMOOTH",
"462 186 OFFCURVE",
"442 117 OFFCURVE",
"406 70 CURVE",
"480 146 LINE",
"422 97 OFFCURVE",
"382 74 OFFCURVE",
"312 74 CURVE SMOOTH",
"212 74 OFFCURVE",
"156 109 OFFCURVE",
"156 280 CURVE SMOOTH",
"156 680 LINE",
"56 680 LINE",
"56 256 LINE SMOOTH",
"56 75 OFFCURVE",
"149 -14 OFFCURVE",
"298 -14 CURVE SMOOTH"
);
}
);
width = 618;
}
);
unicode = 0055;
},
{
color = 1;
glyphname = V;
lastChange = "2021-09-16 04:12:45 +0000";
layers = (
{
layerId = "037EC45F-2845-4C9D-A982-99EFE46CDFCF";
paths = (
{
closed = 1;
nodes = (
"453 680 LINE",
"274 54 LINE",
"286 54 LINE",
"113 680 LINE",
"0 680 LINE",
"211 0 LINE",
"345 0 LINE",
"557 680 LINE"
);
}
);
width = 557;
},
{
associatedMasterId = "037EC45F-2845-4C9D-A982-99EFE46CDFCF";
layerId = "9B46B45C-8515-4CBD-8F4D-8365C71C184E";
name = "Sep 15 21, 21:12";
paths = (
{
closed = 1;
nodes = (
"216 0 LINE",
"332 0 LINE",
"554 680 LINE",
"457 680 LINE",
"266 24 LINE",
"300 24 LINE",
"111 680 LINE",
"0 680 LINE"
);
}
);
width = 554;
}
);
unicode = 0056;
},
{
color = 6;
glyphname = W;
lastChange = "2021-09-16 04:09:15 +0000";
layers = (
{
layerId = "037EC45F-2845-4C9D-A982-99EFE46CDFCF";
paths = (
{
closed = 1;
nodes = (
"399 680 LINE",
"250 54 LINE",
"262 54 LINE",
"119 680 LINE",
"6 680 LINE",
"187 0 LINE",
"321 0 LINE",
"496 680 LINE"
);
},
{
closed = 1;
nodes = (
"792 680 LINE",
"643 54 LINE",
"655 54 LINE",
"512 680 LINE",
"409 680 LINE",
"570 0 LINE",
"714 0 LINE",
"896 680 LINE"
);
}
);
width = 920;
}
);
unicode = 0057;
},
{
color = 6;
glyphname = X;
lastChange = "2021-09-16 02:12:27 +0000";
layers = (
{
layerId = "037EC45F-2845-4C9D-A982-99EFE46CDFCF";
paths = (
{
closed = 1;
nodes = (
"130 0 LINE",
"325 340 LINE",
"130 680 LINE",
"22 680 LINE",
"229 340 LINE",
"22 0 LINE"
);
},
{
closed = 1;
nodes = (
"446 0 LINE",
"554 0 LINE",
"348 340 LINE",
"554 680 LINE",
"446 680 LINE",
"251 340 LINE"
);
}
);
width = 576;
}
);
unicode = 0058;
},
{
color = 6;
glyphname = Z;
lastChange = "2021-09-16 04:01:26 +0000";
layers = (
{
layerId = "037EC45F-2845-4C9D-A982-99EFE46CDFCF";
paths = (
{
closed = 1;
nodes = (
"26 65 LINE",
"26 0 LINE",
"485 0 LINE",
"485 80 LINE",
"105 80 LINE",
"129 52 LINE",
"479 615 LINE",
"479 680 LINE",
"34 680 LINE",
"34 600 LINE",
"402 600 LINE",
"377 628 LINE"
);
}
);
width = 511;
}
);
unicode = 005A;
},
{
color = 11;
glyphname = C.alt01;
lastChange = "2021-09-16 01:46:12 +0000";
layers = (
{
layerId = "037EC45F-2845-4C9D-A982-99EFE46CDFCF";
paths = (
{
closed = 1;
nodes = (
"255 606 OFFCURVE",
"182 583 OFFCURVE",
"124 534 CURVE",
"206 610 LINE",
"174 581 OFFCURVE",
"150 473 OFFCURVE",
"150 329 CURVE SMOOTH",
"150 139 OFFCURVE",
"211 74 OFFCURVE",
"333 74 CURVE SMOOTH",
"391 74 OFFCURVE",
"458 91 OFFCURVE",
"508 118 CURVE",
"508 26 LINE",
"444 -7 OFFCURVE",
"389 -14 OFFCURVE",
"333 -14 CURVE SMOOTH",
"150 -14 OFFCURVE",
"42 105 OFFCURVE",
"42 335 CURVE SMOOTH",
"42 571 OFFCURVE",
"158 694 OFFCURVE",
"341 694 CURVE SMOOTH",
"463 694 OFFCURVE",
"530 641 OFFCURVE",
"530 571 CURVE SMOOTH",
"530 514 OFFCURVE",
"497 494 OFFCURVE",
"456 494 CURVE SMOOTH",
"420 494 OFFCURVE",
"390 515 OFFCURVE",
"390 565 CURVE SMOOTH",
"390 582 OFFCURVE",
"393 599 OFFCURVE",
"399 620 CURVE",
"466 570 LINE",
"408 603 OFFCURVE",
"378 606 OFFCURVE",
"327 606 CURVE SMOOTH"
);
}
);
width = 550;
}
);
},
{
color = 11;
glyphname = D.alt01;
lastChange = "2021-09-16 01:46:12 +0000";
layers = (
{
layerId = "037EC45F-2845-4C9D-A982-99EFE46CDFCF";
paths = (
{
closed = 1;
nodes = (
"413 0 LINE",
"494 44 OFFCURVE",
"599 148 OFFCURVE",
"599 353 CURVE SMOOTH",
"599 547 OFFCURVE",
"522 680 OFFCURVE",
"285 680 CURVE SMOOTH",
"226 680 OFFCURVE",
"160 680 OFFCURVE",
"82 680 CURVE",
"82 0 LINE"
);
},
{
closed = 1;
nodes = (
"484 109 LINE",
"441 91 OFFCURVE",
"394 90 OFFCURVE",
"304 90 CURVE SMOOTH",
"182 90 LINE",
"182 590 LINE",
"317 590 LINE",
"441 588 OFFCURVE",
"500 519 OFFCURVE",
"498 351 CURVE SMOOTH",
"495 143 OFFCURVE",
"417 74 OFFCURVE",
"367 51 CURVE"
);
}
);
width = 641;
}
);
leftMetricsKey = H;
rightMetricsKey = O;
},
{
color = 11;
glyphname = E.alt01;
lastChange = "2021-09-16 01:46:12 +0000";
layers = (
{
layerId = "037EC45F-2845-4C9D-A982-99EFE46CDFCF";
paths = (
{
closed = 1;
nodes = (
"448 0 LINE",
"448 80 LINE",
"182 80 LINE",
"182 312 LINE",
"411 304 LINE",
"411 396 LINE",
"182 388 LINE",
"182 600 LINE",
"448 600 LINE",
"448 680 LINE",
"82 680 LINE",
"82 0 LINE"
);
}
);
width = 492;
}
);
leftMetricsKey = H;
},
{
color = 11;
glyphname = F.alt01;
lastChange = "2021-09-16 01:46:12 +0000";
layers = (
{
layerId = "037EC45F-2845-4C9D-A982-99EFE46CDFCF";
paths = (
{
closed = 1;
nodes = (
"184 0 LINE",
"184 292 LINE",
"413 284 LINE",
"413 376 LINE",
"184 368 LINE",
"184 598 LINE",
"450 590 LINE",
"450 680 LINE",
"84 680 LINE",
"84 0 LINE"
);
}
);
width = 482;
}
);
},
{
color = 11;
glyphname = G.alt01;
lastChange = "2021-09-16 01:46:12 +0000";
layers = (
{
layerId = "037EC45F-2845-4C9D-A982-99EFE46CDFCF";
paths = (
{
closed = 1;
nodes = (
"409 -14 OFFCURVE",
"479 2 OFFCURVE",
"545 46 CURVE",
"545 322 LINE",
"449 322 LINE",
"449 59 LINE",
"508 118 LINE",
"458 91 OFFCURVE",
"391 74 OFFCURVE",
"333 74 CURVE SMOOTH",
"211 74 OFFCURVE",
"150 139 OFFCURVE",
"150 329 CURVE SMOOTH",
"150 473 OFFCURVE",
"174 581 OFFCURVE",
"206 610 CURVE",
"124 534 LINE",
"182 583 OFFCURVE",
"255 606 OFFCURVE",
"327 606 CURVE SMOOTH",
"398 606 OFFCURVE",
"428 603 OFFCURVE",
"486 570 CURVE",
"419 620 LINE",
"413 599 OFFCURVE",
"410 582 OFFCURVE",
"410 565 CURVE SMOOTH",
"410 515 OFFCURVE",
"440 494 OFFCURVE",
"476 494 CURVE SMOOTH",
"517 494 OFFCURVE",
"550 514 OFFCURVE",
"550 571 CURVE SMOOTH",
"550 641 OFFCURVE",
"483 694 OFFCURVE",
"341 694 CURVE SMOOTH",
"158 694 OFFCURVE",
"42 571 OFFCURVE",
"42 335 CURVE SMOOTH",
"42 105 OFFCURVE",
"150 -14 OFFCURVE",
"333 -14 CURVE SMOOTH"
);
}
);
width = 588;
},
{
associatedMasterId = "037EC45F-2845-4C9D-A982-99EFE46CDFCF";
layerId = "AA184FFA-919F-4D6F-B10C-50E42E4D0FAB";
name = /O;
paths = (
{
closed = 1;
nodes = (
"498 -14 OFFCURVE",
"614 109 OFFCURVE",
"614 345 CURVE SMOOTH",
"614 575 OFFCURVE",
"506 694 OFFCURVE",
"337 694 CURVE SMOOTH",
"154 694 OFFCURVE",
"38 571 OFFCURVE",
"38 335 CURVE SMOOTH",
"38 105 OFFCURVE",
"146 -14 OFFCURVE",
"315 -14 CURVE SMOOTH"
);
},
{
closed = 1;
nodes = (
"532 146 LINE",
"474 97 OFFCURVE",
"401 74 OFFCURVE",
"329 74 CURVE SMOOTH",
"207 74 OFFCURVE",
"146 139 OFFCURVE",
"146 329 CURVE SMOOTH",
"146 473 OFFCURVE",
"170 581 OFFCURVE",
"202 610 CURVE",
"120 534 LINE",
"178 583 OFFCURVE",
"251 606 OFFCURVE",
"323 606 CURVE SMOOTH",
"445 606 OFFCURVE",
"506 541 OFFCURVE",
"506 351 CURVE SMOOTH",
"506 207 OFFCURVE",
"482 99 OFFCURVE",
"450 70 CURVE"
);
}
);
visible = 1;
width = 600;
},
{
associatedMasterId = "037EC45F-2845-4C9D-A982-99EFE46CDFCF";
layerId = "F9537DD3-D988-42AA-B50A-DF039165E2C4";
name = "Aug 31 21, 20:12";
paths = (
{
closed = 1;
nodes = (
"424 -14 OFFCURVE",
"534 36 OFFCURVE",
"578 99 CURVE",
"578 386 LINE",
"334 386 LINE",
"315 303 LINE",
"492 303 LINE",
"494 72 LINE",
"515 130 LINE",
"479 100 OFFCURVE",
"411 74 OFFCURVE",
"341 74 CURVE SMOOTH",
"199 74 OFFCURVE",
"150 152 OFFCURVE",
"150 361 CURVE SMOOTH",
"150 429 OFFCURVE",
"157 508 OFFCURVE",
"183 581 CURVE",
"127 541 LINE",
"162 563 OFFCURVE",
"226 607 OFFCURVE",
"355 607 CURVE SMOOTH",
"401 607 OFFCURVE",
"466 595 OFFCURVE",
"523 568 CURVE",
"555 648 LINE",
"506 674 OFFCURVE",
"432 694 OFFCURVE",
"344 694 CURVE SMOOTH",
"145 694 OFFCURVE",
"42 559 OFFCURVE",
"42 329 CURVE SMOOTH",
"42 106 OFFCURVE",
"150 -14 OFFCURVE",
"323 -14 CURVE SMOOTH"
);
}
);
width = 608;
}
);
leftMetricsKey = O;
},
{
color = 11;
glyphname = L.alt01;
lastChange = "2021-09-16 01:46:12 +0000";
layers = (
{
layerId = "037EC45F-2845-4C9D-A982-99EFE46CDFCF";
paths = (
{
closed = 1;
nodes = (
"454 0 LINE",
"454 90 LINE",
"184 82 LINE",
"184 680 LINE",
"84 680 LINE",
"84 0 LINE"
);
}
);
width = 486;
}
);
},
{
color = 11;
glyphname = P.alt01;
lastChange = "2021-09-16 01:46:12 +0000";
layers = (
{
layerId = "037EC45F-2845-4C9D-A982-99EFE46CDFCF";
paths = (
{
closed = 1;
nodes = (
"200 0 LINE",
"200 602 LINE",
"314 602 LINE SMOOTH",
"424 602 OFFCURVE",
"466 556 OFFCURVE",
"466 462 CURVE SMOOTH",
"466 382 OFFCURVE",
"456 348 OFFCURVE",
"396 286 CURVE",
"486 363 LINE",
"398 302 OFFCURVE",
"371 303 OFFCURVE",
"171 288 CURVE",
"171 210 LINE",
"454 213 OFFCURVE",
"564 291 OFFCURVE",
"564 467 CURVE SMOOTH",
"564 612 OFFCURVE",
"473 680 OFFCURVE",
"329 680 CURVE SMOOTH",
"100 680 LINE",
"100 0 LINE"
);
}
);
width = 600;
}
);
},
{
color = 11;
glyphname = Q.alt01;
lastChange = "2021-09-16 01:46:12 +0000";
layers = (
{
layerId = "037EC45F-2845-4C9D-A982-99EFE46CDFCF";
paths = (
{
closed = 1;
nodes = (
"502 -14 OFFCURVE",
"618 109 OFFCURVE",
"618 345 CURVE SMOOTH",
"618 575 OFFCURVE",
"510 694 OFFCURVE",
"341 694 CURVE SMOOTH",
"158 694 OFFCURVE",
"42 571 OFFCURVE",
"42 335 CURVE SMOOTH",
"42 105 OFFCURVE",
"150 -14 OFFCURVE",
"319 -14 CURVE SMOOTH"
);
},
{
closed = 1;
nodes = (
"630 -40 LINE",
"513 95 LINE",
"455 25 LINE",
"538 -94 LINE"
);
},
{
closed = 1;
nodes = (
"536 146 LINE",
"478 97 OFFCURVE",
"405 74 OFFCURVE",
"333 74 CURVE SMOOTH",
"211 74 OFFCURVE",
"150 139 OFFCURVE",
"150 329 CURVE SMOOTH",
"150 473 OFFCURVE",
"174 581 OFFCURVE",
"206 610 CURVE",
"124 534 LINE",
"182 583 OFFCURVE",
"255 606 OFFCURVE",
"327 606 CURVE SMOOTH",
"449 606 OFFCURVE",
"510 541 OFFCURVE",
"510 351 CURVE SMOOTH",
"510 207 OFFCURVE",
"486 99 OFFCURVE",
"454 70 CURVE"
);
}
);
width = 660;
}
);
leftMetricsKey = O;
},
{
color = 11;
glyphname = C.alt02;
lastChange = "2021-09-16 01:46:12 +0000";
layers = (
{
layerId = "037EC45F-2845-4C9D-A982-99EFE46CDFCF";
paths = (
{
closed = 1;
nodes = (
"462 99 OFFCURVE",
"407 77 OFFCURVE",
"328 77 CURVE SMOOTH",
"201 77 OFFCURVE",
"150 153 OFFCURVE",
"150 329 CURVE SMOOTH",
"150 537 OFFCURVE",
"188 646 OFFCURVE",
"272 619 CURVE",
"124 535 LINE",
"171 581 OFFCURVE",
"247 605 OFFCURVE",
"323 605 CURVE SMOOTH",
"389 605 OFFCURVE",
"426 591 OFFCURVE",
"483 571 CURVE",
"515 647 LINE",
"466 673 OFFCURVE",
"402 694 OFFCURVE",
"324 694 CURVE",
"141 694 OFFCURVE",
"42 568 OFFCURVE",
"42 335 CURVE SMOOTH",
"42 108 OFFCURVE",
"149 -14 OFFCURVE",
"319 -14 CURVE",
"396 -14 OFFCURVE",
"461 10 OFFCURVE",
"504 46 CURVE",
"514 131 LINE"
);
}
);
width = 557;
}
);
leftMetricsKey = O;
},
{
color = 11;
glyphname = E.alt02;
lastChange = "2021-09-16 01:46:12 +0000";
layers = (
{
layerId = "037EC45F-2845-4C9D-A982-99EFE46CDFCF";
paths = (
{
closed = 1;
nodes = (
"448 0 LINE",
"448 90 LINE",
"182 82 LINE",
"182 312 LINE",
"411 304 LINE",
"411 396 LINE",
"182 388 LINE",
"182 598 LINE",
"448 590 LINE",
"448 680 LINE",
"82 680 LINE",
"82 0 LINE"
);
}
);
width = 492;
}
);
leftMetricsKey = H;
},
{
color = 11;
glyphname = P.alt02;
lastChange = "2021-09-16 01:46:12 +0000";
layers = (
{
layerId = "037EC45F-2845-4C9D-A982-99EFE46CDFCF";
paths = (
{
closed = 1;
nodes = (
"438 212 OFFCURVE",
"525 320 OFFCURVE",
"525 466 CURVE SMOOTH",
"525 589 OFFCURVE",
"466 684 OFFCURVE",
"292 684 CURVE SMOOTH",
"222 684 OFFCURVE",
"168 680 OFFCURVE",
"102 680 CURVE",
"118 611 LINE",
"184 611 OFFCURVE",
"228 616 OFFCURVE",
"294 616 CURVE SMOOTH",
"398 616 OFFCURVE",
"431 557 OFFCURVE",
"431 475 CURVE SMOOTH",
"431 371 OFFCURVE",
"396 311 OFFCURVE",
"378 285 CURVE",
"431 338 LINE",
"401 307 OFFCURVE",
"361 294 OFFCURVE",
"307 294 CURVE SMOOTH",
"235 294 OFFCURVE",
"199 303 OFFCURVE",
"158 333 CURVE",
"147 242 LINE",
"181 221 OFFCURVE",
"216 212 OFFCURVE",
"297 212 CURVE SMOOTH"
);
},
{
closed = 1;
nodes = (
"184 0 LINE",
"184 680 LINE",
"84 680 LINE",
"84 0 LINE"
);
}
);
width = 561;
}
);
},
{
color = 1;
glyphname = a;
lastChange = "2021-09-16 04:11:27 +0000";
layers = (
{
anchors = (
{
name = bottom;
position = "{236, 0}";
},
{
name = ogonek;
position = "{425, 10}";
},
{
name = top;
position = "{236, 500}";
}
);
layerId = "037EC45F-2845-4C9D-A982-99EFE46CDFCF";
paths = (
{
closed = 1;
nodes = (
"404 0 LINE",
"404 358 LINE SMOOTH",
"404 464 OFFCURVE",
"352 514 OFFCURVE",
"242 514 CURVE SMOOTH",
"184 514 OFFCURVE",
"124 500 OFFCURVE",
"69 472 CURVE",
"69 396 LINE",
"125 428 OFFCURVE",
"163 440 OFFCURVE",
"214 440 CURVE SMOOTH",
"287 440 OFFCURVE",
"310 416 OFFCURVE",
"310 340 CURVE SMOOTH",
"310 70 LINE",
"340 0 LINE"
);
},
{
closed = 1;
nodes = (
"136 169 OFFCURVE",
"142 194 OFFCURVE",
"163 215 CURVE",
"125 181 LINE",
"320 242 LINE",
"320 328 LINE",
"127 262 LINE SMOOTH",
"59 239 OFFCURVE",
"38 179 OFFCURVE",
"38 130 CURVE SMOOTH",
"38 48 OFFCURVE",
"93 -14 OFFCURVE",
"179 -14 CURVE SMOOTH",
"246 -14 OFFCURVE",
"304 21 OFFCURVE",
"349 89 CURVE",
"349 156 LINE",
"305 94 OFFCURVE",
"254 60 OFFCURVE",
"207 60 CURVE SMOOTH",
"158 60 OFFCURVE",
"136 83 OFFCURVE",
"136 136 CURVE SMOOTH"
);
}
);
width = 472;
},
{
associatedMasterId = "037EC45F-2845-4C9D-A982-99EFE46CDFCF";
layerId = "571318AF-EAF6-4B8D-961C-003498DAEB6C";
name = /n;
paths = (
{
closed = 1;
nodes = (
"143 422 OFFCURVE",
"187 440 OFFCURVE",
"230 440 CURVE SMOOTH",
"287 440 OFFCURVE",
"310 410 OFFCURVE",
"310 340 CURVE SMOOTH",
"310 0 LINE",
"404 0 LINE",
"404 358 LINE SMOOTH",
"404 458 OFFCURVE",
"352 514 OFFCURVE",
"258 514 CURVE SMOOTH",
"192 514 OFFCURVE",
"127 486 OFFCURVE",
"80 437 CURVE",
"100 387 LINE"
);
}
);
visible = 1;
width = 472;
},
{
associatedMasterId = "037EC45F-2845-4C9D-A982-99EFE46CDFCF";
layerId = "005EC27C-1CD3-4A24-BB96-5939CCFA4F01";
name = "Aug 25 21, 19:29";
paths = (
{
closed = 1;
nodes = (
"357 0 LINE",
"404 0 LINE",
"404 357 LINE SMOOTH",
"404 457 OFFCURVE",
"358 514 OFFCURVE",
"239 514 CURVE SMOOTH",
"182 514 OFFCURVE",
"125 502 OFFCURVE",
"67 472 CURVE",
"67 396 LINE",
"112 419 OFFCURVE",
"163 440 OFFCURVE",
"214 440 CURVE SMOOTH",
"285 440 OFFCURVE",
"310 422 OFFCURVE",
"310 352 CURVE SMOOTH",
"310 70 LINE"
);
},
{
closed = 1;
nodes = (
"214 295 OFFCURVE",
"38 269 OFFCURVE",
"38 116 CURVE SMOOTH",
"38 34 OFFCURVE",
"93 -14 OFFCURVE",
"181 -14 CURVE SMOOTH",
"282 -14 OFFCURVE",
"323 50 OFFCURVE",
"349 89 CURVE",
"349 156 LINE",
"305 99 OFFCURVE",
"264 60 OFFCURVE",
"207 60 CURVE SMOOTH",
"158 60 OFFCURVE",
"136 83 OFFCURVE",
"136 136 CURVE SMOOTH",
"136 216 OFFCURVE",
"254 248 OFFCURVE",
"349 248 CURVE",
"349 305 LINE"
);
}
);
width = 472;
},
{
associatedMasterId = "037EC45F-2845-4C9D-A982-99EFE46CDFCF";
layerId = "279D8394-C07E-4466-8289-8F12F5E1525B";
name = "Aug 28 21, 18:25";
paths = (
{
closed = 1;
nodes = (
"381 1 OFFCURVE",
"414 11 OFFCURVE",
"442 24 CURVE",
"424 60 OFFCURVE",
"404 107 OFFCURVE",
"404 173 CURVE SMOOTH",
"404 357 LINE SMOOTH",
"404 457 OFFCURVE",
"358 514 OFFCURVE",
"239 514 CURVE SMOOTH",
"182 514 OFFCURVE",
"125 502 OFFCURVE",
"67 472 CURVE",
"67 396 LINE",
"112 419 OFFCURVE",
"163 440 OFFCURVE",
"214 440 CURVE SMOOTH",
"285 440 OFFCURVE",
"310 422 OFFCURVE",
"310 352 CURVE SMOOTH",
"310 150 LINE SMOOTH",
"310 60 OFFCURVE",
"329 21 OFFCURVE",
"345 -4 CURVE"
);
},
{
closed = 1;
nodes = (
"282 -14 OFFCURVE",
"323 50 OFFCURVE",
"349 89 CURVE",
"349 156 LINE",
"305 99 OFFCURVE",
"264 60 OFFCURVE",
"207 60 CURVE SMOOTH",
"158 60 OFFCURVE",
"136 83 OFFCURVE",
"136 136 CURVE SMOOTH",
"136 216 OFFCURVE",
"254 248 OFFCURVE",
"349 248 CURVE",
"349 305 LINE",
"214 295 OFFCURVE",
"38 269 OFFCURVE",
"38 116 CURVE SMOOTH",
"38 34 OFFCURVE",
"93 -14 OFFCURVE",
"181 -14 CURVE SMOOTH"
);
}
);
width = 472;
},
{
associatedMasterId = "037EC45F-2845-4C9D-A982-99EFE46CDFCF";
layerId = "1504770C-4471-47C7-B09B-CE434B7604CD";
name = "Aug 28 21, 20:26";
paths = (
{
closed = 1;
nodes = (
"116 0 LINE",
"116 350 LINE SMOOTH",
"116 440 OFFCURVE",
"97 479 OFFCURVE",
"81 504 CURVE",
"-16 476 LINE",
"2 440 OFFCURVE",
"22 393 OFFCURVE",
"22 327 CURVE SMOOTH",
"22 0 LINE"
);
},
{
closed = 1;
nodes = (
"143 422 OFFCURVE",
"188 440 OFFCURVE",
"231 440 CURVE SMOOTH",
"287 440 OFFCURVE",
"310 410 OFFCURVE",
"310 340 CURVE SMOOTH",
"310 0 LINE",
"404 0 LINE",
"404 357 LINE SMOOTH",
"404 458 OFFCURVE",
"352 514 OFFCURVE",
"259 514 CURVE SMOOTH",
"193 514 OFFCURVE",
"127 486 OFFCURVE",
"81 437 CURVE",
"101 387 LINE"
);
}
);
width = 472;
},
{
associatedMasterId = "037EC45F-2845-4C9D-A982-99EFE46CDFCF";
layerId = "70984B00-0B07-4553-9875-8E4D8A71409E";
name = "Aug 29 21, 16:18";
paths = (
{
closed = 1;
nodes = (
"442 24 LINE",
"424 60 OFFCURVE",
"404 107 OFFCURVE",
"404 173 CURVE SMOOTH",
"404 357 LINE SMOOTH",
"404 457 OFFCURVE",
"358 514 OFFCURVE",
"239 514 CURVE SMOOTH",
"182 514 OFFCURVE",
"125 502 OFFCURVE",
"67 472 CURVE",
"67 396 LINE",
"112 419 OFFCURVE",
"163 440 OFFCURVE",
"214 440 CURVE SMOOTH",
"285 440 OFFCURVE",
"310 422 OFFCURVE",
"310 352 CURVE SMOOTH",
"310 150 LINE SMOOTH",
"310 60 OFFCURVE",
"329 21 OFFCURVE",
"345 -4 CURVE"
);
},
{
closed = 1;
nodes = (
"282 -14 OFFCURVE",
"323 50 OFFCURVE",
"349 89 CURVE",
"349 156 LINE",
"305 99 OFFCURVE",
"264 60 OFFCURVE",
"207 60 CURVE SMOOTH",
"158 60 OFFCURVE",
"136 83 OFFCURVE",
"136 136 CURVE SMOOTH",
"136 216 OFFCURVE",
"254 248 OFFCURVE",
"349 248 CURVE",
"349 305 LINE",
"214 295 OFFCURVE",
"38 269 OFFCURVE",
"38 116 CURVE SMOOTH",
"38 34 OFFCURVE",
"93 -14 OFFCURVE",
"181 -14 CURVE SMOOTH"
);
}
);
width = 472;
},
{
associatedMasterId = "037EC45F-2845-4C9D-A982-99EFE46CDFCF";
layerId = "802DCFED-3DFC-4545-9FC6-732F72455A40";
name = "Aug 29 21, 16:19";
paths = (
{
closed = 1;
nodes = (
"404 0 LINE",
"404 357 LINE SMOOTH",
"404 457 OFFCURVE",
"358 514 OFFCURVE",
"239 514 CURVE SMOOTH",
"182 514 OFFCURVE",
"125 502 OFFCURVE",
"67 472 CURVE",
"67 396 LINE",
"112 419 OFFCURVE",
"163 440 OFFCURVE",
"214 440 CURVE SMOOTH",
"285 440 OFFCURVE",
"310 422 OFFCURVE",
"310 352 CURVE SMOOTH",
"310 70 LINE",
"340 0 LINE"
);
},
{
closed = 1;
nodes = (
"282 -14 OFFCURVE",
"323 50 OFFCURVE",
"349 89 CURVE",
"349 156 LINE",
"305 99 OFFCURVE",
"264 60 OFFCURVE",
"207 60 CURVE SMOOTH",
"158 60 OFFCURVE",
"136 83 OFFCURVE",
"136 136 CURVE SMOOTH",
"136 216 OFFCURVE",
"254 248 OFFCURVE",
"349 248 CURVE",
"349 305 LINE",
"214 295 OFFCURVE",
"38 269 OFFCURVE",
"38 116 CURVE SMOOTH",
"38 34 OFFCURVE",
"93 -14 OFFCURVE",
"181 -14 CURVE SMOOTH"
);
}
);
width = 472;
},
{
associatedMasterId = "037EC45F-2845-4C9D-A982-99EFE46CDFCF";
layerId = "3AEC5BEC-679F-48D6-8CC7-C256E7BC4E8A";
name = "Aug 29 21, 16:22";
paths = (
{
closed = 1;
nodes = (
"404 0 LINE",
"404 357 LINE SMOOTH",
"404 457 OFFCURVE",
"358 514 OFFCURVE",
"239 514 CURVE SMOOTH",
"182 514 OFFCURVE",
"125 502 OFFCURVE",
"67 472 CURVE",
"67 396 LINE",
"112 419 OFFCURVE",
"163 440 OFFCURVE",
"214 440 CURVE SMOOTH",
"285 440 OFFCURVE",
"310 422 OFFCURVE",
"310 352 CURVE SMOOTH",
"310 70 LINE",
"340 0 LINE"
);
},
{
closed = 1;
nodes = (
"136 169 OFFCURVE",
"142 194 OFFCURVE",
"163 215 CURVE",
"110 163 LINE",
"147 198 OFFCURVE",
"220 248 OFFCURVE",
"349 248 CURVE",
"349 321 LINE",
"194 303 OFFCURVE",
"38 269 OFFCURVE",
"38 116 CURVE SMOOTH",
"38 34 OFFCURVE",
"93 -14 OFFCURVE",
"181 -14 CURVE SMOOTH",
"282 -14 OFFCURVE",
"323 50 OFFCURVE",
"349 89 CURVE",
"349 156 LINE",
"305 99 OFFCURVE",
"264 60 OFFCURVE",
"207 60 CURVE SMOOTH",
"158 60 OFFCURVE",
"136 83 OFFCURVE",
"136 136 CURVE SMOOTH"
);
},
{
closed = 0;
nodes = (
"289 391 LINE",
"-22 186 LINE"
);
}
);
width = 472;
},
{
associatedMasterId = "037EC45F-2845-4C9D-A982-99EFE46CDFCF";
layerId = "574CEBD9-4B03-4182-8C92-0AE0A444A6C4";
name = "Aug 29 21, 16:26";
paths = (
{
closed = 1;
nodes = (
"404 0 LINE",
"404 358 LINE SMOOTH",
"404 457 OFFCURVE",
"358 514 OFFCURVE",
"242 514 CURVE SMOOTH",
"182 514 OFFCURVE",
"125 502 OFFCURVE",
"67 472 CURVE",
"67 396 LINE",
"112 419 OFFCURVE",
"163 440 OFFCURVE",
"214 440 CURVE SMOOTH",
"285 440 OFFCURVE",
"310 422 OFFCURVE",
"310 340 CURVE SMOOTH",
"310 70 LINE",
"340 0 LINE"
);
},
{
closed = 1;
nodes = (
"136 169 OFFCURVE",
"142 194 OFFCURVE",
"163 215 CURVE",
"110 163 LINE",
"147 198 OFFCURVE",
"220 248 OFFCURVE",
"349 248 CURVE",
"349 319 LINE",
"140 297 OFFCURVE",
"38 229 OFFCURVE",
"38 116 CURVE SMOOTH",
"38 34 OFFCURVE",
"93 -14 OFFCURVE",
"179 -14 CURVE SMOOTH",
"246 -14 OFFCURVE",
"304 21 OFFCURVE",
"349 89 CURVE",
"349 156 LINE",
"305 94 OFFCURVE",
"254 60 OFFCURVE",
"207 60 CURVE SMOOTH",
"158 60 OFFCURVE",
"136 83 OFFCURVE",
"136 136 CURVE SMOOTH"
);
}
);
width = 472;
},
{
associatedMasterId = "037EC45F-2845-4C9D-A982-99EFE46CDFCF";
layerId = "D3AC56C6-1479-4864-9201-21421A5B3C48";
name = "Aug 30 21, 00:04";
paths = (
{
closed = 1;
nodes = (
"404 0 LINE",
"404 358 LINE SMOOTH",
"404 464 OFFCURVE",
"352 514 OFFCURVE",
"242 514 CURVE SMOOTH",
"184 514 OFFCURVE",
"114 500 OFFCURVE",
"59 466 CURVE",
"89 406 LINE",
"135 428 OFFCURVE",
"173 440 OFFCURVE",
"214 440 CURVE SMOOTH",
"287 440 OFFCURVE",
"310 416 OFFCURVE",
"310 340 CURVE SMOOTH",
"310 70 LINE",
"340 0 LINE"
);
},
{
closed = 1;
nodes = (
"136 169 OFFCURVE",
"142 194 OFFCURVE",
"163 215 CURVE",
"110 163 LINE",
"147 198 OFFCURVE",
"220 248 OFFCURVE",
"349 248 CURVE",
"349 319 LINE",
"140 297 OFFCURVE",
"38 229 OFFCURVE",
"38 116 CURVE SMOOTH",
"38 34 OFFCURVE",
"93 -14 OFFCURVE",
"179 -14 CURVE SMOOTH",
"246 -14 OFFCURVE",
"304 21 OFFCURVE",
"349 89 CURVE",
"349 156 LINE",
"305 94 OFFCURVE",
"254 60 OFFCURVE",
"207 60 CURVE SMOOTH",
"158 60 OFFCURVE",
"136 83 OFFCURVE",
"136 136 CURVE SMOOTH"
);
}
);
width = 472;
},
{
anchors = (
{
name = bottom;
position = "{236, 0}";
},
{
name = ogonek;
position = "{425, 10}";
},
{
name = top;
position = "{236, 500}";
}
);
associatedMasterId = "037EC45F-2845-4C9D-A982-99EFE46CDFCF";
layerId = "40063FF0-C09E-4897-9962-834D3F104BF7";
name = "Sep 15 21, 21:04";
paths = (
{
closed = 1;
nodes = (
"404 0 LINE",
"404 358 LINE SMOOTH",
"404 464 OFFCURVE",
"352 514 OFFCURVE",
"242 514 CURVE SMOOTH",
"184 514 OFFCURVE",
"124 500 OFFCURVE",
"69 472 CURVE",
"69 396 LINE",
"125 428 OFFCURVE",
"163 440 OFFCURVE",
"214 440 CURVE SMOOTH",
"287 440 OFFCURVE",
"310 416 OFFCURVE",
"310 340 CURVE SMOOTH",
"310 70 LINE",
"340 0 LINE"
);
},
{
closed = 1;
nodes = (
"136 169 OFFCURVE",
"142 194 OFFCURVE",
"163 215 CURVE",
"110 163 LINE",
"147 198 OFFCURVE",
"220 248 OFFCURVE",
"349 248 CURVE",
"349 319 LINE",
"140 297 OFFCURVE",
"38 229 OFFCURVE",
"38 116 CURVE SMOOTH",
"38 34 OFFCURVE",
"93 -14 OFFCURVE",
"179 -14 CURVE SMOOTH",
"246 -14 OFFCURVE",
"304 21 OFFCURVE",
"349 89 CURVE",
"349 156 LINE",
"305 94 OFFCURVE",
"254 60 OFFCURVE",
"207 60 CURVE SMOOTH",
"158 60 OFFCURVE",
"136 83 OFFCURVE",
"136 136 CURVE SMOOTH"
);
}
);
width = 472;
}
);
unicode = 0061;
},
{
color = 1;
glyphname = b;
lastChange = "2021-09-16 04:14:21 +0000";
layers = (
{
associatedMasterId = "037EC45F-2845-4C9D-A982-99EFE46CDFCF";
layerId = "2F3BD15E-193D-4E29-A5BB-5B0F07D34866";
name = "Sep 1 21, 21:59";
paths = (
{
closed = 1;
nodes = (
"331 452 OFFCURVE",
"386 400 OFFCURVE",
"386 253 CURVE SMOOTH",
"386 153 OFFCURVE",
"369 82 OFFCURVE",
"336 45 CURVE",
"383 102 LINE",
"343 62 OFFCURVE",
"317 44 OFFCURVE",
"267 44 CURVE SMOOTH",
"228 44 OFFCURVE",
"187 56 OFFCURVE",
"168 75 CURVE",
"168 680 LINE",
"74 680 LINE",
"76 38 LINE",
"100 23 OFFCURVE",
"168 -14 OFFCURVE",
"246 -14 CURVE SMOOTH",
"394 -14 OFFCURVE",
"479 99 OFFCURVE",
"479 259 CURVE SMOOTH",
"479 443 OFFCURVE",
"389 514 OFFCURVE",
"272 514 CURVE SMOOTH",
"215 514 OFFCURVE",
"163 485 OFFCURVE",
"135 471 CURVE",
"132 404 LINE",
"150 418 OFFCURVE",
"206 452 OFFCURVE",
"258 452 CURVE SMOOTH"
);
}
);
width = 515;
},
{
associatedMasterId = "037EC45F-2845-4C9D-A982-99EFE46CDFCF";
layerId = "606028C1-4965-4DFF-BF3E-FE3C6CDFD09C";
name = "Sep 1 21, 21:59";
paths = (
{
closed = 1;
nodes = (
"205 60 OFFCURVE",
"170 68 OFFCURVE",
"126 102 CURVE",
"126 26 LINE",
"152 -3 OFFCURVE",
"195 -14 OFFCURVE",
"241 -14 CURVE SMOOTH",
"392 -14 OFFCURVE",
"474 80 OFFCURVE",
"474 254 CURVE SMOOTH",
"474 425 OFFCURVE",
"393 514 OFFCURVE",
"277 514 CURVE SMOOTH",
"225 514 OFFCURVE",
"170 490 OFFCURVE",
"126 444 CURVE",
"126 368 LINE",
"180 422 OFFCURVE",
"215 440 OFFCURVE",
"257 440 CURVE SMOOTH",
"335 440 OFFCURVE",
"374 394 OFFCURVE",
"374 258 CURVE SMOOTH",
"374 155 OFFCURVE",
"359 78 OFFCURVE",
"338 57 CURVE",
"391 111 LINE",
"354 76 OFFCURVE",
"307 60 OFFCURVE",
"261 60 CURVE SMOOTH"
);
},
{
closed = 1;
nodes = (
"168 70 LINE",
"168 700 LINE",
"74 700 LINE",
"74 0 LINE",
"138 0 LINE"
);
}
);
width = 510;
},
{
layerId = "037EC45F-2845-4C9D-A982-99EFE46CDFCF";
paths = (
{
closed = 1;
nodes = (
"476 425 OFFCURVE",
"405 514 OFFCURVE",
"298 514 CURVE SMOOTH",
"235 514 OFFCURVE",
"168 481 OFFCURVE",
"130 422 CURVE",
"154 376 LINE",
"200 421 OFFCURVE",
"240 440 OFFCURVE",
"274 440 CURVE SMOOTH",
"337 440 OFFCURVE",
"376 384 OFFCURVE",
"376 258 CURVE SMOOTH",
"376 155 OFFCURVE",
"361 78 OFFCURVE",
"340 57 CURVE",
"393 111 LINE",
"356 76 OFFCURVE",
"309 60 OFFCURVE",
"263 60 CURVE SMOOTH",
"228 60 OFFCURVE",
"187 72 OFFCURVE",
"168 91 CURVE",
"168 700 LINE",
"74 700 LINE",
"76 38 LINE",
"131 3 OFFCURVE",
"188 -14 OFFCURVE",
"253 -14 CURVE SMOOTH",
"389 -14 OFFCURVE",
"476 78 OFFCURVE",
"476 254 CURVE SMOOTH"
);
}
);
width = 512;
},
{
associatedMasterId = "037EC45F-2845-4C9D-A982-99EFE46CDFCF";
layerId = "3E22398D-C5A9-4DB2-9596-87F6C6739DFA";
name = "Sep 1 21, 22:01";
paths = (
{
closed = 1;
nodes = (
"389 -14 OFFCURVE",
"476 78 OFFCURVE",
"476 254 CURVE SMOOTH",
"476 425 OFFCURVE",
"395 514 OFFCURVE",
"269 514 CURVE SMOOTH",
"212 514 OFFCURVE",
"175 501 OFFCURVE",
"135 471 CURVE",
"132 392 LINE",
"169 421 OFFCURVE",
"206 440 OFFCURVE",
"259 440 CURVE SMOOTH",
"337 440 OFFCURVE",
"376 394 OFFCURVE",
"376 258 CURVE SMOOTH",
"376 155 OFFCURVE",
"361 78 OFFCURVE",
"340 57 CURVE",
"393 111 LINE",
"356 76 OFFCURVE",
"309 60 OFFCURVE",
"263 60 CURVE SMOOTH",
"228 60 OFFCURVE",
"187 72 OFFCURVE",
"168 91 CURVE",
"168 680 LINE",
"74 680 LINE",
"76 38 LINE",
"100 23 OFFCURVE",
"168 -14 OFFCURVE",
"253 -14 CURVE SMOOTH"
);
}
);
width = 512;
},
{
associatedMasterId = "037EC45F-2845-4C9D-A982-99EFE46CDFCF";
layerId = "597D1ED9-030C-4906-80A0-D7288DBAEE5F";
name = "Sep 1 21, 22:03";
paths = (
{
closed = 1;
nodes = (
"389 -14 OFFCURVE",
"476 78 OFFCURVE",
"476 254 CURVE SMOOTH",
"476 425 OFFCURVE",
"395 514 OFFCURVE",
"269 514 CURVE SMOOTH",
"212 514 OFFCURVE",
"175 500 OFFCURVE",
"135 470 CURVE",
"135 392 LINE",
"169 421 OFFCURVE",
"206 440 OFFCURVE",
"259 440 CURVE SMOOTH",
"337 440 OFFCURVE",
"376 394 OFFCURVE",
"376 258 CURVE SMOOTH",
"376 155 OFFCURVE",
"361 78 OFFCURVE",
"340 57 CURVE",
"393 111 LINE",
"356 76 OFFCURVE",
"309 60 OFFCURVE",
"263 60 CURVE SMOOTH",
"228 60 OFFCURVE",
"187 72 OFFCURVE",
"168 91 CURVE",
"168 680 LINE",
"74 680 LINE",
"76 38 LINE",
"131 3 OFFCURVE",
"188 -14 OFFCURVE",
"253 -14 CURVE SMOOTH"
);
}
);
width = 512;
},
{
associatedMasterId = "037EC45F-2845-4C9D-A982-99EFE46CDFCF";
layerId = "33A1757B-5BF6-47D4-BA7B-A1A880952D72";
name = "Sep 15 21, 21:14";
paths = (
{
closed = 1;
nodes = (
"389 -14 OFFCURVE",
"476 78 OFFCURVE",
"476 254 CURVE SMOOTH",
"476 425 OFFCURVE",
"395 514 OFFCURVE",
"279 514 CURVE SMOOTH",
"222 514 OFFCURVE",
"175 500 OFFCURVE",
"135 470 CURVE",
"135 392 LINE",
"169 421 OFFCURVE",
"206 440 OFFCURVE",
"259 440 CURVE SMOOTH",
"337 440 OFFCURVE",
"376 394 OFFCURVE",
"376 258 CURVE SMOOTH",
"376 155 OFFCURVE",
"361 78 OFFCURVE",
"340 57 CURVE",
"393 111 LINE",
"356 76 OFFCURVE",
"309 60 OFFCURVE",
"263 60 CURVE SMOOTH",
"228 60 OFFCURVE",
"187 72 OFFCURVE",
"168 91 CURVE",
"168 700 LINE",
"74 700 LINE",
"76 38 LINE",
"131 3 OFFCURVE",
"188 -14 OFFCURVE",
"253 -14 CURVE SMOOTH"
);
}
);
width = 512;
}
);
leftMetricsKey = l;
rightMetricsKey = o;
unicode = 0062;
},
{
color = 4;
glyphname = c;
lastChange = "2021-09-16 00:40:52 +0000";
layers = (
{
associatedMasterId = "037EC45F-2845-4C9D-A982-99EFE46CDFCF";
layerId = "D00E95BE-2854-41AF-A086-3640C3E12267";
name = "Aug 25 21, 18:03";
paths = (
{
closed = 1;
nodes = (
"356 68 OFFCURVE",
"321 60 OFFCURVE",
"273 60 CURVE SMOOTH",
"175 60 OFFCURVE",
"136 106 OFFCURVE",
"136 242 CURVE SMOOTH",
"136 345 OFFCURVE",
"151 422 OFFCURVE",
"172 443 CURVE",
"119 389 LINE",
"156 424 OFFCURVE",
"203 440 OFFCURVE",
"249 440 CURVE SMOOTH",
"272 440 OFFCURVE",
"313 437 OFFCURVE",
"362 410 CURVE",
"310 452 LINE",
"287 373 OFFCURVE",
"312 341 OFFCURVE",
"351 341 CURVE SMOOTH",
"387 341 OFFCURVE",
"416 358 OFFCURVE",
"416 409 CURVE SMOOTH",
"416 470 OFFCURVE",
"360 514 OFFCURVE",
"259 514 CURVE SMOOTH",
"123 514 OFFCURVE",
"36 422 OFFCURVE",
"36 246 CURVE SMOOTH",
"36 75 OFFCURVE",
"117 -14 OFFCURVE",
"253 -14 CURVE SMOOTH",
"311 -14 OFFCURVE",
"352 -9 OFFCURVE",
"400 16 CURVE",
"400 92 LINE"
);
}
);
width = 438;
},
{
associatedMasterId = "037EC45F-2845-4C9D-A982-99EFE46CDFCF";
layerId = "DE6C5749-447A-4DAA-A34A-6D30C73FDCF3";
name = "Aug 28 21, 18:25";
paths = (
{
closed = 1;
nodes = (
"340 68 OFFCURVE",
"305 60 OFFCURVE",
"273 60 CURVE SMOOTH",
"175 60 OFFCURVE",
"136 106 OFFCURVE",
"136 242 CURVE SMOOTH",
"136 345 OFFCURVE",
"151 422 OFFCURVE",
"172 443 CURVE",
"119 389 LINE",
"156 424 OFFCURVE",
"203 440 OFFCURVE",
"249 440 CURVE SMOOTH",
"272 440 OFFCURVE",
"297 437 OFFCURVE",
"346 410 CURVE",
"284 452 LINE",
"261 373 OFFCURVE",
"292 341 OFFCURVE",
"335 341 CURVE SMOOTH",
"371 341 OFFCURVE",
"400 358 OFFCURVE",
"400 409 CURVE SMOOTH",
"400 470 OFFCURVE",
"344 514 OFFCURVE",
"259 514 CURVE SMOOTH",
"123 514 OFFCURVE",
"36 422 OFFCURVE",
"36 246 CURVE SMOOTH",
"36 75 OFFCURVE",
"117 -14 OFFCURVE",
"253 -14 CURVE SMOOTH",
"295 -14 OFFCURVE",
"336 -9 OFFCURVE",
"384 16 CURVE",
"384 92 LINE"
);
}
);
width = 438;
},
{
associatedMasterId = "037EC45F-2845-4C9D-A982-99EFE46CDFCF";
layerId = "7214FE2C-CB98-45F7-AA6C-2057B9E4C400";
name = "Aug 28 21, 20:29";
paths = (
{
closed = 1;
nodes = (
"379 -14 OFFCURVE",
"466 78 OFFCURVE",
"466 254 CURVE SMOOTH",
"466 425 OFFCURVE",
"385 514 OFFCURVE",
"259 514 CURVE SMOOTH",
"123 514 OFFCURVE",
"36 422 OFFCURVE",
"36 246 CURVE SMOOTH",
"36 75 OFFCURVE",
"117 -14 OFFCURVE",
"243 -14 CURVE SMOOTH"
);
},
{
closed = 1;
nodes = (
"383 111 LINE",
"346 76 OFFCURVE",
"299 60 OFFCURVE",
"253 60 CURVE SMOOTH",
"175 60 OFFCURVE",
"136 106 OFFCURVE",
"136 242 CURVE SMOOTH",
"136 345 OFFCURVE",
"151 422 OFFCURVE",
"172 443 CURVE",
"119 389 LINE",
"156 424 OFFCURVE",
"203 440 OFFCURVE",
"249 440 CURVE SMOOTH",
"327 440 OFFCURVE",
"366 394 OFFCURVE",
"366 258 CURVE SMOOTH",
"366 155 OFFCURVE",
"351 78 OFFCURVE",
"330 57 CURVE"
);
}
);
visible = 1;
width = 438;
},
{
associatedMasterId = "037EC45F-2845-4C9D-A982-99EFE46CDFCF";
layerId = "A1C5D344-6050-43A2-AEA2-B40314EAD745";
name = "Aug 31 21, 20:55";
paths = (
{
closed = 1;
nodes = (
"340 68 OFFCURVE",
"305 60 OFFCURVE",
"273 60 CURVE SMOOTH",
"175 60 OFFCURVE",
"136 106 OFFCURVE",
"136 242 CURVE SMOOTH",
"136 345 OFFCURVE",
"151 422 OFFCURVE",
"172 443 CURVE",
"119 389 LINE",
"156 424 OFFCURVE",
"203 440 OFFCURVE",
"249 440 CURVE SMOOTH",
"272 440 OFFCURVE",
"297 437 OFFCURVE",
"346 410 CURVE",
"290 452 LINE",
"285 434 OFFCURVE",
"282 420 OFFCURVE",
"282 406 CURVE SMOOTH",
"282 364 OFFCURVE",
"307 346 OFFCURVE",
"338 346 CURVE SMOOTH",
"372 346 OFFCURVE",
"400 363 OFFCURVE",
"400 411 CURVE SMOOTH",
"400 470 OFFCURVE",
"344 514 OFFCURVE",
"259 514 CURVE SMOOTH",
"123 514 OFFCURVE",
"36 422 OFFCURVE",
"36 246 CURVE SMOOTH",
"36 75 OFFCURVE",
"117 -14 OFFCURVE",
"253 -14 CURVE SMOOTH",
"295 -14 OFFCURVE",
"336 -9 OFFCURVE",
"384 16 CURVE",
"384 92 LINE"
);
}
);
width = 438;
},
{
associatedMasterId = "037EC45F-2845-4C9D-A982-99EFE46CDFCF";
layerId = "8BC8F890-6DFE-49F4-AA7A-E4FFE88B1F75";
name = "Sep 10 21, 04:39";
paths = (
{
closed = 1;
nodes = (
"295 440 OFFCURVE",
"335 427 OFFCURVE",
"384 388 CURVE",
"384 470 LINE",
"355 500 OFFCURVE",
"315 514 OFFCURVE",
"269 514 CURVE SMOOTH",
"118 514 OFFCURVE",
"36 420 OFFCURVE",
"36 246 CURVE SMOOTH",
"36 75 OFFCURVE",
"117 -14 OFFCURVE",
"253 -14 CURVE SMOOTH",
"295 -14 OFFCURVE",
"336 -9 OFFCURVE",
"384 16 CURVE",
"384 102 LINE",
"340 68 OFFCURVE",
"305 60 OFFCURVE",
"273 60 CURVE SMOOTH",
"175 60 OFFCURVE",
"136 106 OFFCURVE",
"136 242 CURVE SMOOTH",
"136 345 OFFCURVE",
"151 422 OFFCURVE",
"172 443 CURVE",
"119 389 LINE",
"156 424 OFFCURVE",
"203 440 OFFCURVE",
"249 440 CURVE SMOOTH"
);
}
);
width = 414;
},
{
layerId = "037EC45F-2845-4C9D-A982-99EFE46CDFCF";
paths = (
{
closed = 1;
nodes = (
"305 440 OFFCURVE",
"340 432 OFFCURVE",
"384 408 CURVE",
"384 484 LINE",
"358 503 OFFCURVE",
"315 514 OFFCURVE",
"269 514 CURVE SMOOTH",
"118 514 OFFCURVE",
"36 420 OFFCURVE",
"36 246 CURVE SMOOTH",
"36 75 OFFCURVE",
"117 -14 OFFCURVE",
"253 -14 CURVE SMOOTH",
"295 -14 OFFCURVE",
"336 -9 OFFCURVE",
"384 16 CURVE",
"384 92 LINE",
"340 68 OFFCURVE",
"305 60 OFFCURVE",
"273 60 CURVE SMOOTH",
"175 60 OFFCURVE",
"136 106 OFFCURVE",
"136 242 CURVE SMOOTH",
"136 345 OFFCURVE",
"151 422 OFFCURVE",
"172 443 CURVE",
"119 389 LINE",
"156 424 OFFCURVE",
"203 440 OFFCURVE",
"249 440 CURVE SMOOTH"
);
}
);
width = 414;
}
);
leftMetricsKey = o;
unicode = 0063;
},
{
color = 1;
glyphname = d;
lastChange = "2021-09-16 01:46:34 +0000";
layers = (
{
layerId = "037EC45F-2845-4C9D-A982-99EFE46CDFCF";
paths = (
{
closed = 1;
nodes = (
"468 0 LINE",
"446 48 OFFCURVE",
"438 89 OFFCURVE",
"438 153 CURVE SMOOTH",
"438 700 LINE",
"344 700 LINE",
"344 80 LINE",
"346 57 OFFCURVE",
"357 23 OFFCURVE",
"374 0 CURVE"
);
},
{
closed = 1;
nodes = (
"277 -14 OFFCURVE",
"344 19 OFFCURVE",
"382 78 CURVE",
"358 124 LINE",
"312 79 OFFCURVE",
"272 60 OFFCURVE",
"238 60 CURVE SMOOTH",
"175 60 OFFCURVE",
"136 116 OFFCURVE",
"136 242 CURVE SMOOTH",
"136 345 OFFCURVE",
"151 422 OFFCURVE",
"172 443 CURVE",
"119 389 LINE",
"156 424 OFFCURVE",
"203 440 OFFCURVE",
"249 440 CURVE SMOOTH",
"305 440 OFFCURVE",
"340 432 OFFCURVE",
"384 398 CURVE",
"384 474 LINE",
"358 503 OFFCURVE",
"315 514 OFFCURVE",
"269 514 CURVE SMOOTH",
"118 514 OFFCURVE",
"36 420 OFFCURVE",
"36 246 CURVE SMOOTH",
"36 75 OFFCURVE",
"107 -14 OFFCURVE",
"214 -14 CURVE SMOOTH"
);
}
);
width = 512;
},
{
associatedMasterId = "037EC45F-2845-4C9D-A982-99EFE46CDFCF";
layerId = "43668B9B-C469-47BF-BAFC-190A41B79970";
name = "Sep 1 21, 22:02";
paths = (
{
closed = 1;
nodes = (
"305 440 OFFCURVE",
"340 432 OFFCURVE",
"384 398 CURVE",
"384 474 LINE",
"358 503 OFFCURVE",
"315 514 OFFCURVE",
"269 514 CURVE SMOOTH",
"118 514 OFFCURVE",
"36 420 OFFCURVE",
"36 246 CURVE SMOOTH",
"36 75 OFFCURVE",
"117 -14 OFFCURVE",
"233 -14 CURVE SMOOTH",
"285 -14 OFFCURVE",
"340 10 OFFCURVE",
"384 56 CURVE",
"384 132 LINE",
"330 78 OFFCURVE",
"295 60 OFFCURVE",
"253 60 CURVE SMOOTH",
"175 60 OFFCURVE",
"136 106 OFFCURVE",
"136 242 CURVE SMOOTH",
"136 345 OFFCURVE",
"151 422 OFFCURVE",
"172 443 CURVE",
"119 389 LINE",
"156 424 OFFCURVE",
"203 440 OFFCURVE",
"249 440 CURVE SMOOTH"
);
},
{
closed = 1;
nodes = (
"436 0 LINE",
"436 700 LINE",
"342 700 LINE",
"342 70 LINE",
"372 0 LINE"
);
}
);
width = 510;
},
{
associatedMasterId = "037EC45F-2845-4C9D-A982-99EFE46CDFCF";
layerId = "32753F63-066F-4BF6-80D8-886933C66B90";
name = e_02;
paths = (
{
closed = 1;
nodes = (
"305 440 OFFCURVE",
"340 432 OFFCURVE",
"384 398 CURVE",
"384 474 LINE",
"358 503 OFFCURVE",
"315 514 OFFCURVE",
"269 514 CURVE SMOOTH",
"118 514 OFFCURVE",
"36 420 OFFCURVE",
"36 246 CURVE SMOOTH",
"36 75 OFFCURVE",
"117 -14 OFFCURVE",
"233 -14 CURVE SMOOTH",
"285 -14 OFFCURVE",
"340 10 OFFCURVE",
"384 56 CURVE",
"384 132 LINE",
"330 78 OFFCURVE",
"295 60 OFFCURVE",
"253 60 CURVE SMOOTH",
"175 60 OFFCURVE",
"136 106 OFFCURVE",
"136 242 CURVE SMOOTH",
"136 345 OFFCURVE",
"151 422 OFFCURVE",
"172 443 CURVE",
"119 389 LINE",
"156 424 OFFCURVE",
"203 440 OFFCURVE",
"249 440 CURVE SMOOTH"
);
},
{
closed = 1;
nodes = (
"438 0 LINE",
"438 700 LINE",
"344 700 LINE",
"344 70 LINE",
"374 0 LINE"
);
}
);
width = 512;
},
{
associatedMasterId = "037EC45F-2845-4C9D-A982-99EFE46CDFCF";
layerId = "4F499E2C-E04C-49F2-A757-1F89DE43B347";
name = /u;
paths = (
{
closed = 1;
nodes = (
"271 -14 OFFCURVE",
"338 19 OFFCURVE",
"382 78 CURVE",
"358 124 LINE",
"306 79 OFFCURVE",
"266 60 OFFCURVE",
"226 60 CURVE SMOOTH",
"174 60 OFFCURVE",
"150 92 OFFCURVE",
"150 160 CURVE SMOOTH",
"150 500 LINE",
"56 500 LINE",
"56 146 LINE SMOOTH",
"56 42 OFFCURVE",
"106 -14 OFFCURVE",
"198 -14 CURVE SMOOTH"
);
},
{
closed = 1;
nodes = (
"460 0 LINE",
"444 48 OFFCURVE",
"438 89 OFFCURVE",
"438 153 CURVE SMOOTH",
"438 500 LINE",
"344 500 LINE",
"344 80 LINE",
"346 57 OFFCURVE",
"357 23 OFFCURVE",
"374 0 CURVE"
);
}
);
visible = 1;
width = 512;
},
{
associatedMasterId = "037EC45F-2845-4C9D-A982-99EFE46CDFCF";
layerId = "C954BD6D-7DB7-4A56-B573-C3DADCA14679";
name = "Sep 15 21, 17:29";
paths = (
{
closed = 1;
nodes = (
"460 0 LINE",
"444 48 OFFCURVE",
"438 89 OFFCURVE",
"438 153 CURVE SMOOTH",
"438 700 LINE",
"344 700 LINE",
"344 80 LINE",
"346 57 OFFCURVE",
"357 23 OFFCURVE",
"374 0 CURVE"
);
},
{
closed = 1;
nodes = (
"277 -14 OFFCURVE",
"344 19 OFFCURVE",
"382 78 CURVE",
"358 124 LINE",
"312 79 OFFCURVE",
"272 60 OFFCURVE",
"238 60 CURVE SMOOTH",
"165 60 OFFCURVE",
"136 106 OFFCURVE",
"136 242 CURVE SMOOTH",
"136 345 OFFCURVE",
"151 422 OFFCURVE",
"172 443 CURVE",
"119 389 LINE",
"156 424 OFFCURVE",
"203 440 OFFCURVE",
"249 440 CURVE SMOOTH",
"305 440 OFFCURVE",
"340 432 OFFCURVE",
"384 398 CURVE",
"384 474 LINE",
"358 503 OFFCURVE",
"315 514 OFFCURVE",
"269 514 CURVE SMOOTH",
"118 514 OFFCURVE",
"36 420 OFFCURVE",
"36 246 CURVE SMOOTH",
"36 75 OFFCURVE",
"107 -14 OFFCURVE",
"214 -14 CURVE SMOOTH"
);
},
{
closed = 0;
nodes = (
"86 192 LINE",
"188 10 LINE"
);
}
);
width = 512;
}
);
leftMetricsKey = o;
unicode = 0064;
},
{
color = 4;
glyphname = e;
lastChange = "2021-09-16 00:40:49 +0000";
layers = (
{
layerId = "037EC45F-2845-4C9D-A982-99EFE46CDFCF";
paths = (
{
closed = 1;
nodes = (
"357 75 OFFCURVE",
"309 60 OFFCURVE",
"267 60 CURVE SMOOTH",
"175 60 OFFCURVE",
"134 106 OFFCURVE",
"134 242 CURVE SMOOTH",
"134 345 OFFCURVE",
"151 422 OFFCURVE",
"172 443 CURVE",
"119 391 LINE",
"156 426 OFFCURVE",
"203 442 OFFCURVE",
"243 442 CURVE SMOOTH",
"309 442 OFFCURVE",
"340 394 OFFCURVE",
"340 278 CURVE",
"389 287 LINE",
"98 287 LINE",
"99 219 LINE",
"434 219 LINE",
"436 234 OFFCURVE",
"438 258 OFFCURVE",
"438 274 CURVE SMOOTH",
"438 425 OFFCURVE",
"387 514 OFFCURVE",
"253 514 CURVE SMOOTH",
"123 514 OFFCURVE",
"36 422 OFFCURVE",
"36 246 CURVE SMOOTH",
"36 75 OFFCURVE",
"117 -14 OFFCURVE",
"247 -14 CURVE SMOOTH",
"301 -14 OFFCURVE",
"354 -5 OFFCURVE",
"401 23 CURVE",
"401 99 LINE"
);
}
);
width = 468;
},
{
associatedMasterId = "037EC45F-2845-4C9D-A982-99EFE46CDFCF";
layerId = "C942FEF8-C513-4452-9FDB-B4B3691D35BC";
name = "Aug 25 21, 17:58";
paths = (
{
closed = 1;
nodes = (
"361 69 OFFCURVE",
"327 60 OFFCURVE",
"273 60 CURVE SMOOTH",
"175 60 OFFCURVE",
"136 106 OFFCURVE",
"136 242 CURVE SMOOTH",
"136 345 OFFCURVE",
"151 422 OFFCURVE",
"172 443 CURVE",
"119 389 LINE",
"156 424 OFFCURVE",
"203 440 OFFCURVE",
"249 440 CURVE SMOOTH",
"317 440 OFFCURVE",
"346 394 OFFCURVE",
"346 278 CURVE",
"397 287 LINE",
"98 287 LINE",
"99 219 LINE",
"442 219 LINE",
"444 234 OFFCURVE",
"446 258 OFFCURVE",
"446 274 CURVE SMOOTH",
"446 425 OFFCURVE",
"385 514 OFFCURVE",
"259 514 CURVE SMOOTH",
"123 514 OFFCURVE",
"36 422 OFFCURVE",
"36 246 CURVE SMOOTH",
"36 75 OFFCURVE",
"117 -14 OFFCURVE",
"253 -14 CURVE SMOOTH",
"307 -14 OFFCURVE",
"362 -3 OFFCURVE",
"409 29 CURVE",
"409 98 LINE"
);
}
);
width = 478;
},
{
associatedMasterId = "037EC45F-2845-4C9D-A982-99EFE46CDFCF";
layerId = "00425CAA-59F8-44B2-AC56-810D4F1DDD0F";
name = "Aug 29 21, 16:10";
paths = (
{
closed = 1;
nodes = (
"365 75 OFFCURVE",
"317 60 OFFCURVE",
"273 60 CURVE SMOOTH",
"175 60 OFFCURVE",
"136 106 OFFCURVE",
"136 242 CURVE SMOOTH",
"136 345 OFFCURVE",
"151 422 OFFCURVE",
"172 443 CURVE",
"119 389 LINE",
"156 424 OFFCURVE",
"203 440 OFFCURVE",
"249 440 CURVE SMOOTH",
"317 440 OFFCURVE",
"346 394 OFFCURVE",
"346 278 CURVE",
"397 287 LINE",
"98 287 LINE",
"99 219 LINE",
"442 219 LINE",
"444 234 OFFCURVE",
"446 258 OFFCURVE",
"446 274 CURVE SMOOTH",
"446 425 OFFCURVE",
"395 514 OFFCURVE",
"259 514 CURVE SMOOTH",
"123 514 OFFCURVE",
"36 422 OFFCURVE",
"36 246 CURVE SMOOTH",
"36 75 OFFCURVE",
"117 -14 OFFCURVE",
"253 -14 CURVE SMOOTH",
"309 -14 OFFCURVE",
"362 -5 OFFCURVE",
"409 23 CURVE",
"409 99 LINE"
);
}
);
width = 478;
},
{
associatedMasterId = "037EC45F-2845-4C9D-A982-99EFE46CDFCF";
layerId = "46D82228-6CEE-468D-81C0-44B9EBB9106A";
name = "Aug 29 21, 16:10";
paths = (
{
closed = 1;
nodes = (
"379 -14 OFFCURVE",
"466 78 OFFCURVE",
"466 254 CURVE SMOOTH",
"466 425 OFFCURVE",
"385 514 OFFCURVE",
"259 514 CURVE SMOOTH",
"123 514 OFFCURVE",
"36 422 OFFCURVE",
"36 246 CURVE SMOOTH",
"36 75 OFFCURVE",
"117 -14 OFFCURVE",
"243 -14 CURVE SMOOTH"
);
},
{
closed = 1;
nodes = (
"383 111 LINE",
"346 76 OFFCURVE",
"299 60 OFFCURVE",
"253 60 CURVE SMOOTH",
"175 60 OFFCURVE",
"136 106 OFFCURVE",
"136 242 CURVE SMOOTH",
"136 345 OFFCURVE",
"151 422 OFFCURVE",
"172 443 CURVE",
"119 389 LINE",
"156 424 OFFCURVE",
"203 440 OFFCURVE",
"249 440 CURVE SMOOTH",
"327 440 OFFCURVE",
"366 394 OFFCURVE",
"366 258 CURVE SMOOTH",
"366 155 OFFCURVE",
"351 78 OFFCURVE",
"330 57 CURVE"
);
}
);
visible = 1;
width = 478;
}
);
leftMetricsKey = o;
unicode = 0065;
},
{
color = 1;
glyphname = f;
lastChange = "2021-09-16 03:53:10 +0000";
layers = (
{
layerId = "037EC45F-2845-4C9D-A982-99EFE46CDFCF";
paths = (
{
closed = 1;
nodes = (
"0 500 LINE",
"0 432 LINE",
"316 432 LINE",
"316 500 LINE"
);
},
{
closed = 1;
nodes = (
"335 709 LINE",
"316 714 OFFCURVE",
"266 716 OFFCURVE",
"244 716 CURVE SMOOTH",
"120 716 OFFCURVE",
"80 633 OFFCURVE",
"80 513 CURVE SMOOTH",
"80 0 LINE",
"174 0 LINE",
"174 513 LINE SMOOTH",
"174 552 OFFCURVE",
"179 629 OFFCURVE",
"188 655 CURVE",
"173 632 LINE",
"216 640 OFFCURVE",
"296 637 OFFCURVE",
"335 629 CURVE"
);
}
);
width = 321;
},
{
associatedMasterId = "037EC45F-2845-4C9D-A982-99EFE46CDFCF";
layerId = "F1816632-FF98-473A-A058-14D1D76B2DC9";
name = "Aug 28 21, 18:19";
paths = (
{
closed = 1;
nodes = (
"110 0 LINE",
"204 0 LINE",
"204 442 LINE SMOOTH",
"204 545 OFFCURVE",
"219 622 OFFCURVE",
"240 643 CURVE",
"187 589 LINE",
"224 624 OFFCURVE",
"271 640 OFFCURVE",
"317 640 CURVE SMOOTH",
"340 640 OFFCURVE",
"365 637 OFFCURVE",
"414 610 CURVE",
"352 652 LINE",
"329 573 OFFCURVE",
"360 541 OFFCURVE",
"403 541 CURVE SMOOTH",
"439 541 OFFCURVE",
"468 558 OFFCURVE",
"468 609 CURVE SMOOTH",
"468 670 OFFCURVE",
"412 714 OFFCURVE",
"327 714 CURVE SMOOTH",
"187 714 OFFCURVE",
"110 619 OFFCURVE",
"110 446 CURVE SMOOTH"
);
},
{
closed = 1;
nodes = (
"20 470 LINE",
"20 412 LINE",
"396 412 LINE",
"396 470 LINE"
);
}
);
width = 536;
},
{
associatedMasterId = "037EC45F-2845-4C9D-A982-99EFE46CDFCF";
layerId = "F1A0ACC4-E65C-474F-90C4-F8F0DC129F48";
name = "Sep 15 21, 20:52";
paths = (
{
closed = 1;
nodes = (
"110 0 LINE",
"204 0 LINE",
"204 538 LINE SMOOTH",
"204 604 OFFCURVE",
"213 640 OFFCURVE",
"261 640 CURVE SMOOTH",
"303 640 OFFCURVE",
"328 634 OFFCURVE",
"372 618 CURVE",
"372 694 LINE",
"343 705 OFFCURVE",
"311 714 OFFCURVE",
"271 714 CURVE SMOOTH",
"145 714 OFFCURVE",
"110 635 OFFCURVE",
"110 524 CURVE SMOOTH"
);
},
{
closed = 1;
nodes = (
"30 480 LINE",
"30 412 LINE",
"376 412 LINE",
"376 480 LINE"
);
}
);
width = 386;
}
);
unicode = 0066;
},
{
color = 1;
glyphname = g;
lastChange = "2021-09-16 04:10:32 +0000";
layers = (
{
layerId = "037EC45F-2845-4C9D-A982-99EFE46CDFCF";
paths = (
{
closed = 1;
nodes = (
"351 180 OFFCURVE",
"430 238 OFFCURVE",
"430 350 CURVE SMOOTH",
"430 449 OFFCURVE",
"348 514 OFFCURVE",
"253 514 CURVE SMOOTH",
"141 514 OFFCURVE",
"62 456 OFFCURVE",
"62 344 CURVE SMOOTH",
"62 236 OFFCURVE",
"135 180 OFFCURVE",
"239 180 CURVE SMOOTH"
);
},
{
closed = 1;
nodes = (
"359 271 LINE",
"324 252 OFFCURVE",
"280 243 OFFCURVE",
"248 243 CURVE SMOOTH",
"188 243 OFFCURVE",
"152 268 OFFCURVE",
"152 343 CURVE SMOOTH",
"152 399 OFFCURVE",
"166 442 OFFCURVE",
"186 453 CURVE",
"134 423 LINE",
"168 442 OFFCURVE",
"211 451 OFFCURVE",
"244 451 CURVE SMOOTH",
"304 451 OFFCURVE",
"340 426 OFFCURVE",
"340 351 CURVE SMOOTH",
"340 295 OFFCURVE",
"327 252 OFFCURVE",
"307 241 CURVE"
);
},
{
closed = 1;
nodes = (
"449 572 LINE",
"253 514 LINE",
"253 468 LINE",
"449 494 LINE"
);
},
{
closed = 1;
nodes = (
"68 81 LINE",
"30 67 OFFCURVE",
"0 20 OFFCURVE",
"0 -39 CURVE SMOOTH",
"0 -128 OFFCURVE",
"70 -200 OFFCURVE",
"247 -200 CURVE SMOOTH",
"407 -200 OFFCURVE",
"468 -139 OFFCURVE",
"468 -34 CURVE SMOOTH",
"468 176 OFFCURVE",
"113 49 OFFCURVE",
"113 144 CURVE SMOOTH",
"113 176 OFFCURVE",
"163 202 OFFCURVE",
"197 212 CURVE",
"147 235 LINE",
"87 233 OFFCURVE",
"40 187 OFFCURVE",
"40 120 CURVE SMOOTH",
"40 -49 OFFCURVE",
"403 75 OFFCURVE",
"403 -57 CURVE SMOOTH",
"403 -87 OFFCURVE",
"395 -102 OFFCURVE",
"386 -119 CURVE",
"416 -102 LINE",
"365 -117 OFFCURVE",
"293 -119 OFFCURVE",
"231 -119 CURVE SMOOTH",
"132 -119 OFFCURVE",
"76 -74 OFFCURVE",
"76 -12 CURVE SMOOTH",
"76 11 OFFCURVE",
"85 35 OFFCURVE",
"96 55 CURVE"
);
}
);
width = 465;
},
{
associatedMasterId = "037EC45F-2845-4C9D-A982-99EFE46CDFCF";
layerId = "65EEDE07-359A-4D6E-83C2-7670C861E86D";
name = "Aug 31 21, 16:06";
paths = (
{
closed = 1;
nodes = (
"360 142 OFFCURVE",
"447 203 OFFCURVE",
"447 331 CURVE SMOOTH",
"447 455 OFFCURVE",
"366 514 OFFCURVE",
"250 514 CURVE SMOOTH",
"124 514 OFFCURVE",
"37 453 OFFCURVE",
"37 325 CURVE SMOOTH",
"37 201 OFFCURVE",
"118 142 OFFCURVE",
"234 142 CURVE SMOOTH"
);
},
{
closed = 1;
nodes = (
"364 238 LINE",
"327 218 OFFCURVE",
"280 208 OFFCURVE",
"244 208 CURVE SMOOTH",
"176 208 OFFCURVE",
"137 235 OFFCURVE",
"137 324 CURVE SMOOTH",
"137 392 OFFCURVE",
"152 438 OFFCURVE",
"173 450 CURVE",
"120 418 LINE",
"157 438 OFFCURVE",
"204 448 OFFCURVE",
"240 448 CURVE SMOOTH",
"308 448 OFFCURVE",
"347 421 OFFCURVE",
"347 332 CURVE SMOOTH",
"347 264 OFFCURVE",
"332 218 OFFCURVE",
"311 206 CURVE"
);
},
{
closed = 1;
nodes = (
"250 458 LINE",
"475 458 LINE",
"475 514 LINE",
"250 514 LINE"
);
},
{
closed = 1;
nodes = (
"77 202 OFFCURVE",
"34 165 OFFCURVE",
"34 118 CURVE SMOOTH",
"34 -9 OFFCURVE",
"376 22 OFFCURVE",
"376 -68 CURVE",
"362 -94 OFFCURVE",
"327 -110 OFFCURVE",
"255 -110 CURVE SMOOTH",
"164 -110 OFFCURVE",
"87 -91 OFFCURVE",
"87 -8 CURVE SMOOTH",
"87 17 OFFCURVE",
"103 33 OFFCURVE",
"123 48 CURVE",
"87 65 LINE",
"38 48 OFFCURVE",
"4 5 OFFCURVE",
"4 -40 CURVE SMOOTH",
"4 -142 OFFCURVE",
"114 -184 OFFCURVE",
"238 -184 CURVE SMOOTH",
"378 -184 OFFCURVE",
"476 -130 OFFCURVE",
"476 -49 CURVE SMOOTH",
"476 91 OFFCURVE",
"134 84 OFFCURVE",
"104 137 CURVE",
"104 161 OFFCURVE",
"122 166 OFFCURVE",
"161 186 CURVE",
"121 218 LINE"
);
}
);
width = 480;
},
{
associatedMasterId = "037EC45F-2845-4C9D-A982-99EFE46CDFCF";
layerId = "231A7FF8-6F99-479E-8609-978E40287E04";
name = "Aug 31 21, 16:09";
paths = (
{
closed = 1;
nodes = (
"360 146 OFFCURVE",
"447 210 OFFCURVE",
"447 333 CURVE SMOOTH",
"447 452 OFFCURVE",
"366 514 OFFCURVE",
"250 514 CURVE SMOOTH",
"124 514 OFFCURVE",
"37 450 OFFCURVE",
"37 327 CURVE SMOOTH",
"37 208 OFFCURVE",
"118 146 OFFCURVE",
"234 146 CURVE SMOOTH"
);
},
{
closed = 1;
nodes = (
"364 246 LINE",
"327 225 OFFCURVE",
"280 215 OFFCURVE",
"244 215 CURVE SMOOTH",
"176 215 OFFCURVE",
"137 243 OFFCURVE",
"137 326 CURVE SMOOTH",
"137 387 OFFCURVE",
"152 435 OFFCURVE",
"173 447 CURVE",
"120 414 LINE",
"157 435 OFFCURVE",
"204 445 OFFCURVE",
"240 445 CURVE SMOOTH",
"308 445 OFFCURVE",
"347 417 OFFCURVE",
"347 334 CURVE SMOOTH",
"347 273 OFFCURVE",
"332 225 OFFCURVE",
"311 213 CURVE"
);
},
{
closed = 1;
nodes = (
"250 466 LINE",
"475 456 LINE",
"475 514 LINE",
"250 514 LINE"
);
},
{
closed = 1;
nodes = (
"77 209 OFFCURVE",
"34 180 OFFCURVE",
"34 131 CURVE SMOOTH",
"34 -31 OFFCURVE",
"376 11 OFFCURVE",
"376 -83 CURVE",
"362 -120 OFFCURVE",
"327 -137 OFFCURVE",
"255 -137 CURVE SMOOTH",
"164 -137 OFFCURVE",
"87 -117 OFFCURVE",
"87 -30 CURVE SMOOTH",
"87 -4 OFFCURVE",
"103 12 OFFCURVE",
"123 28 CURVE",
"87 46 LINE",
"38 28 OFFCURVE",
"4 -17 OFFCURVE",
"4 -64 CURVE SMOOTH",
"4 -170 OFFCURVE",
"114 -214 OFFCURVE",
"238 -214 CURVE SMOOTH",
"378 -214 OFFCURVE",
"476 -158 OFFCURVE",
"476 -73 CURVE SMOOTH",
"476 83 OFFCURVE",
"134 86 OFFCURVE",
"104 141 CURVE",
"104 166 OFFCURVE",
"122 171 OFFCURVE",
"161 192 CURVE",
"121 225 LINE"
);
}
);
width = 480;
},
{
associatedMasterId = "037EC45F-2845-4C9D-A982-99EFE46CDFCF";
layerId = "F489D635-4FD0-4AD3-B861-18C958425795";
name = "Aug 31 21, 16:14";
paths = (
{
closed = 1;
nodes = (
"360 -214 OFFCURVE",
"488 -148 OFFCURVE",
"488 -53 CURVE SMOOTH",
"488 113 OFFCURVE",
"156 56 OFFCURVE",
"126 141 CURVE",
"126 166 OFFCURVE",
"134 181 OFFCURVE",
"173 192 CURVE",
"123 225 LINE",
"81 205 OFFCURVE",
"46 170 OFFCURVE",
"46 121 CURVE SMOOTH",
"46 -31 OFFCURVE",
"388 31 OFFCURVE",
"388 -63 CURVE SMOOTH",
"388 -101 OFFCURVE",
"371 -133 OFFCURVE",
"346 -141 CURVE",
"408 -120 LINE",
"365 -133 OFFCURVE",
"309 -140 OFFCURVE",
"267 -140 CURVE SMOOTH",
"176 -139 OFFCURVE",
"99 -117 OFFCURVE",
"99 -40 CURVE SMOOTH",
"99 -14 OFFCURVE",
"115 12 OFFCURVE",
"135 28 CURVE",
"99 56 LINE",
"50 28 OFFCURVE",
"16 -17 OFFCURVE",
"16 -74 CURVE SMOOTH",
"16 -170 OFFCURVE",
"116 -214 OFFCURVE",
"230 -214 CURVE SMOOTH"
);
},
{
closed = 1;
nodes = (
"371 146 OFFCURVE",
"458 210 OFFCURVE",
"458 333 CURVE SMOOTH",
"458 452 OFFCURVE",
"377 514 OFFCURVE",
"261 514 CURVE SMOOTH",
"135 514 OFFCURVE",
"48 450 OFFCURVE",
"48 327 CURVE SMOOTH",
"48 208 OFFCURVE",
"129 146 OFFCURVE",
"245 146 CURVE SMOOTH"
);
},
{
closed = 1;
nodes = (
"379 246 LINE",
"341 225 OFFCURVE",
"292 215 OFFCURVE",
"255 215 CURVE SMOOTH",
"185 215 OFFCURVE",
"145 243 OFFCURVE",
"145 326 CURVE SMOOTH",
"145 387 OFFCURVE",
"160 435 OFFCURVE",
"182 447 CURVE",
"127 414 LINE",
"165 435 OFFCURVE",
"214 445 OFFCURVE",
"251 445 CURVE SMOOTH",
"321 445 OFFCURVE",
"361 417 OFFCURVE",
"361 334 CURVE SMOOTH",
"361 273 OFFCURVE",
"346 225 OFFCURVE",
"324 213 CURVE"
);
},
{
closed = 1;
nodes = (
"486 514 LINE",
"261 514 LINE",
"261 466 LINE",
"486 456 LINE"
);
}
);
width = 502;
},
{
associatedMasterId = "037EC45F-2845-4C9D-A982-99EFE46CDFCF";
layerId = "6D5F6BBA-A588-435F-ABC6-9610EBEDE201";
name = "Aug 31 21, 16:14";
paths = (
{
closed = 1;
nodes = (
"360 -214 OFFCURVE",
"488 -148 OFFCURVE",
"488 -43 CURVE SMOOTH",
"488 123 OFFCURVE",
"156 56 OFFCURVE",
"126 141 CURVE",
"126 166 OFFCURVE",
"134 181 OFFCURVE",
"173 192 CURVE",
"123 225 LINE",
"81 205 OFFCURVE",
"46 170 OFFCURVE",
"46 121 CURVE SMOOTH",
"46 -31 OFFCURVE",
"388 41 OFFCURVE",
"388 -63 CURVE SMOOTH",
"388 -101 OFFCURVE",
"371 -133 OFFCURVE",
"346 -141 CURVE",
"408 -120 LINE",
"365 -133 OFFCURVE",
"309 -140 OFFCURVE",
"267 -140 CURVE SMOOTH",
"176 -139 OFFCURVE",
"99 -117 OFFCURVE",
"99 -40 CURVE SMOOTH",
"99 -14 OFFCURVE",
"115 12 OFFCURVE",
"135 28 CURVE",
"99 56 LINE",
"50 28 OFFCURVE",
"16 -17 OFFCURVE",
"16 -74 CURVE SMOOTH",
"16 -170 OFFCURVE",
"116 -214 OFFCURVE",
"230 -214 CURVE SMOOTH"
);
},
{
closed = 1;
nodes = (
"371 146 OFFCURVE",
"458 210 OFFCURVE",
"458 333 CURVE SMOOTH",
"458 452 OFFCURVE",
"377 514 OFFCURVE",
"261 514 CURVE SMOOTH",
"135 514 OFFCURVE",
"48 450 OFFCURVE",
"48 327 CURVE SMOOTH",
"48 208 OFFCURVE",
"129 146 OFFCURVE",
"245 146 CURVE SMOOTH"
);
},
{
closed = 1;
nodes = (
"379 246 LINE",
"341 225 OFFCURVE",
"292 215 OFFCURVE",
"255 215 CURVE SMOOTH",
"185 215 OFFCURVE",
"145 243 OFFCURVE",
"145 326 CURVE SMOOTH",
"145 387 OFFCURVE",
"160 435 OFFCURVE",
"182 447 CURVE",
"127 414 LINE",
"165 435 OFFCURVE",
"214 445 OFFCURVE",
"251 445 CURVE SMOOTH",
"321 445 OFFCURVE",
"361 417 OFFCURVE",
"361 334 CURVE SMOOTH",
"361 273 OFFCURVE",
"346 225 OFFCURVE",
"324 213 CURVE"
);
},
{
closed = 1;
nodes = (
"486 514 LINE",
"261 514 LINE",
"261 466 LINE",
"486 456 LINE"
);
}
);
width = 502;
},
{
associatedMasterId = "037EC45F-2845-4C9D-A982-99EFE46CDFCF";
layerId = "754AF433-7E60-489B-804B-D8935C6F2E71";
name = "Sep 15 21, 21:10";
paths = (
{
closed = 1;
nodes = (
"358 -214 OFFCURVE",
"486 -148 OFFCURVE",
"486 -43 CURVE SMOOTH",
"486 123 OFFCURVE",
"158 56 OFFCURVE",
"128 141 CURVE",
"128 166 OFFCURVE",
"136 181 OFFCURVE",
"175 192 CURVE",
"125 225 LINE",
"83 205 OFFCURVE",
"48 170 OFFCURVE",
"48 121 CURVE SMOOTH",
"48 -31 OFFCURVE",
"386 41 OFFCURVE",
"386 -63 CURVE SMOOTH",
"386 -101 OFFCURVE",
"369 -133 OFFCURVE",
"344 -141 CURVE",
"406 -120 LINE",
"363 -133 OFFCURVE",
"307 -140 OFFCURVE",
"267 -140 CURVE SMOOTH",
"178 -139 OFFCURVE",
"101 -117 OFFCURVE",
"101 -40 CURVE SMOOTH",
"101 -14 OFFCURVE",
"117 12 OFFCURVE",
"137 28 CURVE",
"101 56 LINE",
"52 28 OFFCURVE",
"18 -17 OFFCURVE",
"18 -74 CURVE SMOOTH",
"18 -170 OFFCURVE",
"118 -214 OFFCURVE",
"230 -214 CURVE SMOOTH"
);
},
{
closed = 1;
nodes = (
"369 146 OFFCURVE",
"456 210 OFFCURVE",
"456 333 CURVE SMOOTH",
"456 442 OFFCURVE",
"365 514 OFFCURVE",
"261 514 CURVE SMOOTH",
"137 514 OFFCURVE",
"50 450 OFFCURVE",
"50 327 CURVE SMOOTH",
"50 208 OFFCURVE",
"131 146 OFFCURVE",
"245 146 CURVE SMOOTH"
);
},
{
closed = 1;
nodes = (
"377 246 LINE",
"339 225 OFFCURVE",
"290 215 OFFCURVE",
"255 215 CURVE SMOOTH",
"187 215 OFFCURVE",
"147 243 OFFCURVE",
"147 326 CURVE SMOOTH",
"147 387 OFFCURVE",
"162 435 OFFCURVE",
"184 447 CURVE",
"129 414 LINE",
"167 435 OFFCURVE",
"214 445 OFFCURVE",
"251 445 CURVE SMOOTH",
"319 445 OFFCURVE",
"359 417 OFFCURVE",
"359 334 CURVE SMOOTH",
"359 273 OFFCURVE",
"344 225 OFFCURVE",
"322 213 CURVE"
);
},
{
closed = 1;
nodes = (
"488 514 LINE",
"261 514 LINE",
"261 460 LINE",
"488 446 LINE"
);
}
);
width = 502;
}
);
unicode = 0067;
},
{
color = 4;
glyphname = h;
lastChange = "2021-09-16 00:38:53 +0000";
layers = (
{
layerId = "037EC45F-2845-4C9D-A982-99EFE46CDFCF";
paths = (
{
closed = 1;
nodes = (
"105 -3 OFFCURVE",
"139 -3 OFFCURVE",
"168 0 CURVE",
"168 700 LINE",
"74 700 LINE",
"74 0 LINE"
);
},
{
closed = 1;
nodes = (
"456 0 LINE",
"456 354 LINE SMOOTH",
"456 458 OFFCURVE",
"406 514 OFFCURVE",
"314 514 CURVE SMOOTH",
"241 514 OFFCURVE",
"174 481 OFFCURVE",
"130 422 CURVE",
"154 376 LINE",
"206 421 OFFCURVE",
"246 440 OFFCURVE",
"286 440 CURVE SMOOTH",
"338 440 OFFCURVE",
"362 408 OFFCURVE",
"362 340 CURVE SMOOTH",
"362 0 LINE"
);
}
);
width = 524;
},
{
associatedMasterId = "037EC45F-2845-4C9D-A982-99EFE46CDFCF";
layerId = "4A56723B-C716-46A4-92C4-5B915E1C6F9E";
name = "Aug 25 21, 00:05";
paths = (
{
closed = 1;
nodes = (
"170 0 LINE",
"170 403 LINE",
"152 461 LINE",
"170 510 LINE",
"170 690 LINE",
"136 687 OFFCURVE",
"100 681 OFFCURVE",
"72 667 CURVE",
"72 638 OFFCURVE",
"76 609 OFFCURVE",
"76 580 CURVE",
"76 0 LINE"
);
},
{
closed = 1;
nodes = (
"221 432 OFFCURVE",
"252 440 OFFCURVE",
"282 440 CURVE SMOOTH",
"333 440 OFFCURVE",
"358 410 OFFCURVE",
"358 340 CURVE SMOOTH",
"358 0 LINE",
"452 0 LINE",
"452 357 LINE SMOOTH",
"452 457 OFFCURVE",
"406 514 OFFCURVE",
"307 514 CURVE SMOOTH",
"257 514 OFFCURVE",
"221 501 OFFCURVE",
"181 475 CURVE",
"184 456 OFFCURVE",
"190 436 OFFCURVE",
"199 417 CURVE"
);
}
);
width = 524;
},
{
associatedMasterId = "037EC45F-2845-4C9D-A982-99EFE46CDFCF";
layerId = "6CB2C92E-6B69-4F6C-90DC-C236850D9ACA";
name = "Aug 25 21, 17:51";
paths = (
{
closed = 1;
nodes = (
"389 -3 OFFCURVE",
"421 -3 OFFCURVE",
"452 0 CURVE",
"452 357 LINE SMOOTH",
"452 457 OFFCURVE",
"406 514 OFFCURVE",
"307 514 CURVE SMOOTH",
"250 514 OFFCURVE",
"183 488 OFFCURVE",
"135 437 CURVE",
"155 389 LINE",
"200 426 OFFCURVE",
"241 440 OFFCURVE",
"282 440 CURVE SMOOTH",
"333 440 OFFCURVE",
"358 410 OFFCURVE",
"358 340 CURVE SMOOTH",
"358 0 LINE"
);
},
{
closed = 1;
nodes = (
"107 -3 OFFCURVE",
"139 -3 OFFCURVE",
"170 0 CURVE",
"170 690 LINE",
"136 687 OFFCURVE",
"100 681 OFFCURVE",
"72 667 CURVE",
"72 638 OFFCURVE",
"76 609 OFFCURVE",
"76 580 CURVE",
"76 0 LINE"
);
}
);
width = 524;
},
{
associatedMasterId = "037EC45F-2845-4C9D-A982-99EFE46CDFCF";
layerId = "729CC11C-5C3D-46CC-955F-8DBC40506C54";
name = "Aug 28 21, 18:15";
paths = (
{
closed = 1;
nodes = (
"195 422 OFFCURVE",
"240 440 OFFCURVE",
"283 440 CURVE SMOOTH",
"339 440 OFFCURVE",
"362 410 OFFCURVE",
"362 340 CURVE SMOOTH",
"362 0 LINE",
"456 0 LINE",
"456 357 LINE SMOOTH",
"456 458 OFFCURVE",
"404 514 OFFCURVE",
"311 514 CURVE SMOOTH",
"245 514 OFFCURVE",
"179 486 OFFCURVE",
"133 437 CURVE",
"153 387 LINE"
);
},
{
closed = 1;
nodes = (
"131 689 OFFCURVE",
"95 681 OFFCURVE",
"68 667 CURVE",
"68 638 OFFCURVE",
"74 609 OFFCURVE",
"74 580 CURVE SMOOTH",
"74 0 LINE",
"105 -3 OFFCURVE",
"139 -3 OFFCURVE",
"168 0 CURVE",
"168 686 LINE",
"154 690 LINE"
);
}
);
width = 524;
},
{
associatedMasterId = "037EC45F-2845-4C9D-A982-99EFE46CDFCF";
layerId = "54210B8E-1B76-4638-A5A3-1654BFB121C3";
name = "Sep 15 21, 01:32";
paths = (
{
closed = 1;
nodes = (
"456 0 LINE",
"456 358 LINE SMOOTH",
"456 458 OFFCURVE",
"404 514 OFFCURVE",
"310 514 CURVE SMOOTH",
"244 514 OFFCURVE",
"179 486 OFFCURVE",
"132 437 CURVE",
"152 387 LINE",
"195 422 OFFCURVE",
"239 440 OFFCURVE",
"282 440 CURVE SMOOTH",
"339 440 OFFCURVE",
"362 410 OFFCURVE",
"362 340 CURVE SMOOTH",
"362 0 LINE"
);
},
{
closed = 1;
nodes = (
"105 -3 OFFCURVE",
"139 -3 OFFCURVE",
"168 0 CURVE",
"168 700 LINE",
"74 700 LINE",
"74 0 LINE"
);
}
);
visible = 1;
width = 524;
},
{
associatedMasterId = "037EC45F-2845-4C9D-A982-99EFE46CDFCF";
layerId = "0B99CFD4-20E1-4D27-A9DD-2D83C1AE72BC";
name = "Sep 15 21, 12:40";
paths = (
{
closed = 1;
nodes = (
"105 -3 OFFCURVE",
"139 -3 OFFCURVE",
"168 0 CURVE",
"168 700 LINE",
"74 700 LINE",
"74 0 LINE"
);
},
{
closed = 1;
nodes = (
"238 514 OFFCURVE",
"173 482 OFFCURVE",
"132 426 CURVE",
"150 378 LINE",
"186 417 OFFCURVE",
"235 440 OFFCURVE",
"282 440 CURVE SMOOTH",
"336 440 OFFCURVE",
"362 409 OFFCURVE",
"362 346 CURVE SMOOTH",
"362 0 LINE",
"456 0 LINE",
"456 354 LINE SMOOTH",
"456 459 OFFCURVE",
"405 514 OFFCURVE",
"310 514 CURVE SMOOTH"
);
}
);
width = 524;
},
{
associatedMasterId = "037EC45F-2845-4C9D-A982-99EFE46CDFCF";
layerId = "7962ECF3-33F9-4901-B6F4-98F77ECC3C48";
name = "Sep 15 21, 14:57";
paths = (
{
closed = 1;
nodes = (
"105 -3 OFFCURVE",
"139 -3 OFFCURVE",
"168 0 CURVE",
"168 700 LINE",
"74 700 LINE",
"74 0 LINE"
);
},
{
closed = 1;
nodes = (
"456 0 LINE",
"456 354 LINE SMOOTH",
"456 458 OFFCURVE",
"407 514 OFFCURVE",
"312 514 CURVE SMOOTH",
"239 514 OFFCURVE",
"170 478 OFFCURVE",
"126 418 CURVE",
"154 376 LINE",
"200 417 OFFCURVE",
"249 440 OFFCURVE",
"290 440 CURVE SMOOTH",
"341 440 OFFCURVE",
"362 410 OFFCURVE",
"362 340 CURVE SMOOTH",
"362 0 LINE"
);
}
);
width = 524;
},
{
associatedMasterId = "037EC45F-2845-4C9D-A982-99EFE46CDFCF";
guideLines = (
{
angle = -60;
position = "{154, 376}";
}
);
layerId = "023FC265-8053-45A0-B139-B5DEA08A15B3";
name = "Sep 15 21, 14:59";
paths = (
{
closed = 1;
nodes = (
"105 -3 OFFCURVE",
"139 -3 OFFCURVE",
"168 0 CURVE",
"168 700 LINE",
"74 700 LINE",
"74 0 LINE"
);
},
{
closed = 1;
nodes = (
"456 0 LINE",
"456 354 LINE SMOOTH",
"456 458 OFFCURVE",
"406 514 OFFCURVE",
"312 514 CURVE SMOOTH",
"238 514 OFFCURVE",
"170 479 OFFCURVE",
"126 418 CURVE",
"154 376 LINE",
"203 419 OFFCURVE",
"248 440 OFFCURVE",
"290 440 CURVE SMOOTH",
"340 440 OFFCURVE",
"362 410 OFFCURVE",
"362 340 CURVE SMOOTH",
"362 0 LINE"
);
}
);
width = 524;
},
{
associatedMasterId = "037EC45F-2845-4C9D-A982-99EFE46CDFCF";
layerId = "873B896B-82A8-469A-A92A-966A638D7532";
name = "Sep 15 21, 16:30";
paths = (
{
closed = 1;
nodes = (
"105 -3 OFFCURVE",
"139 -3 OFFCURVE",
"168 0 CURVE",
"168 700 LINE",
"74 700 LINE",
"74 0 LINE"
);
},
{
closed = 1;
nodes = (
"456 0 LINE",
"456 354 LINE SMOOTH",
"456 458 OFFCURVE",
"406 514 OFFCURVE",
"314 514 CURVE SMOOTH",
"241 514 OFFCURVE",
"174 479 OFFCURVE",
"130 418 CURVE",
"154 376 LINE",
"203 419 OFFCURVE",
"248 440 OFFCURVE",
"290 440 CURVE SMOOTH",
"340 440 OFFCURVE",
"362 410 OFFCURVE",
"362 340 CURVE SMOOTH",
"362 0 LINE"
);
}
);
width = 524;
}
);
leftMetricsKey = l;
rightMetricsKey = n;
unicode = 0068;
},
{
color = 1;
glyphname = i;
lastChange = "2021-09-16 01:41:41 +0000";
layers = (
{
associatedMasterId = "037EC45F-2845-4C9D-A982-99EFE46CDFCF";
layerId = "BD4B2314-2883-49DF-AF59-9EE7F3E660EF";
name = "Aug 25 21, 00:17";
paths = (
{
closed = 1;
nodes = (
"107 -3 OFFCURVE",
"139 -3 OFFCURVE",
"170 0 CURVE",
"170 512 LINE",
"136 509 OFFCURVE",
"100 503 OFFCURVE",
"72 489 CURVE",
"72 460 OFFCURVE",
"76 431 OFFCURVE",
"76 402 CURVE",
"76 0 LINE"
);
},
{
closed = 1;
nodes = (
"58 620 OFFCURVE",
"96 570 OFFCURVE",
"123 561 CURVE",
"159 592 OFFCURVE",
"171 648 OFFCURVE",
"166 680 CURVE",
"106 689 OFFCURVE",
"62 673 OFFCURVE",
"42 653 CURVE"
);
}
);
width = 246;
},
{
layerId = "037EC45F-2845-4C9D-A982-99EFE46CDFCF";
paths = (
{
closed = 1;
nodes = (
"74 500 LINE",
"74 0 LINE",
"168 0 LINE",
"168 500 LINE"
);
},
{
closed = 1;
nodes = (
"179 609 OFFCURVE",
"157 588 OFFCURVE",
"121 588 CURVE SMOOTH",
"85 588 OFFCURVE",
"63 609 OFFCURVE",
"63 646 CURVE SMOOTH",
"63 683 OFFCURVE",
"85 704 OFFCURVE",
"121 704 CURVE SMOOTH",
"157 704 OFFCURVE",
"179 683 OFFCURVE",
"179 646 CURVE SMOOTH"
);
}
);
width = 242;
},
{
associatedMasterId = "037EC45F-2845-4C9D-A982-99EFE46CDFCF";
layerId = "CFBC0CD6-81C2-4648-A732-3BBE277F4518";
name = "Aug 25 21, 00:19";
paths = (
{
closed = 1;
nodes = (
"107 -3 OFFCURVE",
"139 -3 OFFCURVE",
"170 0 CURVE",
"170 512 LINE",
"136 509 OFFCURVE",
"100 503 OFFCURVE",
"72 489 CURVE",
"72 460 OFFCURVE",
"76 431 OFFCURVE",
"76 402 CURVE",
"76 0 LINE"
);
},
{
closed = 1;
nodes = (
"68 610 OFFCURVE",
"77 583 OFFCURVE",
"102 562 CURVE",
"132 576 OFFCURVE",
"166 594 OFFCURVE",
"186 614 CURVE",
"168 644 OFFCURVE",
"159 669 OFFCURVE",
"136 690 CURVE",
"106 679 OFFCURVE",
"72 663 OFFCURVE",
"52 643 CURVE"
);
}
);
width = 246;
},
{
associatedMasterId = "037EC45F-2845-4C9D-A982-99EFE46CDFCF";
layerId = "00E3789B-04C4-4D45-B641-629D2A7FAC56";
name = "Aug 25 21, 00:19";
paths = (
{
closed = 1;
nodes = (
"107 -3 OFFCURVE",
"139 -3 OFFCURVE",
"170 0 CURVE",
"170 512 LINE",
"136 509 OFFCURVE",
"100 503 OFFCURVE",
"72 489 CURVE",
"72 460 OFFCURVE",
"76 431 OFFCURVE",
"76 402 CURVE",
"76 0 LINE"
);
},
{
closed = 1;
nodes = (
"63 636 OFFCURVE",
"58 608 OFFCURVE",
"71 578 CURVE",
"104 576 OFFCURVE",
"142 576 OFFCURVE",
"169 584 CURVE",
"167 619 OFFCURVE",
"171 646 OFFCURVE",
"161 675 CURVE",
"129 679 OFFCURVE",
"92 681 OFFCURVE",
"65 673 CURVE"
);
}
);
width = 246;
},
{
associatedMasterId = "037EC45F-2845-4C9D-A982-99EFE46CDFCF";
layerId = "FF2721CC-876A-4235-8CE3-79D3E7F30A9E";
name = "Aug 25 21, 00:20";
paths = (
{
closed = 1;
nodes = (
"107 -3 OFFCURVE",
"139 -3 OFFCURVE",
"170 0 CURVE",
"170 512 LINE",
"136 509 OFFCURVE",
"100 503 OFFCURVE",
"72 489 CURVE",
"72 460 OFFCURVE",
"76 431 OFFCURVE",
"76 402 CURVE",
"76 0 LINE"
);
},
{
closed = 1;
nodes = (
"160 586 OFFCURVE",
"183 609 OFFCURVE",
"183 646 CURVE SMOOTH",
"183 683 OFFCURVE",
"160 706 OFFCURVE",
"123 706 CURVE SMOOTH",
"86 706 OFFCURVE",
"63 683 OFFCURVE",
"63 646 CURVE SMOOTH",
"63 609 OFFCURVE",
"86 586 OFFCURVE",
"123 586 CURVE SMOOTH"
);
}
);
visible = 1;
width = 246;
},
{
associatedMasterId = "037EC45F-2845-4C9D-A982-99EFE46CDFCF";
layerId = "E0299C52-1005-41A2-B0C9-A9CEF0781456";
name = "Aug 25 21, 17:53";
paths = (
{
closed = 1;
nodes = (
"107 -3 OFFCURVE",
"139 -3 OFFCURVE",
"170 0 CURVE",
"170 512 LINE",
"136 509 OFFCURVE",
"100 503 OFFCURVE",
"72 489 CURVE",
"72 460 OFFCURVE",
"76 431 OFFCURVE",
"76 402 CURVE",
"76 0 LINE"
);
},
{
closed = 1;
nodes = (
"181 609 OFFCURVE",
"159 588 OFFCURVE",
"123 588 CURVE SMOOTH",
"87 588 OFFCURVE",
"65 609 OFFCURVE",
"65 646 CURVE SMOOTH",
"65 683 OFFCURVE",
"87 704 OFFCURVE",
"123 704 CURVE SMOOTH",
"159 704 OFFCURVE",
"181 683 OFFCURVE",
"181 646 CURVE SMOOTH"
);
}
);
width = 246;
},
{
associatedMasterId = "037EC45F-2845-4C9D-A982-99EFE46CDFCF";
layerId = "8CF81BD4-F6B9-431A-B0B1-BC8FA9575710";
name = "Aug 28 21, 04:55";
paths = (
{
closed = 1;
nodes = (
"74 500 LINE",
"74 0 LINE",
"168 0 LINE",
"168 500 LINE"
);
},
{
closed = 1;
nodes = (
"181 609 OFFCURVE",
"159 588 OFFCURVE",
"123 588 CURVE SMOOTH",
"87 588 OFFCURVE",
"65 609 OFFCURVE",
"65 646 CURVE SMOOTH",
"65 683 OFFCURVE",
"87 704 OFFCURVE",
"123 704 CURVE SMOOTH",
"159 704 OFFCURVE",
"181 683 OFFCURVE",
"181 646 CURVE SMOOTH"
);
}
);
width = 246;
}
);
unicode = 0069;
},
{
color = 4;
glyphname = idotless;
lastChange = "2021-09-16 01:46:29 +0000";
layers = (
{
anchors = (
{
name = bottom;
position = "{121, 0}";
},
{
name = ogonek;
position = "{218, 10}";
},
{
name = top;
position = "{121, 500}";
}
);
layerId = "037EC45F-2845-4C9D-A982-99EFE46CDFCF";
paths = (
{
closed = 1;
nodes = (
"74 500 LINE",
"74 0 LINE",
"168 0 LINE",
"168 500 LINE"
);
}
);
width = 242;
}
);
unicode = 0131;
},
{
color = 6;
glyphname = j;
lastChange = "2021-09-16 04:02:15 +0000";
layers = (
{
layerId = "037EC45F-2845-4C9D-A982-99EFE46CDFCF";
paths = (
{
closed = 1;
nodes = (
"-87 -209 LINE",
"-68 -214 OFFCURVE",
"-18 -216 OFFCURVE",
"4 -216 CURVE SMOOTH",
"109 -216 OFFCURVE",
"168 -142 OFFCURVE",
"168 -13 CURVE SMOOTH",
"168 500 LINE",
"74 500 LINE",
"74 -13 LINE SMOOTH",
"74 -52 OFFCURVE",
"69 -129 OFFCURVE",
"60 -155 CURVE",
"75 -122 LINE",
"32 -130 OFFCURVE",
"-48 -127 OFFCURVE",
"-87 -119 CURVE"
);
},
{
closed = 1;
nodes = (
"179 609 OFFCURVE",
"157 588 OFFCURVE",
"121 588 CURVE SMOOTH",
"85 588 OFFCURVE",
"63 609 OFFCURVE",
"63 646 CURVE SMOOTH",
"63 683 OFFCURVE",
"85 704 OFFCURVE",
"121 704 CURVE SMOOTH",
"157 704 OFFCURVE",
"179 683 OFFCURVE",
"179 646 CURVE SMOOTH"
);
}
);
width = 242;
}
);
rightMetricsKey = i;
unicode = 006A;
},
{
color = 6;
glyphname = k;
lastChange = "2021-09-16 01:41:52 +0000";
layers = (
{
associatedMasterId = "037EC45F-2845-4C9D-A982-99EFE46CDFCF";
layerId = "AA3A7FBC-6A66-4FD5-9BC9-E53B6C9F3BE1";
name = "Sep 15 21, 18:32";
paths = (
{
closed = 1;
nodes = (
"316 319 LINE",
"118 319 LINE",
"118 245 LINE",
"312 245 LINE",
"249 263 LINE",
"400 0 LINE",
"502 0 LINE",
"318 305 LINE",
"307 268 LINE",
"471 499 LINE",
"367 500 LINE",
"203 269 LINE"
);
},
{
closed = 1;
nodes = (
"168 0 LINE",
"168 700 LINE",
"74 700 LINE",
"74 0 LINE"
);
}
);
width = 496;
},
{
associatedMasterId = "037EC45F-2845-4C9D-A982-99EFE46CDFCF";
layerId = "CF60DE21-0899-4063-824A-F9FC151BAED9";
name = "Sep 15 21, 18:34";
paths = (
{
closed = 1;
nodes = (
"310 319 LINE",
"118 319 LINE",
"118 245 LINE",
"208 245 LINE",
"272 245 OFFCURVE",
"301 218 OFFCURVE",
"394 0 CURVE",
"496 0 LINE",
"435 148 OFFCURVE",
"373 265 OFFCURVE",
"312 305 CURVE",
"301 268 LINE",
"465 499 LINE",
"361 500 LINE",
"197 269 LINE"
);
},
{
closed = 1;
nodes = (
"168 0 LINE",
"168 700 LINE",
"74 700 LINE",
"74 0 LINE"
);
}
);
width = 490;
},
{
layerId = "037EC45F-2845-4C9D-A982-99EFE46CDFCF";
paths = (
{
closed = 1;
nodes = (
"310 319 LINE",
"118 319 LINE",
"118 245 LINE",
"306 245 LINE",
"243 263 LINE",
"394 0 LINE",
"496 0 LINE",
"312 305 LINE",
"301 268 LINE",
"465 499 LINE",
"361 500 LINE",
"197 269 LINE"
);
},
{
closed = 1;
nodes = (
"168 0 LINE",
"168 700 LINE",
"74 700 LINE",
"74 0 LINE"
);
}
);
width = 490;
}
);
unicode = 006B;
},
{
color = 1;
glyphname = l;
lastChange = "2021-09-16 01:41:26 +0000";
layers = (
{
layerId = "037EC45F-2845-4C9D-A982-99EFE46CDFCF";
paths = (
{
closed = 1;
nodes = (
"74 700 LINE",
"74 0 LINE",
"168 0 LINE",
"168 700 LINE"
);
}
);
width = 242;
},
{
associatedMasterId = "037EC45F-2845-4C9D-A982-99EFE46CDFCF";
layerId = "16ECC15D-F3DC-4D11-94DE-199EAD0487FC";
name = "Aug 25 21, 17:30";
paths = (
{
closed = 1;
nodes = (
"107 -3 OFFCURVE",
"139 -3 OFFCURVE",
"170 0 CURVE",
"170 690 LINE",
"136 687 OFFCURVE",
"100 681 OFFCURVE",
"72 667 CURVE",
"72 638 OFFCURVE",
"76 609 OFFCURVE",
"76 580 CURVE",
"76 0 LINE"
);
}
);
width = 246;
},
{
associatedMasterId = "037EC45F-2845-4C9D-A982-99EFE46CDFCF";
layerId = "03C55E70-0051-439E-B3BB-62F7630394EA";
name = "Aug 25 21, 17:31";
paths = (
{
closed = 1;
nodes = (
"107 -3 OFFCURVE",
"139 -3 OFFCURVE",
"170 0 CURVE",
"170 690 LINE",
"135 689 OFFCURVE",
"100 681 OFFCURVE",
"72 667 CURVE",
"72 638 OFFCURVE",
"76 609 OFFCURVE",
"76 580 CURVE",
"76 0 LINE"
);
}
);
width = 246;
},
{
associatedMasterId = "037EC45F-2845-4C9D-A982-99EFE46CDFCF";
layerId = "AD7D3BC5-B6A6-4AD7-B3E6-0318D9F09D3F";
name = "Aug 25 21, 17:34";
paths = (
{
closed = 1;
nodes = (
"76 580 LINE SMOOTH",
"76 609 OFFCURVE",
"70 638 OFFCURVE",
"70 667 CURVE",
"97 681 OFFCURVE",
"133 689 OFFCURVE",
"156 690 CURVE",
"170 686 LINE",
"170 98 LINE SMOOTH",
"170 69 OFFCURVE",
"176 40 OFFCURVE",
"176 11 CURVE",
"149 -3 OFFCURVE",
"113 -11 OFFCURVE",
"90 -12 CURVE",
"76 -8 LINE"
);
}
);
width = 246;
},
{
associatedMasterId = "037EC45F-2845-4C9D-A982-99EFE46CDFCF";
layerId = "182A101B-1684-4B9A-AC62-F8E5D790F7EF";
name = "Aug 25 21, 17:37";
paths = (
{
closed = 1;
nodes = (
"133 689 OFFCURVE",
"97 681 OFFCURVE",
"70 667 CURVE",
"70 638 OFFCURVE",
"76 609 OFFCURVE",
"76 580 CURVE SMOOTH",
"76 0 LINE",
"107 -3 OFFCURVE",
"139 -3 OFFCURVE",
"170 0 CURVE",
"170 686 LINE",
"156 690 LINE"
);
}
);
width = 246;
},
{
associatedMasterId = "037EC45F-2845-4C9D-A982-99EFE46CDFCF";
layerId = "459EB730-8AAA-4297-B21D-F8996707C578";
name = "Aug 28 21, 18:16";
paths = (
{
closed = 1;
nodes = (
"131 689 OFFCURVE",
"95 681 OFFCURVE",
"68 667 CURVE",
"68 638 OFFCURVE",
"74 609 OFFCURVE",
"74 580 CURVE SMOOTH",
"74 0 LINE",
"105 -3 OFFCURVE",
"139 -3 OFFCURVE",
"168 0 CURVE",
"168 686 LINE",
"154 690 LINE"
);
}
);
width = 244;
},
{
associatedMasterId = "037EC45F-2845-4C9D-A982-99EFE46CDFCF";
layerId = "054D148A-F23C-4C93-9039-A26E20ACE2DE";
name = "Sep 15 21, 00:10";
paths = (
{
closed = 1;
nodes = (
"74 700 LINE",
"74 0 LINE",
"168 0 LINE",
"168 700 LINE"
);
}
);
width = 242;
}
);
unicode = 006C;
},
{
color = 4;
glyphname = m;
lastChange = "2021-09-16 00:38:53 +0000";
layers = (
{
layerId = "037EC45F-2845-4C9D-A982-99EFE46CDFCF";
paths = (
{
closed = 1;
nodes = (
"168 0 LINE",
"168 420 LINE",
"166 443 OFFCURVE",
"155 477 OFFCURVE",
"138 500 CURVE",
"44 500 LINE",
"66 452 OFFCURVE",
"74 411 OFFCURVE",
"74 347 CURVE SMOOTH",
"74 0 LINE"
);
},
{
closed = 1;
nodes = (
"456 0 LINE",
"456 354 LINE SMOOTH",
"456 458 OFFCURVE",
"406 514 OFFCURVE",
"314 514 CURVE SMOOTH",
"241 514 OFFCURVE",
"174 481 OFFCURVE",
"130 422 CURVE",
"154 376 LINE",
"206 421 OFFCURVE",
"246 440 OFFCURVE",
"286 440 CURVE SMOOTH",
"338 440 OFFCURVE",
"362 408 OFFCURVE",
"362 340 CURVE SMOOTH",
"362 0 LINE"
);
},
{
closed = 1;
nodes = (
"744 0 LINE",
"744 354 LINE SMOOTH",
"744 458 OFFCURVE",
"694 514 OFFCURVE",
"602 514 CURVE SMOOTH",
"529 514 OFFCURVE",
"462 481 OFFCURVE",
"418 422 CURVE",
"442 376 LINE",
"494 421 OFFCURVE",
"534 440 OFFCURVE",
"574 440 CURVE SMOOTH",
"626 440 OFFCURVE",
"650 408 OFFCURVE",
"650 340 CURVE SMOOTH",
"650 0 LINE"
);
}
);
width = 812;
},
{
associatedMasterId = "037EC45F-2845-4C9D-A982-99EFE46CDFCF";
layerId = "A1CC8684-8D13-4A0A-9154-09584F4EE468";
name = "Sep 15 21, 17:21";
paths = (
{
closed = 1;
nodes = (
"74 500 LINE",
"74 0 LINE",
"168 0 LINE",
"168 430 LINE",
"138 500 LINE"
);
},
{
closed = 1;
nodes = (
"195 422 OFFCURVE",
"239 440 OFFCURVE",
"282 440 CURVE SMOOTH",
"339 440 OFFCURVE",
"362 410 OFFCURVE",
"362 340 CURVE SMOOTH",
"362 0 LINE",
"456 0 LINE",
"456 358 LINE SMOOTH",
"456 458 OFFCURVE",
"404 514 OFFCURVE",
"310 514 CURVE SMOOTH",
"244 514 OFFCURVE",
"179 486 OFFCURVE",
"132 437 CURVE",
"152 387 LINE"
);
},
{
closed = 1;
nodes = (
"483 422 OFFCURVE",
"527 440 OFFCURVE",
"570 440 CURVE SMOOTH",
"627 440 OFFCURVE",
"650 410 OFFCURVE",
"650 340 CURVE SMOOTH",
"650 0 LINE",
"744 0 LINE",
"744 358 LINE SMOOTH",
"744 458 OFFCURVE",
"692 514 OFFCURVE",
"598 514 CURVE SMOOTH",
"532 514 OFFCURVE",
"467 486 OFFCURVE",
"420 437 CURVE",
"440 387 LINE"
);
}
);
visible = 1;
width = 812;
}
);
leftMetricsKey = n;
rightMetricsKey = n;
unicode = 006D;
},
{
color = 4;
glyphname = n;
lastChange = "2021-09-16 01:51:27 +0000";
layers = (
{
associatedMasterId = "037EC45F-2845-4C9D-A982-99EFE46CDFCF";
layerId = "BE2B7BF2-6C3C-449C-AE1A-B2A13A9DF024";
name = "Stencil Idea";
paths = (
{
closed = 1;
nodes = (
"170 0 LINE",
"170 350 LINE SMOOTH",
"170 440 OFFCURVE",
"149 479 OFFCURVE",
"133 504 CURVE",
"97 499 OFFCURVE",
"64 489 OFFCURVE",
"36 476 CURVE",
"54 440 OFFCURVE",
"76 393 OFFCURVE",
"76 327 CURVE SMOOTH",
"76 0 LINE"
);
},
{
closed = 1;
nodes = (
"221 432 OFFCURVE",
"252 440 OFFCURVE",
"282 440 CURVE SMOOTH",
"333 440 OFFCURVE",
"358 410 OFFCURVE",
"358 340 CURVE SMOOTH",
"358 0 LINE",
"452 0 LINE",
"452 357 LINE SMOOTH",
"452 457 OFFCURVE",
"406 514 OFFCURVE",
"307 514 CURVE SMOOTH",
"257 514 OFFCURVE",
"221 501 OFFCURVE",
"181 475 CURVE",
"184 456 OFFCURVE",
"190 436 OFFCURVE",
"199 417 CURVE"
);
}
);
width = 524;
},
{
associatedMasterId = "037EC45F-2845-4C9D-A982-99EFE46CDFCF";
layerId = "CD7D87B1-1E87-4A3B-BBC9-854DADF53665";
name = "Aug 25 21, 00:15";
paths = (
{
closed = 1;
nodes = (
"452 0 LINE",
"452 357 LINE SMOOTH",
"452 457 OFFCURVE",
"406 514 OFFCURVE",
"307 514 CURVE SMOOTH",
"250 514 OFFCURVE",
"183 488 OFFCURVE",
"135 437 CURVE",
"155 389 LINE",
"200 426 OFFCURVE",
"241 440 OFFCURVE",
"282 440 CURVE SMOOTH",
"333 440 OFFCURVE",
"358 410 OFFCURVE",
"358 340 CURVE SMOOTH",
"358 0 LINE"
);
},
{
closed = 1;
nodes = (
"170 0 LINE",
"170 350 LINE SMOOTH",
"170 440 OFFCURVE",
"149 479 OFFCURVE",
"133 504 CURVE",
"97 499 OFFCURVE",
"64 489 OFFCURVE",
"36 476 CURVE",
"54 440 OFFCURVE",
"76 393 OFFCURVE",
"76 327 CURVE SMOOTH",
"76 0 LINE"
);
}
);
width = 524;
},
{
associatedMasterId = "037EC45F-2845-4C9D-A982-99EFE46CDFCF";
layerId = "2F4625AB-F644-4579-850E-B1771659C768";
name = "Aug 25 21, 16:27";
paths = (
{
closed = 1;
nodes = (
"389 -3 OFFCURVE",
"421 -3 OFFCURVE",
"452 0 CURVE",
"452 357 LINE SMOOTH",
"452 457 OFFCURVE",
"406 514 OFFCURVE",
"307 514 CURVE SMOOTH",
"250 514 OFFCURVE",
"183 488 OFFCURVE",
"135 437 CURVE",
"155 389 LINE",
"200 426 OFFCURVE",
"241 440 OFFCURVE",
"282 440 CURVE SMOOTH",
"333 440 OFFCURVE",
"358 410 OFFCURVE",
"358 340 CURVE SMOOTH",
"358 0 LINE"
);
},
{
closed = 1;
nodes = (
"107 -3 OFFCURVE",
"139 -3 OFFCURVE",
"170 0 CURVE",
"170 350 LINE SMOOTH",
"170 440 OFFCURVE",
"149 479 OFFCURVE",
"133 504 CURVE",
"97 499 OFFCURVE",
"64 489 OFFCURVE",
"36 476 CURVE",
"54 440 OFFCURVE",
"76 393 OFFCURVE",
"76 327 CURVE SMOOTH",
"76 0 LINE"
);
}
);
width = 524;
},
{
associatedMasterId = "037EC45F-2845-4C9D-A982-99EFE46CDFCF";
layerId = "532C8102-4242-49F3-AFF3-36AAA2E42988";
name = "Aug 25 21, 17:38";
paths = (
{
closed = 1;
nodes = (
"456 0 LINE",
"456 357 LINE SMOOTH",
"456 457 OFFCURVE",
"410 514 OFFCURVE",
"311 514 CURVE SMOOTH",
"248 514 OFFCURVE",
"181 488 OFFCURVE",
"133 437 CURVE",
"153 389 LINE",
"198 426 OFFCURVE",
"239 440 OFFCURVE",
"286 440 CURVE SMOOTH",
"337 440 OFFCURVE",
"362 410 OFFCURVE",
"362 340 CURVE SMOOTH",
"362 0 LINE"
);
},
{
closed = 1;
nodes = (
"168 0 LINE",
"168 350 LINE SMOOTH",
"168 440 OFFCURVE",
"147 479 OFFCURVE",
"131 504 CURVE",
"95 499 OFFCURVE",
"62 489 OFFCURVE",
"34 476 CURVE",
"52 440 OFFCURVE",
"74 393 OFFCURVE",
"74 327 CURVE SMOOTH",
"74 0 LINE"
);
},
{
closed = 0;
nodes = (
"361 564 LINE",
"506 407 LINE"
);
}
);
width = 524;
},
{
associatedMasterId = "037EC45F-2845-4C9D-A982-99EFE46CDFCF";
layerId = "96072A5B-510D-47B4-BEB0-4AD56F092E67";
name = "Aug 25 21, 17:54";
paths = (
{
closed = 1;
nodes = (
"456 0 LINE",
"456 357 LINE SMOOTH",
"456 458 OFFCURVE",
"404 514 OFFCURVE",
"311 514 CURVE SMOOTH",
"245 514 OFFCURVE",
"179 486 OFFCURVE",
"133 437 CURVE",
"153 389 LINE",
"195 423 OFFCURVE",
"241 440 OFFCURVE",
"283 440 CURVE SMOOTH",
"339 440 OFFCURVE",
"362 410 OFFCURVE",
"362 340 CURVE SMOOTH",
"362 0 LINE"
);
},
{
closed = 1;
nodes = (
"168 0 LINE",
"168 350 LINE SMOOTH",
"168 440 OFFCURVE",
"147 479 OFFCURVE",
"131 504 CURVE",
"95 499 OFFCURVE",
"62 489 OFFCURVE",
"34 476 CURVE",
"52 440 OFFCURVE",
"74 393 OFFCURVE",
"74 327 CURVE SMOOTH",
"74 0 LINE"
);
}
);
width = 524;
},
{
anchors = (
{
name = bottom;
position = "{262, 0}";
},
{
name = top;
position = "{262, 500}";
}
);
associatedMasterId = "037EC45F-2845-4C9D-A982-99EFE46CDFCF";
layerId = "E477A5D8-4AE4-4E04-91DE-E9C09C1E7ED4";
name = "Aug 28 21, 18:25";
paths = (
{
closed = 1;
nodes = (
"168 0 LINE",
"168 350 LINE SMOOTH",
"168 440 OFFCURVE",
"149 479 OFFCURVE",
"133 504 CURVE",
"97 499 OFFCURVE",
"64 489 OFFCURVE",
"36 476 CURVE",
"54 440 OFFCURVE",
"74 393 OFFCURVE",
"74 327 CURVE SMOOTH",
"74 0 LINE"
);
},
{
closed = 1;
nodes = (
"195 422 OFFCURVE",
"240 440 OFFCURVE",
"283 440 CURVE SMOOTH",
"339 440 OFFCURVE",
"362 410 OFFCURVE",
"362 340 CURVE SMOOTH",
"362 0 LINE",
"456 0 LINE",
"456 357 LINE SMOOTH",
"456 458 OFFCURVE",
"404 514 OFFCURVE",
"311 514 CURVE SMOOTH",
"245 514 OFFCURVE",
"179 486 OFFCURVE",
"133 437 CURVE",
"153 387 LINE"
);
}
);
width = 524;
},
{
anchors = (
{
name = bottom;
position = "{262, 0}";
},
{
name = top;
position = "{262, 500}";
}
);
associatedMasterId = "037EC45F-2845-4C9D-A982-99EFE46CDFCF";
layerId = "972A7ECB-FF84-42B4-A164-96D3F29BA98E";
name = "Aug 29 21, 15:35";
paths = (
{
closed = 1;
nodes = (
"168 0 LINE",
"168 350 LINE SMOOTH",
"168 440 OFFCURVE",
"149 479 OFFCURVE",
"133 504 CURVE",
"36 476 LINE",
"54 440 OFFCURVE",
"74 393 OFFCURVE",
"74 327 CURVE SMOOTH",
"74 0 LINE"
);
},
{
closed = 1;
nodes = (
"195 422 OFFCURVE",
"239 440 OFFCURVE",
"282 440 CURVE SMOOTH",
"339 440 OFFCURVE",
"362 410 OFFCURVE",
"362 340 CURVE SMOOTH",
"362 0 LINE",
"456 0 LINE",
"456 357 LINE SMOOTH",
"456 458 OFFCURVE",
"404 514 OFFCURVE",
"310 514 CURVE SMOOTH",
"244 514 OFFCURVE",
"179 486 OFFCURVE",
"132 437 CURVE",
"152 387 LINE"
);
}
);
width = 524;
},
{
anchors = (
{
name = bottom;
position = "{262, 0}";
},
{
name = top;
position = "{262, 500}";
}
);
associatedMasterId = "037EC45F-2845-4C9D-A982-99EFE46CDFCF";
layerId = "D8CF7639-2EBA-419F-958C-128CD80850D6";
name = "Sep 10 21, 04:41";
paths = (
{
closed = 1;
nodes = (
"74 500 LINE",
"74 0 LINE",
"168 0 LINE",
"168 430 LINE",
"138 500 LINE"
);
},
{
closed = 1;
nodes = (
"195 414 OFFCURVE",
"239 440 OFFCURVE",
"292 440 CURVE SMOOTH",
"339 440 OFFCURVE",
"362 410 OFFCURVE",
"362 340 CURVE SMOOTH",
"362 0 LINE",
"456 0 LINE",
"456 358 LINE SMOOTH",
"456 458 OFFCURVE",
"414 514 OFFCURVE",
"320 514 CURVE SMOOTH",
"244 514 OFFCURVE",
"179 478 OFFCURVE",
"132 427 CURVE",
"152 377 LINE"
);
}
);
width = 524;
},
{
anchors = (
{
name = bottom;
position = "{262, 0}";
},
{
name = top;
position = "{262, 500}";
}
);
associatedMasterId = "037EC45F-2845-4C9D-A982-99EFE46CDFCF";
layerId = "2C369CA3-67A8-40E5-A299-56D1626A16F0";
name = "Sep 15 21, 00:01";
paths = (
{
closed = 1;
nodes = (
"52 500 LINE",
"68 452 OFFCURVE",
"74 411 OFFCURVE",
"74 347 CURVE",
"74 0 LINE",
"168 0 LINE",
"168 420 LINE",
"166 443 OFFCURVE",
"155 477 OFFCURVE",
"138 500 CURVE"
);
},
{
closed = 1;
nodes = (
"195 422 OFFCURVE",
"239 440 OFFCURVE",
"282 440 CURVE SMOOTH",
"339 440 OFFCURVE",
"362 410 OFFCURVE",
"362 340 CURVE SMOOTH",
"362 0 LINE",
"456 0 LINE",
"456 358 LINE SMOOTH",
"456 458 OFFCURVE",
"404 514 OFFCURVE",
"310 514 CURVE SMOOTH",
"244 514 OFFCURVE",
"179 486 OFFCURVE",
"132 437 CURVE",
"152 387 LINE"
);
}
);
width = 524;
},
{
anchors = (
{
name = bottom;
position = "{262, 0}";
},
{
name = top;
position = "{262, 500}";
}
);
associatedMasterId = "037EC45F-2845-4C9D-A982-99EFE46CDFCF";
layerId = "0B14F472-3D18-4897-AC30-5F1CC270F291";
name = "Sep 15 21, 00:06";
paths = (
{
closed = 1;
nodes = (
"52 500 LINE",
"68 452 OFFCURVE",
"74 411 OFFCURVE",
"74 347 CURVE",
"74 0 LINE",
"168 0 LINE",
"168 420 LINE",
"166 443 OFFCURVE",
"155 477 OFFCURVE",
"138 500 CURVE"
);
},
{
closed = 1;
nodes = (
"195 414 OFFCURVE",
"239 440 OFFCURVE",
"292 440 CURVE SMOOTH",
"339 440 OFFCURVE",
"362 410 OFFCURVE",
"362 340 CURVE SMOOTH",
"362 0 LINE",
"456 0 LINE",
"456 358 LINE SMOOTH",
"456 458 OFFCURVE",
"408 514 OFFCURVE",
"320 514 CURVE SMOOTH",
"244 514 OFFCURVE",
"179 478 OFFCURVE",
"132 427 CURVE",
"152 377 LINE"
);
}
);
width = 524;
},
{
anchors = (
{
name = bottom;
position = "{262, 0}";
},
{
name = top;
position = "{262, 500}";
}
);
layerId = "037EC45F-2845-4C9D-A982-99EFE46CDFCF";
paths = (
{
closed = 1;
nodes = (
"168 0 LINE",
"168 420 LINE",
"166 443 OFFCURVE",
"155 477 OFFCURVE",
"138 500 CURVE",
"44 500 LINE",
"66 452 OFFCURVE",
"74 411 OFFCURVE",
"74 347 CURVE SMOOTH",
"74 0 LINE"
);
},
{
closed = 1;
nodes = (
"456 0 LINE",
"456 354 LINE SMOOTH",
"456 458 OFFCURVE",
"406 514 OFFCURVE",
"314 514 CURVE SMOOTH",
"241 514 OFFCURVE",
"174 481 OFFCURVE",
"130 422 CURVE",
"154 376 LINE",
"206 421 OFFCURVE",
"246 440 OFFCURVE",
"286 440 CURVE SMOOTH",
"338 440 OFFCURVE",
"362 408 OFFCURVE",
"362 340 CURVE SMOOTH",
"362 0 LINE"
);
}
);
visible = 1;
width = 524;
},
{
anchors = (
{
name = bottom;
position = "{262, 0}";
},
{
name = top;
position = "{262, 500}";
}
);
associatedMasterId = "037EC45F-2845-4C9D-A982-99EFE46CDFCF";
layerId = "0799AC14-DD6B-4435-81C0-B3D09A2F336D";
name = "Sep 15 21, 17:23";
paths = (
{
closed = 1;
nodes = (
"456 0 LINE",
"456 358 LINE SMOOTH",
"456 458 OFFCURVE",
"404 514 OFFCURVE",
"310 514 CURVE SMOOTH",
"244 514 OFFCURVE",
"179 486 OFFCURVE",
"132 437 CURVE",
"152 387 LINE",
"195 422 OFFCURVE",
"239 440 OFFCURVE",
"282 440 CURVE SMOOTH",
"339 440 OFFCURVE",
"362 410 OFFCURVE",
"362 340 CURVE SMOOTH",
"362 0 LINE"
);
},
{
closed = 1;
nodes = (
"168 0 LINE",
"168 430 LINE",
"138 500 LINE",
"74 500 LINE",
"74 0 LINE"
);
}
);
width = 524;
}
);
unicode = 006E;
},
{
color = 4;
glyphname = o;
lastChange = "2021-09-16 00:39:01 +0000";
layers = (
{
associatedMasterId = "037EC45F-2845-4C9D-A982-99EFE46CDFCF";
layerId = "BFB70128-5CD9-4321-A1DA-E48B7B332369";
name = "Aug 25 21, 16:28";
paths = (
{
closed = 1;
nodes = (
"371 -14 OFFCURVE",
"452 82 OFFCURVE",
"452 254 CURVE SMOOTH",
"452 425 OFFCURVE",
"377 514 OFFCURVE",
"249 514 CURVE SMOOTH",
"115 514 OFFCURVE",
"34 418 OFFCURVE",
"34 246 CURVE SMOOTH",
"34 75 OFFCURVE",
"109 -14 OFFCURVE",
"237 -14 CURVE SMOOTH"
);
},
{
closed = 1;
nodes = (
"167 60 OFFCURVE",
"134 106 OFFCURVE",
"134 242 CURVE SMOOTH",
"134 345 OFFCURVE",
"153 422 OFFCURVE",
"174 443 CURVE",
"121 389 LINE",
"158 424 OFFCURVE",
"195 440 OFFCURVE",
"239 440 CURVE SMOOTH",
"319 440 OFFCURVE",
"352 394 OFFCURVE",
"352 258 CURVE SMOOTH",
"352 155 OFFCURVE",
"333 78 OFFCURVE",
"312 57 CURVE",
"365 111 LINE",
"328 76 OFFCURVE",
"291 60 OFFCURVE",
"247 60 CURVE SMOOTH"
);
}
);
width = 486;
},
{
associatedMasterId = "037EC45F-2845-4C9D-A982-99EFE46CDFCF";
layerId = "3FBD0309-355A-4344-BA94-CD3DAA1402DB";
name = "Aug 25 21, 16:31";
paths = (
{
closed = 1;
nodes = (
"372 -14 OFFCURVE",
"452 85 OFFCURVE",
"452 254 CURVE SMOOTH",
"452 425 OFFCURVE",
"377 514 OFFCURVE",
"249 514 CURVE SMOOTH",
"114 514 OFFCURVE",
"34 415 OFFCURVE",
"34 246 CURVE SMOOTH",
"34 75 OFFCURVE",
"109 -14 OFFCURVE",
"237 -14 CURVE SMOOTH"
);
},
{
closed = 1;
nodes = (
"167 60 OFFCURVE",
"134 106 OFFCURVE",
"134 242 CURVE SMOOTH",
"134 345 OFFCURVE",
"153 422 OFFCURVE",
"174 443 CURVE",
"121 389 LINE",
"158 424 OFFCURVE",
"195 440 OFFCURVE",
"241 440 CURVE SMOOTH",
"319 440 OFFCURVE",
"352 394 OFFCURVE",
"352 258 CURVE SMOOTH",
"352 155 OFFCURVE",
"333 78 OFFCURVE",
"312 57 CURVE",
"365 111 LINE",
"328 76 OFFCURVE",
"291 60 OFFCURVE",
"245 60 CURVE SMOOTH"
);
}
);
width = 486;
},
{
associatedMasterId = "037EC45F-2845-4C9D-A982-99EFE46CDFCF";
layerId = "C1572DF4-CD53-4F68-88FA-49DEB1E2BEE2";
name = "Aug 25 21, 17:30";
paths = (
{
closed = 1;
nodes = (
"370 -14 OFFCURVE",
"452 87 OFFCURVE",
"452 254 CURVE SMOOTH",
"452 425 OFFCURVE",
"377 514 OFFCURVE",
"251 514 CURVE SMOOTH",
"116 514 OFFCURVE",
"34 413 OFFCURVE",
"34 246 CURVE SMOOTH",
"34 75 OFFCURVE",
"109 -14 OFFCURVE",
"235 -14 CURVE SMOOTH"
);
},
{
closed = 1;
nodes = (
"365 111 LINE",
"328 76 OFFCURVE",
"291 60 OFFCURVE",
"245 60 CURVE SMOOTH",
"167 60 OFFCURVE",
"134 106 OFFCURVE",
"134 242 CURVE SMOOTH",
"134 345 OFFCURVE",
"153 422 OFFCURVE",
"174 443 CURVE",
"121 389 LINE",
"158 424 OFFCURVE",
"195 440 OFFCURVE",
"241 440 CURVE SMOOTH",
"319 440 OFFCURVE",
"352 394 OFFCURVE",
"352 258 CURVE SMOOTH",
"352 155 OFFCURVE",
"333 78 OFFCURVE",
"312 57 CURVE"
);
}
);
width = 486;
},
{
associatedMasterId = "037EC45F-2845-4C9D-A982-99EFE46CDFCF";
background = {
paths = (
{
closed = 1;
nodes = (
"371 -14 OFFCURVE",
"452 82 OFFCURVE",
"452 254 CURVE SMOOTH",
"452 425 OFFCURVE",
"377 514 OFFCURVE",
"249 514 CURVE SMOOTH",
"115 514 OFFCURVE",
"34 418 OFFCURVE",
"34 246 CURVE SMOOTH",
"34 75 OFFCURVE",
"109 -14 OFFCURVE",
"237 -14 CURVE SMOOTH"
);
},
{
closed = 1;
nodes = (
"167 60 OFFCURVE",
"134 106 OFFCURVE",
"134 242 CURVE SMOOTH",
"134 345 OFFCURVE",
"153 422 OFFCURVE",
"174 443 CURVE",
"121 389 LINE",
"158 424 OFFCURVE",
"195 440 OFFCURVE",
"239 440 CURVE SMOOTH",
"319 440 OFFCURVE",
"352 394 OFFCURVE",
"352 258 CURVE SMOOTH",
"352 155 OFFCURVE",
"333 78 OFFCURVE",
"312 57 CURVE",
"365 111 LINE",
"328 76 OFFCURVE",
"291 60 OFFCURVE",
"247 60 CURVE SMOOTH"
);
}
);
};
layerId = "3998175D-3CC5-432B-82ED-54DBBA5C73C6";
name = "Aug 25 21, 17:36";
paths = (
{
closed = 1;
nodes = (
"371 -14 OFFCURVE",
"454 78 OFFCURVE",
"454 254 CURVE SMOOTH",
"454 425 OFFCURVE",
"377 514 OFFCURVE",
"251 514 CURVE SMOOTH",
"115 514 OFFCURVE",
"32 422 OFFCURVE",
"32 246 CURVE SMOOTH",
"32 75 OFFCURVE",
"109 -14 OFFCURVE",
"235 -14 CURVE SMOOTH"
);
},
{
closed = 1;
nodes = (
"375 111 LINE",
"338 76 OFFCURVE",
"291 60 OFFCURVE",
"245 60 CURVE SMOOTH",
"167 60 OFFCURVE",
"132 106 OFFCURVE",
"132 242 CURVE SMOOTH",
"132 345 OFFCURVE",
"143 422 OFFCURVE",
"164 443 CURVE",
"111 389 LINE",
"148 424 OFFCURVE",
"195 440 OFFCURVE",
"241 440 CURVE SMOOTH",
"319 440 OFFCURVE",
"354 394 OFFCURVE",
"354 258 CURVE SMOOTH",
"354 155 OFFCURVE",
"343 78 OFFCURVE",
"322 57 CURVE"
);
}
);
width = 486;
},
{
associatedMasterId = "037EC45F-2845-4C9D-A982-99EFE46CDFCF";
background = {
paths = (
{
closed = 1;
nodes = (
"379 -14 OFFCURVE",
"460 82 OFFCURVE",
"460 254 CURVE SMOOTH",
"460 425 OFFCURVE",
"385 514 OFFCURVE",
"257 514 CURVE SMOOTH",
"123 514 OFFCURVE",
"42 418 OFFCURVE",
"42 246 CURVE SMOOTH",
"42 75 OFFCURVE",
"117 -14 OFFCURVE",
"245 -14 CURVE SMOOTH"
);
},
{
closed = 1;
nodes = (
"175 60 OFFCURVE",
"142 106 OFFCURVE",
"142 242 CURVE SMOOTH",
"142 345 OFFCURVE",
"161 422 OFFCURVE",
"182 443 CURVE",
"129 389 LINE",
"166 424 OFFCURVE",
"203 440 OFFCURVE",
"247 440 CURVE SMOOTH",
"327 440 OFFCURVE",
"360 394 OFFCURVE",
"360 258 CURVE SMOOTH",
"360 155 OFFCURVE",
"341 78 OFFCURVE",
"320 57 CURVE",
"373 111 LINE",
"336 76 OFFCURVE",
"299 60 OFFCURVE",
"255 60 CURVE SMOOTH"
);
}
);
};
layerId = "795222A9-B7F4-4F44-91EB-36C6F4C90504";
name = "?";
paths = (
{
closed = 1;
nodes = (
"379 -14 OFFCURVE",
"466 78 OFFCURVE",
"466 254 CURVE SMOOTH",
"466 425 OFFCURVE",
"385 514 OFFCURVE",
"259 514 CURVE SMOOTH",
"123 514 OFFCURVE",
"36 422 OFFCURVE",
"36 246 CURVE SMOOTH",
"36 75 OFFCURVE",
"117 -14 OFFCURVE",
"243 -14 CURVE SMOOTH"
);
},
{
closed = 1;
nodes = (
"383 109 LINE",
"341 77 OFFCURVE",
"295 60 OFFCURVE",
"253 60 CURVE SMOOTH",
"175 60 OFFCURVE",
"136 106 OFFCURVE",
"136 242 CURVE SMOOTH",
"136 345 OFFCURVE",
"151 422 OFFCURVE",
"171 443 CURVE",
"119 391 LINE",
"161 423 OFFCURVE",
"207 440 OFFCURVE",
"249 440 CURVE SMOOTH",
"327 440 OFFCURVE",
"366 394 OFFCURVE",
"366 258 CURVE SMOOTH",
"366 155 OFFCURVE",
"351 78 OFFCURVE",
"331 57 CURVE"
);
}
);
width = 502;
},
{
anchors = (
{
name = bottom;
position = "{251, 0}";
},
{
name = center;
position = "{251, 250}";
},
{
name = ogonek;
position = "{452, 10}";
},
{
name = top;
position = "{251, 500}";
},
{
name = topright;
position = "{482, 500}";
}
);
background = {
paths = (
{
closed = 1;
nodes = (
"379 -14 OFFCURVE",
"460 82 OFFCURVE",
"460 254 CURVE SMOOTH",
"460 425 OFFCURVE",
"385 514 OFFCURVE",
"257 514 CURVE SMOOTH",
"123 514 OFFCURVE",
"42 418 OFFCURVE",
"42 246 CURVE SMOOTH",
"42 75 OFFCURVE",
"117 -14 OFFCURVE",
"245 -14 CURVE SMOOTH"
);
},
{
closed = 1;
nodes = (
"175 60 OFFCURVE",
"142 106 OFFCURVE",
"142 242 CURVE SMOOTH",
"142 345 OFFCURVE",
"161 422 OFFCURVE",
"182 443 CURVE",
"129 389 LINE",
"166 424 OFFCURVE",
"203 440 OFFCURVE",
"247 440 CURVE SMOOTH",
"327 440 OFFCURVE",
"360 394 OFFCURVE",
"360 258 CURVE SMOOTH",
"360 155 OFFCURVE",
"341 78 OFFCURVE",
"320 57 CURVE",
"373 111 LINE",
"336 76 OFFCURVE",
"299 60 OFFCURVE",
"255 60 CURVE SMOOTH"
);
}
);
};
layerId = "037EC45F-2845-4C9D-A982-99EFE46CDFCF";
paths = (
{
closed = 1;
nodes = (
"379 -14 OFFCURVE",
"466 78 OFFCURVE",
"466 254 CURVE SMOOTH",
"466 425 OFFCURVE",
"385 514 OFFCURVE",
"259 514 CURVE SMOOTH",
"123 514 OFFCURVE",
"36 422 OFFCURVE",
"36 246 CURVE SMOOTH",
"36 75 OFFCURVE",
"117 -14 OFFCURVE",
"243 -14 CURVE SMOOTH"
);
},
{
closed = 1;
nodes = (
"383 111 LINE",
"346 76 OFFCURVE",
"299 60 OFFCURVE",
"253 60 CURVE SMOOTH",
"175 60 OFFCURVE",
"136 106 OFFCURVE",
"136 242 CURVE SMOOTH",
"136 345 OFFCURVE",
"151 422 OFFCURVE",
"172 443 CURVE",
"119 389 LINE",
"156 424 OFFCURVE",
"203 440 OFFCURVE",
"249 440 CURVE SMOOTH",
"327 440 OFFCURVE",
"366 394 OFFCURVE",
"366 258 CURVE SMOOTH",
"366 155 OFFCURVE",
"351 78 OFFCURVE",
"330 57 CURVE"
);
}
);
width = 502;
},
{
associatedMasterId = "037EC45F-2845-4C9D-A982-99EFE46CDFCF";
background = {
paths = (
{
closed = 1;
nodes = (
"379 -14 OFFCURVE",
"460 82 OFFCURVE",
"460 254 CURVE SMOOTH",
"460 425 OFFCURVE",
"385 514 OFFCURVE",
"257 514 CURVE SMOOTH",
"123 514 OFFCURVE",
"42 418 OFFCURVE",
"42 246 CURVE SMOOTH",
"42 75 OFFCURVE",
"117 -14 OFFCURVE",
"245 -14 CURVE SMOOTH"
);
},
{
closed = 1;
nodes = (
"175 60 OFFCURVE",
"142 106 OFFCURVE",
"142 242 CURVE SMOOTH",
"142 345 OFFCURVE",
"161 422 OFFCURVE",
"182 443 CURVE",
"129 389 LINE",
"166 424 OFFCURVE",
"203 440 OFFCURVE",
"247 440 CURVE SMOOTH",
"327 440 OFFCURVE",
"360 394 OFFCURVE",
"360 258 CURVE SMOOTH",
"360 155 OFFCURVE",
"341 78 OFFCURVE",
"320 57 CURVE",
"373 111 LINE",
"336 76 OFFCURVE",
"299 60 OFFCURVE",
"255 60 CURVE SMOOTH"
);
}
);
};
layerId = "4F190FD3-7269-4747-849B-D937F796115E";
name = "Aug 25 21, 17:47";
paths = (
{
closed = 1;
nodes = (
"154 0 LINE",
"154 350 LINE SMOOTH",
"154 440 OFFCURVE",
"133 479 OFFCURVE",
"117 504 CURVE",
"81 499 OFFCURVE",
"48 489 OFFCURVE",
"20 476 CURVE",
"38 440 OFFCURVE",
"60 393 OFFCURVE",
"60 327 CURVE SMOOTH",
"60 0 LINE"
);
},
{
closed = 1;
nodes = (
"181 423 OFFCURVE",
"217 440 OFFCURVE",
"269 440 CURVE SMOOTH",
"325 440 OFFCURVE",
"348 410 OFFCURVE",
"348 330 CURVE SMOOTH",
"348 0 LINE",
"442 0 LINE",
"442 347 LINE SMOOTH",
"442 458 OFFCURVE",
"390 514 OFFCURVE",
"287 514 CURVE SMOOTH",
"231 514 OFFCURVE",
"169 491 OFFCURVE",
"109 447 CURVE",
"129 391 LINE"
);
}
);
width = 502;
},
{
associatedMasterId = "037EC45F-2845-4C9D-A982-99EFE46CDFCF";
background = {
paths = (
{
closed = 1;
nodes = (
"379 -14 OFFCURVE",
"460 82 OFFCURVE",
"460 254 CURVE SMOOTH",
"460 425 OFFCURVE",
"385 514 OFFCURVE",
"257 514 CURVE SMOOTH",
"123 514 OFFCURVE",
"42 418 OFFCURVE",
"42 246 CURVE SMOOTH",
"42 75 OFFCURVE",
"117 -14 OFFCURVE",
"245 -14 CURVE SMOOTH"
);
},
{
closed = 1;
nodes = (
"175 60 OFFCURVE",
"142 106 OFFCURVE",
"142 242 CURVE SMOOTH",
"142 345 OFFCURVE",
"161 422 OFFCURVE",
"182 443 CURVE",
"129 389 LINE",
"166 424 OFFCURVE",
"203 440 OFFCURVE",
"247 440 CURVE SMOOTH",
"327 440 OFFCURVE",
"360 394 OFFCURVE",
"360 258 CURVE SMOOTH",
"360 155 OFFCURVE",
"341 78 OFFCURVE",
"320 57 CURVE",
"373 111 LINE",
"336 76 OFFCURVE",
"299 60 OFFCURVE",
"255 60 CURVE SMOOTH"
);
}
);
};
layerId = "05D19B99-2C0A-4EB7-B322-4C6BC840B79B";
name = "Aug 26 21, 05:04";
paths = (
{
closed = 1;
nodes = (
"379 -14 OFFCURVE",
"466 78 OFFCURVE",
"466 254 CURVE SMOOTH",
"466 425 OFFCURVE",
"385 514 OFFCURVE",
"259 514 CURVE SMOOTH",
"123 514 OFFCURVE",
"36 422 OFFCURVE",
"36 246 CURVE SMOOTH",
"36 75 OFFCURVE",
"117 -14 OFFCURVE",
"243 -14 CURVE SMOOTH"
);
},
{
closed = 1;
nodes = (
"383 111 LINE",
"346 76 OFFCURVE",
"299 60 OFFCURVE",
"253 60 CURVE SMOOTH",
"175 60 OFFCURVE",
"136 106 OFFCURVE",
"136 242 CURVE SMOOTH",
"136 345 OFFCURVE",
"151 422 OFFCURVE",
"172 443 CURVE",
"119 389 LINE",
"156 424 OFFCURVE",
"203 440 OFFCURVE",
"249 440 CURVE SMOOTH",
"327 440 OFFCURVE",
"366 394 OFFCURVE",
"366 258 CURVE SMOOTH",
"366 155 OFFCURVE",
"351 78 OFFCURVE",
"330 57 CURVE"
);
}
);
width = 502;
},
{
anchors = (
{
name = bottom;
position = "{251, 0}";
},
{
name = center;
position = "{251, 250}";
},
{
name = ogonek;
position = "{452, 10}";
},
{
name = top;
position = "{251, 500}";
},
{
name = topright;
position = "{482, 500}";
}
);
associatedMasterId = "037EC45F-2845-4C9D-A982-99EFE46CDFCF";
background = {
paths = (
{
closed = 1;
nodes = (
"379 -14 OFFCURVE",
"460 82 OFFCURVE",
"460 254 CURVE SMOOTH",
"460 425 OFFCURVE",
"385 514 OFFCURVE",
"257 514 CURVE SMOOTH",
"123 514 OFFCURVE",
"42 418 OFFCURVE",
"42 246 CURVE SMOOTH",
"42 75 OFFCURVE",
"117 -14 OFFCURVE",
"245 -14 CURVE SMOOTH"
);
},
{
closed = 1;
nodes = (
"175 60 OFFCURVE",
"142 106 OFFCURVE",
"142 242 CURVE SMOOTH",
"142 345 OFFCURVE",
"161 422 OFFCURVE",
"182 443 CURVE",
"129 389 LINE",
"166 424 OFFCURVE",
"203 440 OFFCURVE",
"247 440 CURVE SMOOTH",
"327 440 OFFCURVE",
"360 394 OFFCURVE",
"360 258 CURVE SMOOTH",
"360 155 OFFCURVE",
"341 78 OFFCURVE",
"320 57 CURVE",
"373 111 LINE",
"336 76 OFFCURVE",
"299 60 OFFCURVE",
"255 60 CURVE SMOOTH"
);
}
);
};
layerId = "4392A126-B41C-46DD-8AC9-3C20C326B1B3";
name = "Aug 26 21, 22:35";
paths = (
{
closed = 1;
nodes = (
"379 -14 OFFCURVE",
"466 78 OFFCURVE",
"466 254 CURVE SMOOTH",
"466 425 OFFCURVE",
"385 514 OFFCURVE",
"259 514 CURVE SMOOTH",
"123 514 OFFCURVE",
"36 422 OFFCURVE",
"36 246 CURVE SMOOTH",
"36 75 OFFCURVE",
"117 -14 OFFCURVE",
"243 -14 CURVE SMOOTH"
);
},
{
closed = 1;
nodes = (
"383 111 LINE",
"346 76 OFFCURVE",
"299 60 OFFCURVE",
"253 60 CURVE SMOOTH",
"175 60 OFFCURVE",
"136 106 OFFCURVE",
"136 242 CURVE SMOOTH",
"136 345 OFFCURVE",
"151 422 OFFCURVE",
"172 443 CURVE",
"119 389 LINE",
"156 424 OFFCURVE",
"203 440 OFFCURVE",
"249 440 CURVE SMOOTH",
"327 440 OFFCURVE",
"366 394 OFFCURVE",
"366 258 CURVE SMOOTH",
"366 155 OFFCURVE",
"351 78 OFFCURVE",
"330 57 CURVE"
);
}
);
width = 502;
},
{
anchors = (
{
name = bottom;
position = "{251, 0}";
},
{
name = center;
position = "{251, 250}";
},
{
name = ogonek;
position = "{452, 10}";
},
{
name = top;
position = "{251, 500}";
},
{
name = topright;
position = "{482, 500}";
}
);
associatedMasterId = "037EC45F-2845-4C9D-A982-99EFE46CDFCF";
background = {
paths = (
{
closed = 1;
nodes = (
"379 -14 OFFCURVE",
"460 82 OFFCURVE",
"460 254 CURVE SMOOTH",
"460 425 OFFCURVE",
"385 514 OFFCURVE",
"257 514 CURVE SMOOTH",
"123 514 OFFCURVE",
"42 418 OFFCURVE",
"42 246 CURVE SMOOTH",
"42 75 OFFCURVE",
"117 -14 OFFCURVE",
"245 -14 CURVE SMOOTH"
);
},
{
closed = 1;
nodes = (
"175 60 OFFCURVE",
"142 106 OFFCURVE",
"142 242 CURVE SMOOTH",
"142 345 OFFCURVE",
"161 422 OFFCURVE",
"182 443 CURVE",
"129 389 LINE",
"166 424 OFFCURVE",
"203 440 OFFCURVE",
"247 440 CURVE SMOOTH",
"327 440 OFFCURVE",
"360 394 OFFCURVE",
"360 258 CURVE SMOOTH",
"360 155 OFFCURVE",
"341 78 OFFCURVE",
"320 57 CURVE",
"373 111 LINE",
"336 76 OFFCURVE",
"299 60 OFFCURVE",
"255 60 CURVE SMOOTH"
);
}
);
};
layerId = "5F640F45-4294-4323-B50E-ECC4D2E2AB4A";
name = "Aug 26 21, 22:38";
paths = (
{
closed = 1;
nodes = (
"312 -14 OFFCURVE",
"369 10 OFFCURVE",
"407 56 CURVE SMOOTH",
"445 101 OFFCURVE",
"466 167 OFFCURVE",
"466 254 CURVE SMOOTH",
"466 425 OFFCURVE",
"385 514 OFFCURVE",
"259 514 CURVE SMOOTH",
"190 514 OFFCURVE",
"133 490 OFFCURVE",
"95 444 CURVE SMOOTH",
"57 399 OFFCURVE",
"36 333 OFFCURVE",
"36 246 CURVE SMOOTH",
"36 75 OFFCURVE",
"117 -14 OFFCURVE",
"243 -14 CURVE SMOOTH"
);
},
{
closed = 1;
nodes = (
"383 111 LINE",
"346 76 OFFCURVE",
"299 60 OFFCURVE",
"253 60 CURVE SMOOTH",
"175 60 OFFCURVE",
"136 106 OFFCURVE",
"136 242 CURVE SMOOTH",
"136 345 OFFCURVE",
"151 422 OFFCURVE",
"172 443 CURVE",
"119 389 LINE",
"156 424 OFFCURVE",
"203 440 OFFCURVE",
"249 440 CURVE SMOOTH",
"327 440 OFFCURVE",
"366 394 OFFCURVE",
"366 258 CURVE SMOOTH",
"366 155 OFFCURVE",
"351 78 OFFCURVE",
"330 57 CURVE"
);
},
{
closed = 0;
nodes = (
"107 417 LINE",
"145 457 OFFCURVE",
"197 477 OFFCURVE",
"254 477 CURVE SMOOTH",
"356 477 OFFCURVE",
"416 410 OFFCURVE",
"416 256 CURVE SMOOTH",
"416 161 OFFCURVE",
"398 90 OFFCURVE",
"369 57 CURVE"
);
},
{
closed = 0;
nodes = (
"133 443 LINE",
"104 410 OFFCURVE",
"86 339 OFFCURVE",
"86 244 CURVE SMOOTH",
"86 90 OFFCURVE",
"146 23 OFFCURVE",
"248 23 CURVE SMOOTH",
"305 23 OFFCURVE",
"357 43 OFFCURVE",
"395 83 CURVE"
);
}
);
width = 502;
}
);
unicode = 006F;
},
{
color = 1;
glyphname = p;
lastChange = "2021-09-16 01:46:39 +0000";
layers = (
{
layerId = "037EC45F-2845-4C9D-A982-99EFE46CDFCF";
paths = (
{
closed = 1;
nodes = (
"392 -14 OFFCURVE",
"474 80 OFFCURVE",
"474 254 CURVE SMOOTH",
"474 425 OFFCURVE",
"403 514 OFFCURVE",
"296 514 CURVE SMOOTH",
"233 514 OFFCURVE",
"166 481 OFFCURVE",
"128 422 CURVE",
"152 376 LINE",
"198 421 OFFCURVE",
"238 440 OFFCURVE",
"272 440 CURVE SMOOTH",
"335 440 OFFCURVE",
"374 384 OFFCURVE",
"374 258 CURVE SMOOTH",
"374 155 OFFCURVE",
"359 78 OFFCURVE",
"338 57 CURVE",
"391 111 LINE",
"354 76 OFFCURVE",
"307 60 OFFCURVE",
"261 60 CURVE SMOOTH",
"205 60 OFFCURVE",
"170 68 OFFCURVE",
"126 102 CURVE",
"126 26 LINE",
"152 -3 OFFCURVE",
"195 -14 OFFCURVE",
"241 -14 CURVE SMOOTH"
);
},
{
closed = 1;
nodes = (
"168 -200 LINE",
"168 420 LINE",
"166 443 OFFCURVE",
"155 477 OFFCURVE",
"138 500 CURVE",
"44 500 LINE",
"66 452 OFFCURVE",
"74 411 OFFCURVE",
"74 347 CURVE SMOOTH",
"74 -200 LINE"
);
}
);
width = 510;
},
{
associatedMasterId = "037EC45F-2845-4C9D-A982-99EFE46CDFCF";
layerId = "7906117B-1D64-4671-8D26-8456BE5BCB0C";
name = "Sep 15 21, 17:31";
paths = (
{
closed = 1;
nodes = (
"205 60 OFFCURVE",
"170 68 OFFCURVE",
"126 102 CURVE",
"126 26 LINE",
"152 -3 OFFCURVE",
"195 -14 OFFCURVE",
"241 -14 CURVE SMOOTH",
"392 -14 OFFCURVE",
"474 80 OFFCURVE",
"474 254 CURVE SMOOTH",
"474 425 OFFCURVE",
"393 514 OFFCURVE",
"277 514 CURVE SMOOTH",
"225 514 OFFCURVE",
"170 490 OFFCURVE",
"126 444 CURVE",
"126 368 LINE",
"180 422 OFFCURVE",
"215 440 OFFCURVE",
"257 440 CURVE SMOOTH",
"335 440 OFFCURVE",
"374 394 OFFCURVE",
"374 258 CURVE SMOOTH",
"374 155 OFFCURVE",
"359 78 OFFCURVE",
"338 57 CURVE",
"391 111 LINE",
"354 76 OFFCURVE",
"307 60 OFFCURVE",
"261 60 CURVE SMOOTH"
);
},
{
closed = 1;
nodes = (
"74 500 LINE",
"74 -200 LINE",
"168 -200 LINE",
"168 430 LINE",
"138 500 LINE"
);
}
);
width = 510;
},
{
associatedMasterId = "037EC45F-2845-4C9D-A982-99EFE46CDFCF";
layerId = "9F78578D-FCAF-4148-99A5-62A653EDC244";
name = "Sep 15 21, 17:32";
paths = (
{
closed = 1;
nodes = (
"74 500 LINE",
"74 -200 LINE",
"168 -200 LINE",
"168 430 LINE",
"138 500 LINE"
);
},
{
closed = 1;
nodes = (
"233 514 OFFCURVE",
"166 481 OFFCURVE",
"128 422 CURVE",
"152 376 LINE",
"198 421 OFFCURVE",
"238 440 OFFCURVE",
"272 440 CURVE SMOOTH",
"335 440 OFFCURVE",
"374 384 OFFCURVE",
"374 258 CURVE SMOOTH",
"374 155 OFFCURVE",
"359 78 OFFCURVE",
"338 57 CURVE",
"391 111 LINE",
"354 76 OFFCURVE",
"307 60 OFFCURVE",
"261 60 CURVE SMOOTH",
"205 60 OFFCURVE",
"170 68 OFFCURVE",
"126 102 CURVE",
"126 26 LINE",
"152 -3 OFFCURVE",
"195 -14 OFFCURVE",
"241 -14 CURVE SMOOTH",
"392 -14 OFFCURVE",
"474 80 OFFCURVE",
"474 254 CURVE SMOOTH",
"474 425 OFFCURVE",
"403 514 OFFCURVE",
"296 514 CURVE SMOOTH"
);
}
);
width = 510;
}
);
leftMetricsKey = n;
rightMetricsKey = o;
unicode = 0070;
},
{
color = 1;
glyphname = q;
lastChange = "2021-09-16 04:14:44 +0000";
layers = (
{
layerId = "037EC45F-2845-4C9D-A982-99EFE46CDFCF";
paths = (
{
closed = 1;
nodes = (
"36 75 OFFCURVE",
"107 -14 OFFCURVE",
"214 -14 CURVE SMOOTH",
"277 -14 OFFCURVE",
"344 19 OFFCURVE",
"382 78 CURVE",
"358 124 LINE",
"312 79 OFFCURVE",
"272 60 OFFCURVE",
"238 60 CURVE SMOOTH",
"175 60 OFFCURVE",
"136 116 OFFCURVE",
"136 242 CURVE SMOOTH",
"136 345 OFFCURVE",
"151 422 OFFCURVE",
"172 443 CURVE",
"119 389 LINE",
"156 424 OFFCURVE",
"203 440 OFFCURVE",
"249 440 CURVE SMOOTH",
"284 440 OFFCURVE",
"325 428 OFFCURVE",
"344 409 CURVE",
"344 -200 LINE",
"438 -200 LINE",
"436 462 LINE",
"381 497 OFFCURVE",
"324 514 OFFCURVE",
"259 514 CURVE SMOOTH",
"123 514 OFFCURVE",
"36 422 OFFCURVE",
"36 246 CURVE SMOOTH"
);
}
);
width = 512;
},
{
associatedMasterId = "037EC45F-2845-4C9D-A982-99EFE46CDFCF";
layerId = "E3FFABDB-F7E1-41C2-B01A-8CCC634FFA90";
name = "Sep 15 21, 17:33";
paths = (
{
closed = 1;
nodes = (
"305 440 OFFCURVE",
"340 432 OFFCURVE",
"384 398 CURVE",
"384 474 LINE",
"358 503 OFFCURVE",
"315 514 OFFCURVE",
"269 514 CURVE SMOOTH",
"118 514 OFFCURVE",
"36 420 OFFCURVE",
"36 246 CURVE SMOOTH",
"36 75 OFFCURVE",
"117 -14 OFFCURVE",
"233 -14 CURVE SMOOTH",
"285 -14 OFFCURVE",
"340 10 OFFCURVE",
"384 56 CURVE",
"384 132 LINE",
"330 78 OFFCURVE",
"295 60 OFFCURVE",
"253 60 CURVE SMOOTH",
"175 60 OFFCURVE",
"136 106 OFFCURVE",
"136 242 CURVE SMOOTH",
"136 345 OFFCURVE",
"151 422 OFFCURVE",
"172 443 CURVE",
"119 389 LINE",
"156 424 OFFCURVE",
"203 440 OFFCURVE",
"249 440 CURVE SMOOTH"
);
},
{
closed = 1;
nodes = (
"342 430 LINE",
"342 -200 LINE",
"436 -200 LINE",
"436 500 LINE",
"372 500 LINE"
);
}
);
width = 510;
},
{
associatedMasterId = "037EC45F-2845-4C9D-A982-99EFE46CDFCF";
layerId = "0900E5F3-7433-420C-9885-EC531FD835AF";
name = "Sep 15 21, 21:14";
paths = (
{
closed = 1;
nodes = (
"342 430 LINE",
"342 -200 LINE",
"436 -200 LINE",
"436 500 LINE",
"392 500 LINE"
);
},
{
closed = 1;
nodes = (
"277 -14 OFFCURVE",
"344 19 OFFCURVE",
"382 78 CURVE",
"358 124 LINE",
"312 79 OFFCURVE",
"272 60 OFFCURVE",
"238 60 CURVE SMOOTH",
"175 60 OFFCURVE",
"136 116 OFFCURVE",
"136 242 CURVE SMOOTH",
"136 345 OFFCURVE",
"151 422 OFFCURVE",
"172 443 CURVE",
"119 389 LINE",
"156 424 OFFCURVE",
"203 440 OFFCURVE",
"249 440 CURVE SMOOTH",
"305 440 OFFCURVE",
"340 432 OFFCURVE",
"384 398 CURVE",
"384 474 LINE",
"358 503 OFFCURVE",
"315 514 OFFCURVE",
"269 514 CURVE SMOOTH",
"118 514 OFFCURVE",
"36 420 OFFCURVE",
"36 246 CURVE SMOOTH",
"36 75 OFFCURVE",
"107 -14 OFFCURVE",
"214 -14 CURVE SMOOTH"
);
}
);
width = 510;
}
);
leftMetricsKey = o;
rightMetricsKey = l;
unicode = 0071;
},
{
color = 1;
glyphname = r;
lastChange = "2021-09-16 04:08:05 +0000";
layers = (
{
associatedMasterId = "037EC45F-2845-4C9D-A982-99EFE46CDFCF";
backgroundImage = {
crop = "{{0, 0}, {76, 102}}";
imagePath = "/Users/crishernandez/Desktop/Screen Shot 2021-08-29 at 5.56.05 PM.png";
locked = "1";
transform = "{9.8, 0, 0, 9.8, -219, -179}";
};
layerId = "39E93AD2-77B2-481D-B30B-01EED2324E18";
name = "Aug 29 21, 22:13";
paths = (
{
closed = 1;
nodes = (
"74 500 LINE",
"74 0 LINE",
"168 0 LINE",
"168 350 LINE",
"138 500 LINE"
);
},
{
closed = 1;
nodes = (
"195 332 OFFCURVE",
"259 422 OFFCURVE",
"309 422 CURVE SMOOTH",
"338 422 OFFCURVE",
"357 420 OFFCURVE",
"376 416 CURVE",
"376 506 LINE",
"358 511 OFFCURVE",
"343 514 OFFCURVE",
"310 514 CURVE SMOOTH",
"224 514 OFFCURVE",
"179 406 OFFCURVE",
"132 297 CURVE",
"152 237 LINE"
);
}
);
width = 390;
},
{
associatedMasterId = "037EC45F-2845-4C9D-A982-99EFE46CDFCF";
backgroundImage = {
crop = "{{0, 0}, {76, 102}}";
imagePath = "/Users/crishernandez/Desktop/Screen Shot 2021-08-29 at 5.56.05 PM.png";
locked = "1";
transform = "{9.8, 0, 0, 9.8, -219, -179}";
};
layerId = "203C247F-E99F-4691-A8E2-E9391D0DF8C0";
name = "Aug 29 21, 22:15";
paths = (
{
closed = 1;
nodes = (
"74 500 LINE",
"74 0 LINE",
"168 0 LINE",
"168 350 LINE",
"138 500 LINE"
);
},
{
closed = 1;
nodes = (
"347 512 OFFCURVE",
"323 514 OFFCURVE",
"290 514 CURVE SMOOTH",
"196 514 OFFCURVE",
"115 396 OFFCURVE",
"117 286 CURVE",
"167 265 LINE",
"174 338 OFFCURVE",
"217 422 OFFCURVE",
"275 422 CURVE SMOOTH",
"312 422 OFFCURVE",
"340 418 OFFCURVE",
"370 410 CURVE",
"370 506 LINE"
);
}
);
width = 390;
},
{
associatedMasterId = "037EC45F-2845-4C9D-A982-99EFE46CDFCF";
layerId = "8C99F791-8B88-42D6-A13B-829532A39FC3";
name = "Aug 29 21, 22:17";
paths = (
{
closed = 1;
nodes = (
"74 500 LINE",
"74 0 LINE",
"168 0 LINE",
"168 350 LINE",
"138 500 LINE"
);
},
{
closed = 1;
nodes = (
"348 512 OFFCURVE",
"324 514 OFFCURVE",
"301 514 CURVE SMOOTH",
"197 514 OFFCURVE",
"126 396 OFFCURVE",
"128 286 CURVE",
"168 265 LINE",
"175 338 OFFCURVE",
"218 422 OFFCURVE",
"291 422 CURVE SMOOTH",
"323 422 OFFCURVE",
"341 420 OFFCURVE",
"371 414 CURVE",
"371 502 LINE"
);
}
);
width = 390;
},
{
associatedMasterId = "037EC45F-2845-4C9D-A982-99EFE46CDFCF";
layerId = "AB9BFC6E-AA76-42DC-A0B8-27046AFE516A";
name = "Aug 29 21, 23:33";
paths = (
{
closed = 1;
nodes = (
"176 352 OFFCURVE",
"205 390 OFFCURVE",
"242 411 CURVE SMOOTH",
"291 440 OFFCURVE",
"326 426 OFFCURVE",
"361 365 CURVE SMOOTH",
"531 70 LINE",
"613 117 LINE",
"434 427 LINE SMOOTH",
"384 514 OFFCURVE",
"311 537 OFFCURVE",
"229 490 CURVE SMOOTH",
"172 457 OFFCURVE",
"130 400 OFFCURVE",
"114 334 CURVE",
"156 301 LINE"
);
}
);
width = 390;
},
{
associatedMasterId = "037EC45F-2845-4C9D-A982-99EFE46CDFCF";
layerId = "61D3F5C0-7A28-4A51-A4FB-7C344E88DD80";
name = "Aug 29 21, 23:33";
paths = (
{
closed = 1;
nodes = (
"74 500 LINE",
"74 0 LINE",
"168 0 LINE",
"168 428 LINE",
"138 500 LINE"
);
},
{
closed = 1;
nodes = (
"321 426 OFFCURVE",
"339 424 OFFCURVE",
"370 416 CURVE",
"370 502 LINE",
"353 510 OFFCURVE",
"332 514 OFFCURVE",
"309 514 CURVE SMOOTH",
"284 514 OFFCURVE",
"257 506 OFFCURVE",
"229 490 CURVE SMOOTH",
"172 457 OFFCURVE",
"130 400 OFFCURVE",
"114 334 CURVE",
"156 301 LINE",
"176 352 OFFCURVE",
"205 390 OFFCURVE",
"242 411 CURVE SMOOTH",
"258 421 OFFCURVE",
"273 426 OFFCURVE",
"287 426 CURVE SMOOTH"
);
}
);
width = 390;
},
{
associatedMasterId = "037EC45F-2845-4C9D-A982-99EFE46CDFCF";
layerId = "C967409A-5F0B-4551-A9C9-1AAB7FDDDE77";
name = "Aug 29 21, 23:37";
paths = (
{
closed = 1;
nodes = (
"74 500 LINE",
"74 0 LINE",
"168 0 LINE",
"168 428 LINE",
"138 500 LINE"
);
},
{
closed = 1;
nodes = (
"316 426 OFFCURVE",
"344 422 OFFCURVE",
"370 414 CURVE",
"370 500 LINE",
"351 510 OFFCURVE",
"332 514 OFFCURVE",
"309 514 CURVE SMOOTH",
"224 514 OFFCURVE",
"137 430 OFFCURVE",
"114 334 CURVE",
"156 301 LINE",
"184 374 OFFCURVE",
"239 426 OFFCURVE",
"287 426 CURVE SMOOTH"
);
}
);
width = 390;
},
{
associatedMasterId = "037EC45F-2845-4C9D-A982-99EFE46CDFCF";
layerId = "C21EAF8F-BC3D-4ADA-A482-D558C6B2CDE6";
name = "Aug 29 21, 23:38";
paths = (
{
closed = 1;
nodes = (
"74 500 LINE",
"74 0 LINE",
"168 0 LINE",
"168 428 LINE",
"138 500 LINE"
);
},
{
closed = 1;
nodes = (
"316 426 OFFCURVE",
"343 422 OFFCURVE",
"369 414 CURVE",
"369 500 LINE",
"350 510 OFFCURVE",
"332 514 OFFCURVE",
"309 514 CURVE SMOOTH",
"224 514 OFFCURVE",
"137 430 OFFCURVE",
"114 334 CURVE",
"156 301 LINE",
"184 374 OFFCURVE",
"239 426 OFFCURVE",
"293 426 CURVE SMOOTH"
);
}
);
width = 390;
},
{
associatedMasterId = "037EC45F-2845-4C9D-A982-99EFE46CDFCF";
layerId = "59A77060-43D3-4DE5-9AB3-9AC4447D0084";
name = "45";
paths = (
{
closed = 1;
nodes = (
"74 500 LINE",
"74 0 LINE",
"168 0 LINE",
"168 428 LINE",
"138 500 LINE"
);
},
{
closed = 1;
nodes = (
"355 510 OFFCURVE",
"334 514 OFFCURVE",
"311 514 CURVE SMOOTH",
"209 514 OFFCURVE",
"126 410 OFFCURVE",
"128 286 CURVE",
"158 265 LINE",
"183 371 OFFCURVE",
"226 422 OFFCURVE",
"295 422 CURVE SMOOTH",
"323 422 OFFCURVE",
"341 420 OFFCURVE",
"372 412 CURVE",
"372 502 LINE"
);
}
);
width = 390;
},
{
layerId = "037EC45F-2845-4C9D-A982-99EFE46CDFCF";
paths = (
{
closed = 1;
nodes = (
"269 514 LINE",
"181 514 OFFCURVE",
"124 451 OFFCURVE",
"104 364 CURVE",
"138 334 LINE",
"157 384 OFFCURVE",
"198 409 OFFCURVE",
"269 409 CURVE"
);
},
{
closed = 1;
nodes = (
"138 0 LINE",
"138 420 LINE",
"136 443 OFFCURVE",
"125 477 OFFCURVE",
"108 500 CURVE",
"14 500 LINE",
"36 452 OFFCURVE",
"44 411 OFFCURVE",
"44 347 CURVE SMOOTH",
"44 0 LINE"
);
}
);
width = 273;
},
{
associatedMasterId = "037EC45F-2845-4C9D-A982-99EFE46CDFCF";
layerId = "A5F8D59B-414F-4159-B72B-E963CE3ADED8";
name = "Sep 15 21, 20:59";
paths = (
{
closed = 1;
nodes = (
"74 500 LINE",
"74 0 LINE",
"168 0 LINE",
"168 390 LINE",
"138 500 LINE"
);
},
{
closed = 1;
nodes = (
"323 426 OFFCURVE",
"347 422 OFFCURVE",
"370 415 CURVE",
"370 500 LINE",
"350 510 OFFCURVE",
"333 514 OFFCURVE",
"309 514 CURVE SMOOTH",
"224 514 OFFCURVE",
"137 430 OFFCURVE",
"114 334 CURVE",
"156 301 LINE",
"186 378 OFFCURVE",
"240 426 OFFCURVE",
"295 426 CURVE SMOOTH"
);
}
);
width = 388;
}
);
unicode = 0072;
},
{
color = 6;
glyphname = s;
lastChange = "2021-09-16 04:01:21 +0000";
layers = (
{
backgroundImage = {
crop = "{{142.606, 74.805}, {168.102, 280.17}}";
imagePath = "/Users/crishernandez/Desktop/Screen Shot 2021-09-15 at 7.20.35 PM.png";
locked = "1";
transform = "{3.56926, 0, 0, 3.56926, -584, -467}";
};
layerId = "037EC45F-2845-4C9D-A982-99EFE46CDFCF";
paths = (
{
closed = 1;
nodes = (
"379 37 OFFCURVE",
"297 -14 OFFCURVE",
"185 -14 CURVE SMOOTH",
"125 -14 OFFCURVE",
"87 -8 OFFCURVE",
"40 14 CURVE",
"40 88 LINE",
"94 64 OFFCURVE",
"139 56 OFFCURVE",
"203 56 CURVE SMOOTH",
"247 56 OFFCURVE",
"294 72 OFFCURVE",
"331 107 CURVE",
"278 53 LINE",
"299 74 OFFCURVE",
"299 91 OFFCURVE",
"299 103 CURVE SMOOTH",
"299 209 OFFCURVE",
"30 213 OFFCURVE",
"30 367 CURVE SMOOTH",
"30 463 OFFCURVE",
"112 514 OFFCURVE",
"232 514 CURVE SMOOTH",
"272 514 OFFCURVE",
"320 508 OFFCURVE",
"357 486 CURVE",
"357 412 LINE",
"313 436 OFFCURVE",
"268 444 OFFCURVE",
"214 444 CURVE SMOOTH",
"162 444 OFFCURVE",
"115 428 OFFCURVE",
"78 393 CURVE",
"131 447 LINE",
"110 426 OFFCURVE",
"110 409 OFFCURVE",
"110 397 CURVE SMOOTH",
"110 291 OFFCURVE",
"379 287 OFFCURVE",
"379 133 CURVE SMOOTH"
);
}
);
width = 406;
},
{
associatedMasterId = "037EC45F-2845-4C9D-A982-99EFE46CDFCF";
layerId = "520A69D1-2FB9-410C-94CD-6668658B48CD";
name = "Sep 11 21, 20:20";
paths = (
{
closed = 1;
nodes = (
"479 385 LINE",
"429 417 OFFCURVE",
"356 424 OFFCURVE",
"300 424 CURVE SMOOTH",
"230 424 OFFCURVE",
"179 397 OFFCURVE",
"179 341 CURVE SMOOTH",
"179 280 OFFCURVE",
"286 259 OFFCURVE",
"369 208 CURVE",
"282 140 LINE",
"170 198 OFFCURVE",
"67 240 OFFCURVE",
"67 325 CURVE SMOOTH",
"67 409 OFFCURVE",
"182 513 OFFCURVE",
"315 513 CURVE SMOOTH",
"429 513 OFFCURVE",
"490 497 OFFCURVE",
"557 449 CURVE"
);
}
);
width = 600;
},
{
associatedMasterId = "037EC45F-2845-4C9D-A982-99EFE46CDFCF";
layerId = "35C09B1E-9FFA-4F5E-9EAD-FC21396D6648";
name = "Sep 11 21, 20:21";
paths = (
{
closed = 1;
nodes = (
"456 385 LINE",
"413 417 OFFCURVE",
"350 424 OFFCURVE",
"302 424 CURVE SMOOTH",
"265 424 OFFCURVE",
"234 414 OFFCURVE",
"199 394 CURVE",
"197 386 OFFCURVE",
"197 376 OFFCURVE",
"197 363 CURVE SMOOTH",
"197 280 OFFCURVE",
"290 259 OFFCURVE",
"361 208 CURVE",
"286 140 LINE",
"190 178 OFFCURVE",
"101 240 OFFCURVE",
"101 325 CURVE SMOOTH",
"101 409 OFFCURVE",
"200 513 OFFCURVE",
"315 513 CURVE SMOOTH",
"413 513 OFFCURVE",
"466 497 OFFCURVE",
"523 449 CURVE"
);
}
);
width = 600;
},
{
associatedMasterId = "037EC45F-2845-4C9D-A982-99EFE46CDFCF";
backgroundImage = {
crop = "{{142.606, 74.805}, {168.102, 280.17}}";
imagePath = "/Users/crishernandez/Desktop/Screen Shot 2021-09-15 at 7.20.35 PM.png";
locked = "1";
transform = "{3.56926, 0, 0, 3.56926, -509, -467}";
};
layerId = "F3C1A03B-1BFB-4BFC-82C1-744B097BDA86";
name = "Sep 15 21, 19:24";
paths = (
{
closed = 1;
nodes = (
"476 64 OFFCURVE",
"404 -17 OFFCURVE",
"270 -17 CURVE SMOOTH",
"198 -17 OFFCURVE",
"170 -11 OFFCURVE",
"133 11 CURVE",
"133 85 LINE",
"177 61 OFFCURVE",
"212 53 OFFCURVE",
"288 53 CURVE SMOOTH",
"354 53 OFFCURVE",
"401 69 OFFCURVE",
"438 104 CURVE",
"385 50 LINE",
"406 71 OFFCURVE",
"406 88 OFFCURVE",
"406 100 CURVE SMOOTH",
"406 200 OFFCURVE",
"111 236 OFFCURVE",
"111 366 CURVE SMOOTH",
"111 432 OFFCURVE",
"183 513 OFFCURVE",
"307 513 CURVE SMOOTH",
"369 513 OFFCURVE",
"397 507 OFFCURVE",
"434 485 CURVE",
"434 411 LINE",
"390 435 OFFCURVE",
"355 443 OFFCURVE",
"289 443 CURVE SMOOTH",
"233 443 OFFCURVE",
"186 427 OFFCURVE",
"149 392 CURVE",
"202 446 LINE",
"181 425 OFFCURVE",
"181 408 OFFCURVE",
"181 396 CURVE SMOOTH",
"181 296 OFFCURVE",
"476 260 OFFCURVE",
"476 130 CURVE SMOOTH"
);
}
);
width = 600;
},
{
associatedMasterId = "037EC45F-2845-4C9D-A982-99EFE46CDFCF";
backgroundImage = {
crop = "{{142.606, 74.805}, {168.102, 280.17}}";
imagePath = "/Users/crishernandez/Desktop/Screen Shot 2021-09-15 at 7.20.35 PM.png";
locked = "1";
transform = "{3.56926, 0, 0, 3.56926, -509, -467}";
};
layerId = "7911CDCB-D04E-4801-87C3-A6514EC316B7";
name = "Sep 15 21, 19:26";
paths = (
{
closed = 1;
nodes = (
"456 64 OFFCURVE",
"374 -17 OFFCURVE",
"240 -17 CURVE SMOOTH",
"188 -17 OFFCURVE",
"140 -11 OFFCURVE",
"103 11 CURVE",
"103 85 LINE",
"147 61 OFFCURVE",
"202 53 OFFCURVE",
"258 53 CURVE SMOOTH",
"324 53 OFFCURVE",
"371 69 OFFCURVE",
"408 104 CURVE",
"355 50 LINE",
"376 71 OFFCURVE",
"376 88 OFFCURVE",
"376 120 CURVE SMOOTH",
"376 210 OFFCURVE",
"101 216 OFFCURVE",
"101 356 CURVE SMOOTH",
"101 432 OFFCURVE",
"183 513 OFFCURVE",
"307 513 CURVE SMOOTH",
"359 513 OFFCURVE",
"397 507 OFFCURVE",
"434 485 CURVE",
"434 411 LINE",
"390 435 OFFCURVE",
"355 443 OFFCURVE",
"289 443 CURVE SMOOTH",
"233 443 OFFCURVE",
"186 427 OFFCURVE",
"149 392 CURVE",
"202 446 LINE",
"181 425 OFFCURVE",
"181 408 OFFCURVE",
"181 376 CURVE SMOOTH",
"181 286 OFFCURVE",
"456 270 OFFCURVE",
"456 140 CURVE SMOOTH"
);
}
);
width = 600;
},
{
associatedMasterId = "037EC45F-2845-4C9D-A982-99EFE46CDFCF";
backgroundImage = {
crop = "{{142.606, 74.805}, {168.102, 280.17}}";
imagePath = "/Users/crishernandez/Desktop/Screen Shot 2021-09-15 at 7.20.35 PM.png";
locked = "1";
transform = "{3.56926, 0, 0, 3.56926, -584, -467}";
};
layerId = "08811F9C-3FB9-4471-A0F0-593E5AD5D5EF";
name = "Sep 15 21, 19:30";
paths = (
{
closed = 1;
nodes = (
"381 34 OFFCURVE",
"299 -17 OFFCURVE",
"185 -17 CURVE SMOOTH",
"123 -17 OFFCURVE",
"85 -11 OFFCURVE",
"38 11 CURVE",
"38 85 LINE",
"92 61 OFFCURVE",
"137 53 OFFCURVE",
"203 53 CURVE SMOOTH",
"249 53 OFFCURVE",
"296 69 OFFCURVE",
"333 104 CURVE",
"280 50 LINE",
"301 71 OFFCURVE",
"301 88 OFFCURVE",
"301 100 CURVE SMOOTH",
"301 206 OFFCURVE",
"26 212 OFFCURVE",
"26 366 CURVE SMOOTH",
"26 462 OFFCURVE",
"108 513 OFFCURVE",
"232 513 CURVE SMOOTH",
"274 513 OFFCURVE",
"322 507 OFFCURVE",
"359 485 CURVE",
"359 411 LINE",
"315 435 OFFCURVE",
"270 443 OFFCURVE",
"214 443 CURVE SMOOTH",
"158 443 OFFCURVE",
"111 427 OFFCURVE",
"74 392 CURVE",
"127 446 LINE",
"106 425 OFFCURVE",
"106 408 OFFCURVE",
"106 396 CURVE SMOOTH",
"106 290 OFFCURVE",
"381 284 OFFCURVE",
"381 130 CURVE SMOOTH"
);
}
);
width = 407;
},
{
associatedMasterId = "037EC45F-2845-4C9D-A982-99EFE46CDFCF";
backgroundImage = {
crop = "{{142.606, 74.805}, {168.102, 280.17}}";
imagePath = "/Users/crishernandez/Desktop/Screen Shot 2021-09-15 at 7.20.35 PM.png";
locked = "1";
transform = "{3.56926, 0, 0, 3.56926, -584, -467}";
};
layerId = "916A1389-433E-473B-A2C7-1FAA1BA502C8";
name = "Sep 15 21, 19:31";
paths = (
{
closed = 1;
nodes = (
"379 37 OFFCURVE",
"297 -14 OFFCURVE",
"185 -14 CURVE SMOOTH",
"125 -14 OFFCURVE",
"87 -8 OFFCURVE",
"40 14 CURVE",
"40 88 LINE",
"94 64 OFFCURVE",
"139 56 OFFCURVE",
"203 56 CURVE SMOOTH",
"247 56 OFFCURVE",
"294 72 OFFCURVE",
"331 107 CURVE",
"278 53 LINE",
"299 74 OFFCURVE",
"299 91 OFFCURVE",
"299 103 CURVE SMOOTH",
"299 209 OFFCURVE",
"28 213 OFFCURVE",
"28 367 CURVE SMOOTH",
"28 463 OFFCURVE",
"110 514 OFFCURVE",
"232 514 CURVE SMOOTH",
"272 514 OFFCURVE",
"320 508 OFFCURVE",
"357 486 CURVE",
"357 412 LINE",
"313 436 OFFCURVE",
"268 444 OFFCURVE",
"214 444 CURVE SMOOTH",
"160 444 OFFCURVE",
"113 428 OFFCURVE",
"76 393 CURVE",
"129 447 LINE",
"108 426 OFFCURVE",
"108 409 OFFCURVE",
"108 397 CURVE SMOOTH",
"108 291 OFFCURVE",
"379 287 OFFCURVE",
"379 133 CURVE SMOOTH"
);
}
);
width = 406;
}
);
unicode = 0073;
},
{
color = 6;
glyphname = t;
lastChange = "2021-09-16 04:00:58 +0000";
layers = (
{
layerId = "037EC45F-2845-4C9D-A982-99EFE46CDFCF";
paths = (
{
closed = 1;
nodes = (
"261 -14 OFFCURVE",
"287 -8 OFFCURVE",
"309 1 CURVE",
"309 79 LINE",
"288 73 OFFCURVE",
"260 69 OFFCURVE",
"238 69 CURVE SMOOTH",
"190 69 OFFCURVE",
"181 105 OFFCURVE",
"181 181 CURVE SMOOTH",
"181 622 LINE",
"87 622 LINE",
"87 165 LINE SMOOTH",
"87 56 OFFCURVE",
"138 -14 OFFCURVE",
"229 -14 CURVE SMOOTH"
);
},
{
closed = 1;
nodes = (
"311 432 LINE",
"311 500 LINE",
"10 500 LINE",
"10 432 LINE"
);
}
);
width = 343;
}
);
unicode = 0074;
},
{
color = 6;
glyphname = u;
lastChange = "2021-09-16 04:00:58 +0000";
layers = (
{
associatedMasterId = "037EC45F-2845-4C9D-A982-99EFE46CDFCF";
layerId = "E7570427-1066-4A22-B2F4-D443EE08F769";
name = e_02;
paths = (
{
closed = 1;
nodes = (
"356 500 LINE",
"356 80 LINE",
"358 57 OFFCURVE",
"369 23 OFFCURVE",
"386 0 CURVE",
"472 0 LINE",
"456 48 OFFCURVE",
"450 89 OFFCURVE",
"450 153 CURVE SMOOTH",
"450 500 LINE"
);
},
{
closed = 1;
nodes = (
"68 500 LINE",
"68 142 LINE SMOOTH",
"68 42 OFFCURVE",
"120 -14 OFFCURVE",
"214 -14 CURVE SMOOTH",
"280 -14 OFFCURVE",
"345 14 OFFCURVE",
"392 63 CURVE",
"372 113 LINE",
"329 78 OFFCURVE",
"285 60 OFFCURVE",
"242 60 CURVE SMOOTH",
"185 60 OFFCURVE",
"162 90 OFFCURVE",
"162 160 CURVE SMOOTH",
"162 500 LINE"
);
}
);
visible = 1;
width = 524;
},
{
anchors = (
{
name = bottom;
position = "{262, 0}";
},
{
name = ogonek;
position = "{472, 10}";
},
{
name = top;
position = "{262, 500}";
},
{
name = topright;
position = "{504, 500}";
}
);
layerId = "037EC45F-2845-4C9D-A982-99EFE46CDFCF";
paths = (
{
closed = 1;
nodes = (
"283 -14 OFFCURVE",
"350 19 OFFCURVE",
"394 78 CURVE",
"370 124 LINE",
"318 79 OFFCURVE",
"278 60 OFFCURVE",
"238 60 CURVE SMOOTH",
"186 60 OFFCURVE",
"162 92 OFFCURVE",
"162 160 CURVE SMOOTH",
"162 500 LINE",
"68 500 LINE",
"68 146 LINE SMOOTH",
"68 42 OFFCURVE",
"118 -14 OFFCURVE",
"210 -14 CURVE SMOOTH"
);
},
{
closed = 1;
nodes = (
"480 0 LINE",
"458 48 OFFCURVE",
"450 89 OFFCURVE",
"450 153 CURVE SMOOTH",
"450 500 LINE",
"356 500 LINE",
"356 80 LINE",
"358 57 OFFCURVE",
"369 23 OFFCURVE",
"386 0 CURVE"
);
}
);
width = 524;
},
{
associatedMasterId = "037EC45F-2845-4C9D-A982-99EFE46CDFCF";
layerId = "5727B2DB-2A6C-4140-BFE7-E19750C68CB5";
name = "Sep 15 21, 00:48";
paths = (
{
closed = 1;
nodes = (
"286 -14 OFFCURVE",
"348 16 OFFCURVE",
"392 72 CURVE",
"372 122 LINE",
"336 83 OFFCURVE",
"288 60 OFFCURVE",
"240 60 CURVE SMOOTH",
"187 60 OFFCURVE",
"162 87 OFFCURVE",
"162 154 CURVE SMOOTH",
"162 500 LINE",
"68 500 LINE",
"68 146 LINE SMOOTH",
"68 40 OFFCURVE",
"120 -14 OFFCURVE",
"216 -14 CURVE SMOOTH"
);
},
{
closed = 1;
nodes = (
"472 0 LINE",
"456 48 OFFCURVE",
"450 89 OFFCURVE",
"450 153 CURVE SMOOTH",
"450 500 LINE",
"356 500 LINE",
"356 80 LINE",
"358 57 OFFCURVE",
"369 23 OFFCURVE",
"386 0 CURVE"
);
}
);
width = 524;
},
{
associatedMasterId = "037EC45F-2845-4C9D-A982-99EFE46CDFCF";
layerId = "99D4B9A3-8BA4-48EE-BCC1-4A4949B172B1";
name = "Sep 15 21, 00:50";
paths = (
{
closed = 1;
nodes = (
"286 -14 OFFCURVE",
"348 16 OFFCURVE",
"392 72 CURVE",
"372 122 LINE",
"336 83 OFFCURVE",
"288 60 OFFCURVE",
"240 60 CURVE SMOOTH",
"187 60 OFFCURVE",
"162 87 OFFCURVE",
"162 154 CURVE SMOOTH",
"162 500 LINE",
"68 500 LINE",
"68 142 LINE SMOOTH",
"68 40 OFFCURVE",
"120 -14 OFFCURVE",
"216 -14 CURVE SMOOTH"
);
},
{
closed = 1;
nodes = (
"472 0 LINE",
"456 48 OFFCURVE",
"450 89 OFFCURVE",
"450 153 CURVE SMOOTH",
"450 500 LINE",
"356 500 LINE",
"356 80 LINE",
"358 57 OFFCURVE",
"369 23 OFFCURVE",
"386 0 CURVE"
);
}
);
width = 524;
},
{
associatedMasterId = "037EC45F-2845-4C9D-A982-99EFE46CDFCF";
layerId = "F15585E7-9F9C-4BC6-8C83-2B7BD9AED665";
name = "Sep 15 21, 01:29";
paths = (
{
closed = 1;
nodes = (
"286 -14 OFFCURVE",
"351 18 OFFCURVE",
"392 74 CURVE",
"374 122 LINE",
"338 83 OFFCURVE",
"289 60 OFFCURVE",
"242 60 CURVE SMOOTH",
"188 60 OFFCURVE",
"162 91 OFFCURVE",
"162 154 CURVE SMOOTH",
"162 500 LINE",
"68 500 LINE",
"68 146 LINE SMOOTH",
"68 41 OFFCURVE",
"119 -14 OFFCURVE",
"214 -14 CURVE SMOOTH"
);
},
{
closed = 1;
nodes = (
"472 0 LINE",
"456 48 OFFCURVE",
"450 89 OFFCURVE",
"450 153 CURVE SMOOTH",
"450 500 LINE",
"356 500 LINE",
"356 80 LINE",
"358 57 OFFCURVE",
"369 23 OFFCURVE",
"386 0 CURVE"
);
}
);
width = 524;
},
{
associatedMasterId = "037EC45F-2845-4C9D-A982-99EFE46CDFCF";
layerId = "A3E4D0C5-A6E8-4237-8613-6E9A2B1DB022";
name = "Sep 15 21, 12:40";
paths = (
{
closed = 1;
nodes = (
"450 0 LINE",
"450 500 LINE",
"356 500 LINE",
"356 70 LINE",
"386 0 LINE"
);
},
{
closed = 1;
nodes = (
"329 78 OFFCURVE",
"285 60 OFFCURVE",
"242 60 CURVE SMOOTH",
"185 60 OFFCURVE",
"162 90 OFFCURVE",
"162 160 CURVE SMOOTH",
"162 500 LINE",
"68 500 LINE",
"68 142 LINE SMOOTH",
"68 42 OFFCURVE",
"120 -14 OFFCURVE",
"214 -14 CURVE SMOOTH",
"280 -14 OFFCURVE",
"345 14 OFFCURVE",
"392 63 CURVE",
"372 113 LINE"
);
}
);
width = 524;
},
{
associatedMasterId = "037EC45F-2845-4C9D-A982-99EFE46CDFCF";
layerId = "BDDAE1CF-91B1-4BBA-B028-963D42EBAD32";
name = "Sep 15 21, 12:41";
paths = (
{
closed = 1;
nodes = (
"450 0 LINE",
"450 500 LINE",
"356 500 LINE",
"356 70 LINE",
"386 0 LINE"
);
},
{
closed = 1;
nodes = (
"68 500 LINE",
"68 146 LINE SMOOTH",
"68 42 OFFCURVE",
"117 -14 OFFCURVE",
"210 -14 CURVE SMOOTH",
"285 -14 OFFCURVE",
"354 22 OFFCURVE",
"398 82 CURVE",
"370 124 LINE",
"324 83 OFFCURVE",
"275 60 OFFCURVE",
"232 60 CURVE SMOOTH",
"183 60 OFFCURVE",
"162 90 OFFCURVE",
"162 160 CURVE SMOOTH",
"162 500 LINE"
);
}
);
width = 524;
},
{
associatedMasterId = "037EC45F-2845-4C9D-A982-99EFE46CDFCF";
layerId = "BA54A2F0-3062-47A2-AB07-DE9D403BB864";
name = "Sep 15 21, 16:32";
paths = (
{
closed = 1;
nodes = (
"68 500 LINE",
"68 146 LINE SMOOTH",
"68 42 OFFCURVE",
"118 -14 OFFCURVE",
"212 -14 CURVE SMOOTH",
"286 -14 OFFCURVE",
"354 21 OFFCURVE",
"398 82 CURVE",
"370 124 LINE",
"321 81 OFFCURVE",
"276 60 OFFCURVE",
"234 60 CURVE SMOOTH",
"184 60 OFFCURVE",
"162 90 OFFCURVE",
"162 160 CURVE SMOOTH",
"162 500 LINE"
);
},
{
closed = 1;
nodes = (
"356 500 LINE",
"356 80 LINE",
"358 57 OFFCURVE",
"369 23 OFFCURVE",
"386 0 CURVE",
"472 0 LINE",
"456 48 OFFCURVE",
"450 89 OFFCURVE",
"450 153 CURVE SMOOTH",
"450 500 LINE"
);
}
);
width = 524;
},
{
associatedMasterId = "037EC45F-2845-4C9D-A982-99EFE46CDFCF";
layerId = "AD8CCD2E-CC74-4F83-BFD1-5FDDF040BFC5";
name = "Sep 15 21, 16:42";
paths = (
{
closed = 1;
nodes = (
"356 500 LINE",
"356 80 LINE",
"358 57 OFFCURVE",
"369 23 OFFCURVE",
"386 0 CURVE",
"472 0 LINE",
"456 48 OFFCURVE",
"450 89 OFFCURVE",
"450 153 CURVE SMOOTH",
"450 500 LINE"
);
},
{
closed = 1;
nodes = (
"68 500 LINE",
"68 146 LINE SMOOTH",
"68 42 OFFCURVE",
"118 -14 OFFCURVE",
"210 -14 CURVE SMOOTH",
"283 -14 OFFCURVE",
"350 21 OFFCURVE",
"394 82 CURVE",
"370 124 LINE",
"321 81 OFFCURVE",
"276 60 OFFCURVE",
"238 60 CURVE SMOOTH",
"186 60 OFFCURVE",
"162 93 OFFCURVE",
"162 160 CURVE SMOOTH",
"162 500 LINE"
);
}
);
width = 524;
},
{
associatedMasterId = "037EC45F-2845-4C9D-A982-99EFE46CDFCF";
layerId = "A5E13A44-946F-42B9-9DAE-B942545EBB1C";
name = "Sep 15 21, 17:19";
paths = (
{
closed = 1;
nodes = (
"283 -14 OFFCURVE",
"350 21 OFFCURVE",
"394 80 CURVE",
"370 124 LINE",
"318 79 OFFCURVE",
"278 60 OFFCURVE",
"238 60 CURVE SMOOTH",
"186 60 OFFCURVE",
"162 92 OFFCURVE",
"162 160 CURVE SMOOTH",
"162 500 LINE",
"68 500 LINE",
"68 146 LINE SMOOTH",
"68 42 OFFCURVE",
"118 -14 OFFCURVE",
"210 -14 CURVE SMOOTH"
);
},
{
closed = 1;
nodes = (
"472 0 LINE",
"456 48 OFFCURVE",
"450 89 OFFCURVE",
"450 153 CURVE SMOOTH",
"450 500 LINE",
"356 500 LINE",
"356 80 LINE",
"358 57 OFFCURVE",
"369 23 OFFCURVE",
"386 0 CURVE"
);
}
);
width = 524;
}
);
unicode = 0075;
},
{
color = 1;
glyphname = v;
lastChange = "2021-09-16 04:11:20 +0000";
layers = (
{
associatedMasterId = "037EC45F-2845-4C9D-A982-99EFE46CDFCF";
layerId = "A4C4542A-653D-425F-930B-5A3AD68A1761";
name = "Aug 29 21, 15:55";
paths = (
{
closed = 1;
nodes = (
"150 0 LINE",
"250 0 LINE",
"404 500 LINE",
"299 500 LINE",
"193 18 LINE",
"226 18 LINE",
"105 500 LINE",
"0 500 LINE"
);
}
);
width = 404;
},
{
associatedMasterId = "037EC45F-2845-4C9D-A982-99EFE46CDFCF";
layerId = "CFB444B6-6582-474B-8F48-76B9FB682F0E";
name = "Aug 29 21, 15:57";
paths = (
{
closed = 1;
nodes = (
"254 0 LINE",
"404 500 LINE",
"307 500 LINE",
"186 18 LINE",
"222 18 LINE",
"101 500 LINE",
"0 500 LINE",
"150 0 LINE"
);
}
);
width = 404;
},
{
associatedMasterId = "037EC45F-2845-4C9D-A982-99EFE46CDFCF";
layerId = "99155A77-5054-4F90-804D-E3DC049F5A05";
name = "Aug 29 21, 16:02";
paths = (
{
closed = 1;
nodes = (
"147 0 LINE",
"253 0 LINE",
"404 500 LINE",
"307 500 LINE",
"194 18 LINE",
"232 18 LINE",
"110 500 LINE",
"0 500 LINE"
);
}
);
width = 404;
},
{
background = {
paths = (
{
closed = 1;
nodes = (
"149 0 LINE",
"255 0 LINE",
"406 500 LINE",
"309 500 LINE",
"196 18 LINE",
"234 18 LINE",
"112 500 LINE",
"2 500 LINE"
);
}
);
};
layerId = "037EC45F-2845-4C9D-A982-99EFE46CDFCF";
paths = (
{
closed = 1;
nodes = (
"152 0 LINE",
"252 0 LINE",
"408 500 LINE",
"304 500 LINE",
"196 18 LINE",
"228 18 LINE",
"104 500 LINE",
"0 500 LINE"
);
}
);
width = 408;
},
{
associatedMasterId = "037EC45F-2845-4C9D-A982-99EFE46CDFCF";
layerId = "EA5C2DE7-2AB0-4E57-8932-FED0F89CB89C";
name = "Aug 29 21, 16:02";
paths = (
{
closed = 1;
nodes = (
"150 0 LINE",
"250 0 LINE",
"404 500 LINE",
"312 500 LINE",
"194 18 LINE",
"230 18 LINE",
"104 500 LINE",
"0 500 LINE"
);
}
);
width = 404;
},
{
associatedMasterId = "037EC45F-2845-4C9D-A982-99EFE46CDFCF";
background = {
paths = (
{
closed = 1;
nodes = (
"149 0 LINE",
"255 0 LINE",
"406 500 LINE",
"309 500 LINE",
"196 18 LINE",
"234 18 LINE",
"112 500 LINE",
"2 500 LINE"
);
}
);
};
layerId = "F339BD84-ACCF-4EAA-A0FB-F8A0DEDE51F9";
name = "Sep 15 21, 21:11";
paths = (
{
closed = 1;
nodes = (
"152 0 LINE",
"252 0 LINE",
"408 500 LINE",
"314 500 LINE",
"196 18 LINE",
"228 18 LINE",
"104 500 LINE",
"0 500 LINE"
);
}
);
width = 408;
}
);
unicode = 0076;
},
{
color = 1;
glyphname = w;
lastChange = "2021-09-16 04:11:20 +0000";
layers = (
{
layerId = "037EC45F-2845-4C9D-A982-99EFE46CDFCF";
paths = (
{
closed = 1;
nodes = (
"252 0 LINE",
"379 416 LINE",
"343 416 LINE",
"466 0 LINE",
"546 0 LINE",
"702 500 LINE",
"608 500 LINE",
"489 18 LINE",
"527 18 LINE",
"404 500 LINE",
"324 500 LINE",
"192 18 LINE",
"232 18 LINE",
"122 500 LINE",
"20 500 LINE",
"172 0 LINE"
);
}
);
width = 722;
}
);
unicode = 0077;
},
{
color = 6;
glyphname = x;
lastChange = "2021-09-16 01:49:07 +0000";
layers = (
{
layerId = "037EC45F-2845-4C9D-A982-99EFE46CDFCF";
paths = (
{
closed = 1;
nodes = (
"108 0 LINE",
"258 250 LINE",
"108 500 LINE",
"10 500 LINE",
"169 250 LINE",
"10 0 LINE"
);
},
{
closed = 1;
nodes = (
"336 0 LINE",
"434 0 LINE",
"276 250 LINE",
"434 500 LINE",
"336 500 LINE",
"186 250 LINE"
);
}
);
width = 444;
}
);
unicode = 0078;
},
{
color = 6;
glyphname = z;
lastChange = "2021-09-16 01:53:32 +0000";
layers = (
{
layerId = "037EC45F-2845-4C9D-A982-99EFE46CDFCF";
paths = (
{
closed = 1;
nodes = (
"16 48 LINE",
"16 0 LINE",
"368 0 LINE",
"368 70 LINE",
"74 70 LINE",
"115 38 LINE",
"364 452 LINE",
"364 500 LINE",
"22 500 LINE",
"22 430 LINE",
"307 430 LINE",
"265 462 LINE"
);
}
);
width = 384;
}
);
unicode = 007A;
},
{
glyphname = a.alt01;
lastChange = "2021-09-16 00:38:43 +0000";
layers = (
{
layerId = "037EC45F-2845-4C9D-A982-99EFE46CDFCF";
paths = (
{
closed = 1;
nodes = (
"410 9 LINE",
"404 107 LINE",
"404 358 LINE SMOOTH",
"404 464 OFFCURVE",
"352 514 OFFCURVE",
"242 514 CURVE SMOOTH",
"184 514 OFFCURVE",
"124 500 OFFCURVE",
"69 472 CURVE",
"69 396 LINE",
"125 428 OFFCURVE",
"163 440 OFFCURVE",
"214 440 CURVE SMOOTH",
"287 440 OFFCURVE",
"310 416 OFFCURVE",
"310 340 CURVE SMOOTH",
"310 -10 LINE"
);
},
{
closed = 1;
nodes = (
"246 -14 OFFCURVE",
"304 21 OFFCURVE",
"349 89 CURVE",
"349 156 LINE",
"305 94 OFFCURVE",
"254 60 OFFCURVE",
"207 60 CURVE SMOOTH",
"158 60 OFFCURVE",
"136 83 OFFCURVE",
"136 136 CURVE SMOOTH",
"136 169 OFFCURVE",
"142 194 OFFCURVE",
"163 215 CURVE",
"110 163 LINE",
"147 198 OFFCURVE",
"220 248 OFFCURVE",
"349 248 CURVE",
"349 319 LINE",
"140 297 OFFCURVE",
"38 229 OFFCURVE",
"38 116 CURVE SMOOTH",
"38 34 OFFCURVE",
"93 -14 OFFCURVE",
"179 -14 CURVE SMOOTH"
);
}
);
width = 452;
}
);
},
{
color = 11;
glyphname = c.alt01;
lastChange = "2021-09-16 01:46:22 +0000";
layers = (
{
layerId = "037EC45F-2845-4C9D-A982-99EFE46CDFCF";
paths = (
{
closed = 1;
nodes = (
"340 68 OFFCURVE",
"305 60 OFFCURVE",
"273 60 CURVE SMOOTH",
"175 60 OFFCURVE",
"136 106 OFFCURVE",
"136 242 CURVE SMOOTH",
"136 345 OFFCURVE",
"151 422 OFFCURVE",
"172 443 CURVE",
"119 389 LINE",
"156 424 OFFCURVE",
"203 440 OFFCURVE",
"249 440 CURVE SMOOTH",
"272 440 OFFCURVE",
"297 437 OFFCURVE",
"346 410 CURVE",
"290 452 LINE",
"285 434 OFFCURVE",
"282 420 OFFCURVE",
"282 406 CURVE SMOOTH",
"282 364 OFFCURVE",
"307 346 OFFCURVE",
"338 346 CURVE SMOOTH",
"372 346 OFFCURVE",
"400 363 OFFCURVE",
"400 411 CURVE SMOOTH",
"400 470 OFFCURVE",
"344 514 OFFCURVE",
"259 514 CURVE SMOOTH",
"123 514 OFFCURVE",
"36 422 OFFCURVE",
"36 246 CURVE SMOOTH",
"36 75 OFFCURVE",
"117 -14 OFFCURVE",
"253 -14 CURVE SMOOTH",
"295 -14 OFFCURVE",
"336 -9 OFFCURVE",
"384 16 CURVE",
"384 92 LINE"
);
}
);
width = 438;
}
);
leftMetricsKey = o;
},
{
color = 11;
glyphname = d.alt01;
lastChange = "2021-09-16 01:46:22 +0000";
layers = (
{
layerId = "037EC45F-2845-4C9D-A982-99EFE46CDFCF";
paths = (
{
closed = 1;
nodes = (
"305 440 OFFCURVE",
"340 432 OFFCURVE",
"384 398 CURVE",
"384 474 LINE",
"358 503 OFFCURVE",
"315 514 OFFCURVE",
"269 514 CURVE SMOOTH",
"118 514 OFFCURVE",
"36 420 OFFCURVE",
"36 246 CURVE SMOOTH",
"36 75 OFFCURVE",
"117 -14 OFFCURVE",
"233 -14 CURVE SMOOTH",
"285 -14 OFFCURVE",
"340 10 OFFCURVE",
"384 56 CURVE",
"384 132 LINE",
"330 78 OFFCURVE",
"295 60 OFFCURVE",
"253 60 CURVE SMOOTH",
"175 60 OFFCURVE",
"136 106 OFFCURVE",
"136 242 CURVE SMOOTH",
"136 345 OFFCURVE",
"151 422 OFFCURVE",
"172 443 CURVE",
"119 389 LINE",
"156 424 OFFCURVE",
"203 440 OFFCURVE",
"249 440 CURVE SMOOTH"
);
},
{
closed = 1;
nodes = (
"436 107 LINE",
"436 700 LINE",
"342 700 LINE",
"342 -10 LINE",
"442 9 LINE"
);
}
);
width = 510;
}
);
},
{
color = 11;
glyphname = g.alt01;
lastChange = "2021-09-16 01:46:22 +0000";
layers = (
{
layerId = "037EC45F-2845-4C9D-A982-99EFE46CDFCF";
paths = (
{
closed = 1;
nodes = (
"325 129 OFFCURVE",
"389 196 OFFCURVE",
"389 324 CURVE SMOOTH",
"389 449 OFFCURVE",
"330 514 OFFCURVE",
"218 514 CURVE SMOOTH",
"99 514 OFFCURVE",
"35 447 OFFCURVE",
"35 319 CURVE SMOOTH",
"35 194 OFFCURVE",
"94 129 OFFCURVE",
"206 129 CURVE SMOOTH"
);
},
{
closed = 1;
nodes = (
"312 238 LINE",
"289 217 OFFCURVE",
"261 207 OFFCURVE",
"213 207 CURVE SMOOTH",
"146 207 OFFCURVE",
"123 235 OFFCURVE",
"123 317 CURVE SMOOTH",
"123 379 OFFCURVE",
"132 425 OFFCURVE",
"144 438 CURVE",
"112 405 LINE",
"135 427 OFFCURVE",
"163 436 OFFCURVE",
"211 436 CURVE SMOOTH",
"278 436 OFFCURVE",
"301 408 OFFCURVE",
"301 326 CURVE SMOOTH",
"301 264 OFFCURVE",
"292 218 OFFCURVE",
"280 205 CURVE"
);
},
{
closed = 1;
nodes = (
"474 459 LINE",
"454 540 LINE",
"299 480 LINE",
"347 429 LINE"
);
},
{
closed = 1;
nodes = (
"65 -126 OFFCURVE",
"0 -93 CURVE",
"0 -169 LINE",
"46 -194 OFFCURVE",
"147 -214 OFFCURVE",
"229 -214 CURVE SMOOTH",
"346 -214 OFFCURVE",
"437 -164 OFFCURVE",
"437 -59 CURVE SMOOTH",
"437 20 OFFCURVE",
"392 56 OFFCURVE",
"224 56 CURVE SMOOTH",
"120 56 OFFCURVE",
"96 66 OFFCURVE",
"96 95 CURVE SMOOTH",
"96 121 OFFCURVE",
"109 142 OFFCURVE",
"153 142 CURVE",
"93 186 LINE",
"50 179 OFFCURVE",
"13 126 OFFCURVE",
"13 75 CURVE SMOOTH",
"13 9 OFFCURVE",
"62 -37 OFFCURVE",
"188 -37 CURVE SMOOTH",
"337 -37 OFFCURVE",
"359 -54 OFFCURVE",
"359 -86 CURVE SMOOTH",
"359 -120 OFFCURVE",
"327 -141 OFFCURVE",
"248 -141 CURVE SMOOTH",
"144 -141 OFFCURVE"
);
}
);
width = 442;
}
);
},
{
color = 11;
glyphname = i.alt01;
lastChange = "2021-09-16 01:46:22 +0000";
layers = (
{
layerId = "037EC45F-2845-4C9D-A982-99EFE46CDFCF";
paths = (
{
closed = 1;
nodes = (
"74 500 LINE",
"74 0 LINE",
"168 0 LINE",
"168 500 LINE"
);
},
{
closed = 1;
nodes = (
"69 586 LINE",
"173 586 LINE",
"173 680 LINE",
"69 680 LINE"
);
}
);
width = 242;
}
);
},
{
color = 11;
glyphname = m.alt01;
lastChange = "2021-09-16 01:46:22 +0000";
layers = (
{
layerId = "037EC45F-2845-4C9D-A982-99EFE46CDFCF";
paths = (
{
closed = 1;
nodes = (
"744 0 LINE",
"744 358 LINE SMOOTH",
"744 458 OFFCURVE",
"692 514 OFFCURVE",
"598 514 CURVE SMOOTH",
"532 514 OFFCURVE",
"467 486 OFFCURVE",
"420 437 CURVE",
"440 387 LINE",
"483 422 OFFCURVE",
"527 440 OFFCURVE",
"570 440 CURVE SMOOTH",
"627 440 OFFCURVE",
"650 410 OFFCURVE",
"650 340 CURVE SMOOTH",
"650 0 LINE"
);
},
{
closed = 1;
nodes = (
"168 0 LINE",
"168 357 LINE SMOOTH",
"168 419 OFFCURVE",
"158 462 OFFCURVE",
"132 510 CURVE",
"36 485 LINE",
"62 442 OFFCURVE",
"74 392 OFFCURVE",
"74 333 CURVE SMOOTH",
"74 0 LINE"
);
},
{
closed = 1;
nodes = (
"456 0 LINE",
"456 358 LINE SMOOTH",
"456 458 OFFCURVE",
"404 514 OFFCURVE",
"310 514 CURVE SMOOTH",
"244 514 OFFCURVE",
"179 486 OFFCURVE",
"132 437 CURVE",
"152 387 LINE",
"195 422 OFFCURVE",
"239 440 OFFCURVE",
"282 440 CURVE SMOOTH",
"339 440 OFFCURVE",
"362 410 OFFCURVE",
"362 340 CURVE SMOOTH",
"362 0 LINE"
);
}
);
width = 812;
}
);
},
{
color = 11;
glyphname = n.alt01;
lastChange = "2021-09-16 01:46:22 +0000";
layers = (
{
layerId = "037EC45F-2845-4C9D-A982-99EFE46CDFCF";
paths = (
{
closed = 1;
nodes = (
"456 0 LINE",
"456 359 LINE SMOOTH",
"456 458 OFFCURVE",
"404 514 OFFCURVE",
"310 514 CURVE SMOOTH",
"244 514 OFFCURVE",
"179 486 OFFCURVE",
"132 437 CURVE",
"152 387 LINE",
"195 422 OFFCURVE",
"239 440 OFFCURVE",
"282 440 CURVE SMOOTH",
"339 440 OFFCURVE",
"362 410 OFFCURVE",
"362 340 CURVE SMOOTH",
"362 0 LINE"
);
},
{
closed = 1;
nodes = (
"168 0 LINE",
"168 510 LINE",
"68 491 LINE",
"74 393 LINE",
"74 0 LINE"
);
}
);
width = 524;
},
{
associatedMasterId = "037EC45F-2845-4C9D-A982-99EFE46CDFCF";
layerId = "7FCD9C29-9817-4E6D-90FF-66C0C730D651";
name = "Aug 29 21, 15:31";
paths = (
{
closed = 1;
nodes = (
"195 422 OFFCURVE",
"240 440 OFFCURVE",
"283 440 CURVE SMOOTH",
"339 440 OFFCURVE",
"362 410 OFFCURVE",
"362 340 CURVE SMOOTH",
"362 0 LINE",
"456 0 LINE",
"456 357 LINE SMOOTH",
"456 458 OFFCURVE",
"404 514 OFFCURVE",
"311 514 CURVE SMOOTH",
"245 514 OFFCURVE",
"179 486 OFFCURVE",
"133 437 CURVE",
"153 387 LINE"
);
},
{
closed = 1;
nodes = (
"131 511 OFFCURVE",
"95 503 OFFCURVE",
"68 489 CURVE",
"68 460 OFFCURVE",
"74 431 OFFCURVE",
"74 402 CURVE SMOOTH",
"74 0 LINE",
"105 -3 OFFCURVE",
"139 -3 OFFCURVE",
"168 0 CURVE",
"168 508 LINE",
"154 512 LINE"
);
}
);
width = 524;
}
);
},
{
color = 11;
glyphname = oacute.alt01;
lastChange = "2021-09-16 01:46:22 +0000";
layers = (
{
layerId = "037EC45F-2845-4C9D-A982-99EFE46CDFCF";
paths = (
{
closed = 1;
nodes = (
"379 -14 OFFCURVE",
"466 78 OFFCURVE",
"466 254 CURVE SMOOTH",
"466 425 OFFCURVE",
"385 514 OFFCURVE",
"259 514 CURVE SMOOTH",
"123 514 OFFCURVE",
"36 422 OFFCURVE",
"36 246 CURVE SMOOTH",
"36 75 OFFCURVE",
"117 -14 OFFCURVE",
"243 -14 CURVE SMOOTH"
);
},
{
closed = 1;
nodes = (
"383 111 LINE",
"346 76 OFFCURVE",
"299 60 OFFCURVE",
"253 60 CURVE SMOOTH",
"175 60 OFFCURVE",
"136 106 OFFCURVE",
"136 242 CURVE SMOOTH",
"136 345 OFFCURVE",
"151 422 OFFCURVE",
"172 443 CURVE",
"119 389 LINE",
"156 424 OFFCURVE",
"203 440 OFFCURVE",
"249 440 CURVE SMOOTH",
"327 440 OFFCURVE",
"366 394 OFFCURVE",
"366 258 CURVE SMOOTH",
"366 155 OFFCURVE",
"351 78 OFFCURVE",
"330 57 CURVE"
);
},
{
closed = 1;
nodes = (
"200 585 LINE",
"244 574 LINE",
"346 670 LINE SMOOTH",
"364 687 OFFCURVE",
"366 693 OFFCURVE",
"366 702 CURVE SMOOTH",
"366 711 OFFCURVE",
"360 716 OFFCURVE",
"347 722 CURVE SMOOTH",
"301 745 LINE"
);
}
);
width = 502;
}
);
},
{
color = 11;
glyphname = r.alt01;
lastChange = "2021-09-16 01:46:22 +0000";
layers = (
{
layerId = "037EC45F-2845-4C9D-A982-99EFE46CDFCF";
paths = (
{
closed = 1;
nodes = (
"68 491 LINE",
"74 393 LINE",
"74 0 LINE",
"168 0 LINE",
"168 510 LINE"
);
},
{
closed = 1;
nodes = (
"323 426 OFFCURVE",
"347 422 OFFCURVE",
"370 415 CURVE",
"370 500 LINE",
"350 510 OFFCURVE",
"333 514 OFFCURVE",
"309 514 CURVE SMOOTH",
"224 514 OFFCURVE",
"137 430 OFFCURVE",
"114 334 CURVE",
"156 301 LINE",
"186 378 OFFCURVE",
"240 426 OFFCURVE",
"295 426 CURVE SMOOTH"
);
}
);
width = 388;
}
);
},
{
color = 11;
glyphname = u.alt01;
lastChange = "2021-09-16 01:46:22 +0000";
layers = (
{
layerId = "037EC45F-2845-4C9D-A982-99EFE46CDFCF";
paths = (
{
closed = 1;
nodes = (
"329 78 OFFCURVE",
"285 60 OFFCURVE",
"242 60 CURVE SMOOTH",
"185 60 OFFCURVE",
"162 90 OFFCURVE",
"162 160 CURVE SMOOTH",
"162 500 LINE",
"68 500 LINE",
"68 142 LINE SMOOTH",
"68 42 OFFCURVE",
"120 -14 OFFCURVE",
"214 -14 CURVE SMOOTH",
"280 -14 OFFCURVE",
"345 14 OFFCURVE",
"392 63 CURVE",
"372 113 LINE"
);
},
{
closed = 1;
nodes = (
"462 58 OFFCURVE",
"450 108 OFFCURVE",
"450 167 CURVE SMOOTH",
"450 500 LINE",
"356 500 LINE",
"356 143 LINE SMOOTH",
"356 81 OFFCURVE",
"366 38 OFFCURVE",
"392 -10 CURVE",
"488 15 LINE"
);
}
);
width = 524;
}
);
},
{
color = 11;
glyphname = a.alt02;
lastChange = "2021-09-16 01:46:22 +0000";
layers = (
{
layerId = "037EC45F-2845-4C9D-A982-99EFE46CDFCF";
paths = (
{
closed = 1;
nodes = (
"404 358 LINE SMOOTH",
"404 464 OFFCURVE",
"352 514 OFFCURVE",
"242 514 CURVE SMOOTH",
"184 514 OFFCURVE",
"124 500 OFFCURVE",
"69 472 CURVE",
"69 396 LINE",
"125 428 OFFCURVE",
"163 440 OFFCURVE",
"214 440 CURVE SMOOTH",
"287 440 OFFCURVE",
"310 416 OFFCURVE",
"310 340 CURVE SMOOTH",
"310 143 LINE SMOOTH",
"310 81 OFFCURVE",
"320 38 OFFCURVE",
"346 -10 CURVE",
"442 15 LINE",
"416 58 OFFCURVE",
"404 108 OFFCURVE",
"404 167 CURVE SMOOTH"
);
},
{
closed = 1;
nodes = (
"136 169 OFFCURVE",
"142 194 OFFCURVE",
"163 215 CURVE",
"110 163 LINE",
"147 198 OFFCURVE",
"220 248 OFFCURVE",
"349 248 CURVE",
"349 319 LINE",
"140 297 OFFCURVE",
"38 229 OFFCURVE",
"38 116 CURVE SMOOTH",
"38 34 OFFCURVE",
"93 -14 OFFCURVE",
"179 -14 CURVE SMOOTH",
"246 -14 OFFCURVE",
"304 21 OFFCURVE",
"349 89 CURVE",
"349 156 LINE",
"305 94 OFFCURVE",
"254 60 OFFCURVE",
"207 60 CURVE SMOOTH",
"158 60 OFFCURVE",
"136 83 OFFCURVE",
"136 136 CURVE SMOOTH"
);
}
);
width = 472;
}
);
},
{
color = 11;
glyphname = d.alt02;
lastChange = "2021-09-16 01:46:22 +0000";
layers = (
{
layerId = "037EC45F-2845-4C9D-A982-99EFE46CDFCF";
paths = (
{
closed = 1;
nodes = (
"285 -14 OFFCURVE",
"340 10 OFFCURVE",
"384 56 CURVE",
"384 132 LINE",
"330 78 OFFCURVE",
"295 60 OFFCURVE",
"253 60 CURVE SMOOTH",
"175 60 OFFCURVE",
"136 106 OFFCURVE",
"136 242 CURVE SMOOTH",
"136 345 OFFCURVE",
"151 422 OFFCURVE",
"172 443 CURVE",
"119 389 LINE",
"156 424 OFFCURVE",
"203 440 OFFCURVE",
"249 440 CURVE SMOOTH",
"305 440 OFFCURVE",
"340 432 OFFCURVE",
"384 398 CURVE",
"384 474 LINE",
"358 503 OFFCURVE",
"315 514 OFFCURVE",
"269 514 CURVE SMOOTH",
"118 514 OFFCURVE",
"36 420 OFFCURVE",
"36 246 CURVE SMOOTH",
"36 75 OFFCURVE",
"117 -14 OFFCURVE",
"233 -14 CURVE SMOOTH"
);
},
{
closed = 1;
nodes = (
"474 15 LINE",
"448 58 OFFCURVE",
"436 108 OFFCURVE",
"436 167 CURVE SMOOTH",
"436 700 LINE",
"342 700 LINE",
"342 143 LINE SMOOTH",
"342 81 OFFCURVE",
"352 38 OFFCURVE",
"378 -10 CURVE"
);
}
);
width = 510;
}
);
},
{
color = 11;
glyphname = m.alt02;
lastChange = "2021-09-16 01:46:22 +0000";
layers = (
{
layerId = "037EC45F-2845-4C9D-A982-99EFE46CDFCF";
paths = (
{
closed = 1;
nodes = (
"744 0 LINE",
"744 358 LINE SMOOTH",
"744 458 OFFCURVE",
"692 514 OFFCURVE",
"598 514 CURVE SMOOTH",
"532 514 OFFCURVE",
"467 486 OFFCURVE",
"420 437 CURVE",
"440 387 LINE",
"483 422 OFFCURVE",
"527 440 OFFCURVE",
"570 440 CURVE SMOOTH",
"627 440 OFFCURVE",
"650 410 OFFCURVE",
"650 340 CURVE SMOOTH",
"650 0 LINE"
);
},
{
closed = 1;
nodes = (
"168 0 LINE",
"168 510 LINE",
"68 491 LINE",
"74 393 LINE",
"74 0 LINE"
);
},
{
closed = 1;
nodes = (
"456 0 LINE",
"456 358 LINE SMOOTH",
"456 458 OFFCURVE",
"404 514 OFFCURVE",
"310 514 CURVE SMOOTH",
"244 514 OFFCURVE",
"179 486 OFFCURVE",
"132 437 CURVE",
"152 387 LINE",
"195 422 OFFCURVE",
"239 440 OFFCURVE",
"282 440 CURVE SMOOTH",
"339 440 OFFCURVE",
"362 410 OFFCURVE",
"362 340 CURVE SMOOTH",
"362 0 LINE"
);
}
);
width = 812;
}
);
},
{
color = 11;
glyphname = n.alt02;
lastChange = "2021-09-16 01:46:22 +0000";
layers = (
{
layerId = "037EC45F-2845-4C9D-A982-99EFE46CDFCF";
paths = (
{
closed = 1;
nodes = (
"456 0 LINE",
"456 358 LINE SMOOTH",
"456 458 OFFCURVE",
"404 514 OFFCURVE",
"310 514 CURVE SMOOTH",
"244 514 OFFCURVE",
"179 486 OFFCURVE",
"132 437 CURVE",
"152 387 LINE",
"195 422 OFFCURVE",
"239 440 OFFCURVE",
"282 440 CURVE SMOOTH",
"339 440 OFFCURVE",
"362 410 OFFCURVE",
"362 340 CURVE SMOOTH",
"362 0 LINE"
);
},
{
closed = 1;
nodes = (
"168 0 LINE",
"168 357 LINE SMOOTH",
"168 419 OFFCURVE",
"158 462 OFFCURVE",
"132 510 CURVE",
"36 485 LINE",
"62 442 OFFCURVE",
"74 392 OFFCURVE",
"74 333 CURVE SMOOTH",
"74 0 LINE"
);
}
);
width = 524;
},
{
associatedMasterId = "037EC45F-2845-4C9D-A982-99EFE46CDFCF";
layerId = "E299C6BF-651E-431F-860F-E6647A27D592";
name = "Aug 29 21, 15:47";
paths = (
{
closed = 1;
nodes = (
"168 0 LINE",
"168 350 LINE SMOOTH",
"168 440 OFFCURVE",
"149 479 OFFCURVE",
"133 504 CURVE",
"36 476 LINE",
"54 440 OFFCURVE",
"74 393 OFFCURVE",
"74 327 CURVE SMOOTH",
"74 0 LINE"
);
},
{
closed = 1;
nodes = (
"195 422 OFFCURVE",
"239 440 OFFCURVE",
"282 440 CURVE SMOOTH",
"339 440 OFFCURVE",
"362 410 OFFCURVE",
"362 340 CURVE SMOOTH",
"362 0 LINE",
"456 0 LINE",
"456 357 LINE SMOOTH",
"456 458 OFFCURVE",
"404 514 OFFCURVE",
"310 514 CURVE SMOOTH",
"244 514 OFFCURVE",
"179 486 OFFCURVE",
"132 437 CURVE",
"152 387 LINE"
);
}
);
width = 524;
},
{
associatedMasterId = "037EC45F-2845-4C9D-A982-99EFE46CDFCF";
layerId = "CE15B55A-86BB-47BF-8F82-3BF0573EE96C";
name = "Aug 29 21, 15:48";
paths = (
{
closed = 1;
nodes = (
"195 422 OFFCURVE",
"239 440 OFFCURVE",
"282 440 CURVE SMOOTH",
"339 440 OFFCURVE",
"362 410 OFFCURVE",
"362 340 CURVE SMOOTH",
"362 0 LINE",
"456 0 LINE",
"456 357 LINE SMOOTH",
"456 458 OFFCURVE",
"404 514 OFFCURVE",
"310 514 CURVE SMOOTH",
"244 514 OFFCURVE",
"179 486 OFFCURVE",
"132 437 CURVE",
"152 387 LINE"
);
},
{
closed = 1;
nodes = (
"64 432 OFFCURVE",
"74 379 OFFCURVE",
"74 326 CURVE SMOOTH",
"74 0 LINE",
"169 0 LINE",
"169 350 LINE SMOOTH",
"168 399 OFFCURVE",
"161 448 OFFCURVE",
"138 491 CURVE SMOOTH",
"136 495 OFFCURVE",
"134 499 OFFCURVE",
"132 503 CURVE",
"37 478 LINE"
);
}
);
visible = 1;
width = 524;
}
);
},
{
color = 11;
glyphname = oacute.alt02;
lastChange = "2021-09-16 01:46:22 +0000";
layers = (
{
layerId = "037EC45F-2845-4C9D-A982-99EFE46CDFCF";
paths = (
{
closed = 1;
nodes = (
"379 -14 OFFCURVE",
"466 78 OFFCURVE",
"466 254 CURVE SMOOTH",
"466 425 OFFCURVE",
"385 514 OFFCURVE",
"259 514 CURVE SMOOTH",
"123 514 OFFCURVE",
"36 422 OFFCURVE",
"36 246 CURVE SMOOTH",
"36 75 OFFCURVE",
"117 -14 OFFCURVE",
"243 -14 CURVE SMOOTH"
);
},
{
closed = 1;
nodes = (
"383 111 LINE",
"346 76 OFFCURVE",
"299 60 OFFCURVE",
"253 60 CURVE SMOOTH",
"175 60 OFFCURVE",
"136 106 OFFCURVE",
"136 242 CURVE SMOOTH",
"136 345 OFFCURVE",
"151 422 OFFCURVE",
"172 443 CURVE",
"119 389 LINE",
"156 424 OFFCURVE",
"203 440 OFFCURVE",
"249 440 CURVE SMOOTH",
"327 440 OFFCURVE",
"366 394 OFFCURVE",
"366 258 CURVE SMOOTH",
"366 155 OFFCURVE",
"351 78 OFFCURVE",
"330 57 CURVE"
);
},
{
closed = 1;
nodes = (
"200 585 LINE",
"244 574 LINE",
"346 670 LINE SMOOTH",
"364 687 OFFCURVE",
"366 693 OFFCURVE",
"366 702 CURVE SMOOTH",
"366 711 OFFCURVE",
"360 716 OFFCURVE",
"347 722 CURVE SMOOTH",
"301 745 LINE"
);
}
);
width = 502;
}
);
},
{
color = 11;
glyphname = r.alt02;
lastChange = "2021-09-16 01:46:22 +0000";
layers = (
{
layerId = "037EC45F-2845-4C9D-A982-99EFE46CDFCF";
paths = (
{
closed = 1;
nodes = (
"62 442 OFFCURVE",
"74 392 OFFCURVE",
"74 333 CURVE SMOOTH",
"74 0 LINE",
"168 0 LINE",
"168 357 LINE SMOOTH",
"168 419 OFFCURVE",
"158 462 OFFCURVE",
"132 510 CURVE",
"36 485 LINE"
);
},
{
closed = 1;
nodes = (
"323 426 OFFCURVE",
"347 422 OFFCURVE",
"370 415 CURVE",
"370 500 LINE",
"350 510 OFFCURVE",
"333 514 OFFCURVE",
"309 514 CURVE SMOOTH",
"224 514 OFFCURVE",
"137 430 OFFCURVE",
"114 334 CURVE",
"156 301 LINE",
"186 378 OFFCURVE",
"240 426 OFFCURVE",
"295 426 CURVE SMOOTH"
);
}
);
width = 388;
}
);
},
{
color = 11;
glyphname = u.alt02;
lastChange = "2021-09-16 01:46:22 +0000";
layers = (
{
layerId = "037EC45F-2845-4C9D-A982-99EFE46CDFCF";
paths = (
{
closed = 1;
nodes = (
"456 9 LINE",
"450 107 LINE",
"450 500 LINE",
"356 500 LINE",
"356 -10 LINE"
);
},
{
closed = 1;
nodes = (
"329 78 OFFCURVE",
"285 60 OFFCURVE",
"242 60 CURVE SMOOTH",
"185 60 OFFCURVE",
"162 90 OFFCURVE",
"162 160 CURVE SMOOTH",
"162 500 LINE",
"68 500 LINE",
"68 141 LINE SMOOTH",
"68 42 OFFCURVE",
"120 -14 OFFCURVE",
"214 -14 CURVE SMOOTH",
"280 -14 OFFCURVE",
"345 14 OFFCURVE",
"392 63 CURVE",
"372 113 LINE"
);
}
);
width = 522;
}
);
},
{
color = 11;
glyphname = n.alt03;
lastChange = "2021-09-16 01:46:22 +0000";
layers = (
{
layerId = "037EC45F-2845-4C9D-A982-99EFE46CDFCF";
paths = (
{
closed = 1;
nodes = (
"456 0 LINE",
"456 358 LINE SMOOTH",
"456 458 OFFCURVE",
"404 514 OFFCURVE",
"310 514 CURVE SMOOTH",
"244 514 OFFCURVE",
"179 486 OFFCURVE",
"132 437 CURVE",
"152 388 LINE",
"195 422 OFFCURVE",
"239 440 OFFCURVE",
"282 440 CURVE SMOOTH",
"339 440 OFFCURVE",
"362 410 OFFCURVE",
"362 340 CURVE SMOOTH",
"362 0 LINE"
);
},
{
closed = 1;
nodes = (
"168 0 LINE",
"168 420 LINE",
"166 443 OFFCURVE",
"155 477 OFFCURVE",
"138 500 CURVE",
"52 500 LINE",
"68 452 OFFCURVE",
"74 411 OFFCURVE",
"74 347 CURVE",
"74 0 LINE"
);
}
);
width = 524;
}
);
},
{
color = 11;
glyphname = n.alt04;
lastChange = "2021-09-16 01:46:22 +0000";
layers = (
{
associatedMasterId = "037EC45F-2845-4C9D-A982-99EFE46CDFCF";
layerId = "96D6CFC2-E3C1-499D-8481-94AF6DB44059";
name = "Sep 15 21, 00:09";
paths = (
{
closed = 1;
nodes = (
"195 422 OFFCURVE",
"239 440 OFFCURVE",
"282 440 CURVE SMOOTH",
"339 440 OFFCURVE",
"362 410 OFFCURVE",
"362 340 CURVE SMOOTH",
"362 0 LINE",
"456 0 LINE",
"456 358 LINE SMOOTH",
"456 458 OFFCURVE",
"404 514 OFFCURVE",
"310 514 CURVE SMOOTH",
"244 514 OFFCURVE",
"179 486 OFFCURVE",
"132 437 CURVE",
"152 387 LINE"
);
},
{
closed = 1;
nodes = (
"52 500 LINE",
"68 452 OFFCURVE",
"74 411 OFFCURVE",
"74 347 CURVE",
"74 0 LINE",
"168 0 LINE",
"168 420 LINE",
"166 443 OFFCURVE",
"155 477 OFFCURVE",
"138 500 CURVE"
);
}
);
width = 524;
},
{
associatedMasterId = "037EC45F-2845-4C9D-A982-99EFE46CDFCF";
layerId = "2C10C12E-FDE5-4977-9D5B-3DD924D7759A";
name = /o;
paths = (
{
closed = 1;
nodes = (
"418 -14 OFFCURVE",
"505 78 OFFCURVE",
"505 254 CURVE SMOOTH",
"505 425 OFFCURVE",
"424 514 OFFCURVE",
"298 514 CURVE SMOOTH",
"162 514 OFFCURVE",
"75 422 OFFCURVE",
"75 246 CURVE SMOOTH",
"75 75 OFFCURVE",
"156 -14 OFFCURVE",
"282 -14 CURVE SMOOTH"
);
},
{
closed = 1;
nodes = (
"422 112 LINE",
"385 76 OFFCURVE",
"338 60 OFFCURVE",
"292 60 CURVE SMOOTH",
"214 60 OFFCURVE",
"175 106 OFFCURVE",
"175 242 CURVE SMOOTH",
"175 345 OFFCURVE",
"190 422 OFFCURVE",
"211 443 CURVE",
"158 388 LINE",
"195 424 OFFCURVE",
"242 440 OFFCURVE",
"288 440 CURVE SMOOTH",
"366 440 OFFCURVE",
"405 394 OFFCURVE",
"405 258 CURVE SMOOTH",
"405 155 OFFCURVE",
"390 78 OFFCURVE",
"369 57 CURVE"
);
}
);
visible = 1;
width = 524;
},
{
associatedMasterId = "037EC45F-2845-4C9D-A982-99EFE46CDFCF";
layerId = "193032AC-F198-4E48-97A4-F3051C0AF8A8";
name = "Sep 15 21, 00:12";
paths = (
{
closed = 1;
nodes = (
"195 422 OFFCURVE",
"239 440 OFFCURVE",
"282 440 CURVE SMOOTH",
"339 440 OFFCURVE",
"362 410 OFFCURVE",
"362 340 CURVE SMOOTH",
"362 0 LINE",
"456 0 LINE",
"456 358 LINE SMOOTH",
"456 458 OFFCURVE",
"404 514 OFFCURVE",
"310 514 CURVE SMOOTH",
"244 514 OFFCURVE",
"179 486 OFFCURVE",
"132 437 CURVE",
"152 387 LINE"
);
},
{
closed = 1;
nodes = (
"52 500 LINE",
"68 452 OFFCURVE",
"74 411 OFFCURVE",
"74 347 CURVE",
"74 0 LINE",
"168 0 LINE",
"168 420 LINE",
"166 443 OFFCURVE",
"155 477 OFFCURVE",
"138 500 CURVE"
);
}
);
width = 524;
},
{
associatedMasterId = "037EC45F-2845-4C9D-A982-99EFE46CDFCF";
layerId = "CD11D938-B721-432E-B543-9F1D8A6E2992";
name = "Sep 15 21, 00:20";
paths = (
{
closed = 1;
nodes = (
"191 418 OFFCURVE",
"240 440 OFFCURVE",
"286 440 CURVE SMOOTH",
"339 440 OFFCURVE",
"362 410 OFFCURVE",
"362 340 CURVE SMOOTH",
"362 0 LINE",
"456 0 LINE",
"456 358 LINE SMOOTH",
"456 458 OFFCURVE",
"404 514 OFFCURVE",
"310 514 CURVE SMOOTH",
"244 514 OFFCURVE",
"179 486 OFFCURVE",
"130 427 CURVE",
"150 377 LINE"
);
},
{
closed = 1;
nodes = (
"52 500 LINE",
"68 452 OFFCURVE",
"74 411 OFFCURVE",
"74 347 CURVE SMOOTH",
"74 0 LINE",
"168 0 LINE",
"168 420 LINE",
"166 443 OFFCURVE",
"155 477 OFFCURVE",
"138 500 CURVE"
);
},
{
closed = 0;
nodes = (
"286 462 LINE",
"150 399 LINE"
);
},
{
closed = 0;
nodes = (
"165 388 LINE",
"201 423 OFFCURVE",
"241 440 OFFCURVE",
"288 440 CURVE"
);
}
);
width = 524;
},
{
associatedMasterId = "037EC45F-2845-4C9D-A982-99EFE46CDFCF";
layerId = "AE738897-F4D2-4376-B1FD-AA83F1BA7E83";
name = "Sep 15 21, 00:32";
paths = (
{
closed = 1;
nodes = (
"52 500 LINE",
"68 452 OFFCURVE",
"74 411 OFFCURVE",
"74 347 CURVE SMOOTH",
"74 0 LINE",
"168 0 LINE",
"168 420 LINE",
"166 443 OFFCURVE",
"155 477 OFFCURVE",
"138 500 CURVE"
);
},
{
closed = 1;
nodes = (
"191 417 OFFCURVE",
"241 440 OFFCURVE",
"286 440 CURVE SMOOTH",
"338 440 OFFCURVE",
"362 409 OFFCURVE",
"362 340 CURVE SMOOTH",
"362 0 LINE",
"456 0 LINE",
"456 358 LINE SMOOTH",
"456 458 OFFCURVE",
"404 514 OFFCURVE",
"310 514 CURVE SMOOTH",
"240 514 OFFCURVE",
"177 483 OFFCURVE",
"132 427 CURVE",
"152 378 LINE"
);
}
);
width = 524;
},
{
associatedMasterId = "037EC45F-2845-4C9D-A982-99EFE46CDFCF";
layerId = "3F367FF4-1CF0-4A67-A9FF-4BD2EB863A25";
name = "Sep 15 21, 00:34";
paths = (
{
closed = 1;
nodes = (
"52 500 LINE",
"68 452 OFFCURVE",
"74 411 OFFCURVE",
"74 347 CURVE SMOOTH",
"74 0 LINE",
"168 0 LINE",
"168 420 LINE",
"166 443 OFFCURVE",
"155 477 OFFCURVE",
"138 500 CURVE"
);
},
{
closed = 1;
nodes = (
"191 417 OFFCURVE",
"241 440 OFFCURVE",
"286 440 CURVE SMOOTH",
"337 440 OFFCURVE",
"362 410 OFFCURVE",
"362 350 CURVE SMOOTH",
"362 0 LINE",
"456 0 LINE",
"456 358 LINE SMOOTH",
"456 458 OFFCURVE",
"404 514 OFFCURVE",
"310 514 CURVE SMOOTH",
"240 514 OFFCURVE",
"177 483 OFFCURVE",
"132 427 CURVE",
"152 378 LINE"
);
}
);
width = 524;
},
{
associatedMasterId = "037EC45F-2845-4C9D-A982-99EFE46CDFCF";
layerId = "16D4CE04-1B96-485B-A5C1-8C4D4D341C70";
name = "Sep 15 21, 00:39";
paths = (
{
closed = 1;
nodes = (
"52 500 LINE",
"68 452 OFFCURVE",
"74 411 OFFCURVE",
"74 347 CURVE SMOOTH",
"74 0 LINE",
"168 0 LINE",
"168 420 LINE",
"166 443 OFFCURVE",
"155 477 OFFCURVE",
"138 500 CURVE"
);
},
{
closed = 1;
nodes = (
"191 417 OFFCURVE",
"238 440 OFFCURVE",
"284 440 CURVE SMOOTH",
"337 440 OFFCURVE",
"362 410 OFFCURVE",
"362 350 CURVE SMOOTH",
"362 0 LINE",
"456 0 LINE",
"456 358 LINE SMOOTH",
"456 458 OFFCURVE",
"404 514 OFFCURVE",
"310 514 CURVE SMOOTH",
"240 514 OFFCURVE",
"177 483 OFFCURVE",
"132 427 CURVE",
"152 376 LINE"
);
},
{
closed = 0;
nodes = (
"280 461 LINE",
"148 397 LINE"
);
}
);
width = 524;
},
{
layerId = "037EC45F-2845-4C9D-A982-99EFE46CDFCF";
paths = (
{
closed = 1;
nodes = (
"456 0 LINE",
"456 354 LINE SMOOTH",
"456 458 OFFCURVE",
"404 514 OFFCURVE",
"308 514 CURVE SMOOTH",
"243 514 OFFCURVE",
"172 479 OFFCURVE",
"132 428 CURVE",
"152 378 LINE",
"197 419 OFFCURVE",
"241 440 OFFCURVE",
"284 440 CURVE SMOOTH",
"338 440 OFFCURVE",
"362 411 OFFCURVE",
"362 346 CURVE SMOOTH",
"362 0 LINE"
);
},
{
closed = 1;
nodes = (
"168 0 LINE",
"168 420 LINE",
"166 443 OFFCURVE",
"155 477 OFFCURVE",
"138 500 CURVE",
"52 500 LINE",
"68 452 OFFCURVE",
"74 411 OFFCURVE",
"74 347 CURVE SMOOTH",
"74 0 LINE"
);
}
);
width = 524;
},
{
associatedMasterId = "037EC45F-2845-4C9D-A982-99EFE46CDFCF";
layerId = "5051B91B-10EB-4625-A3B0-F499FD0B1EFD";
name = "Sep 15 21, 00:39";
paths = (
{
closed = 1;
nodes = (
"52 500 LINE",
"68 452 OFFCURVE",
"74 411 OFFCURVE",
"74 347 CURVE SMOOTH",
"74 0 LINE",
"168 0 LINE",
"168 420 LINE",
"166 443 OFFCURVE",
"155 477 OFFCURVE",
"138 500 CURVE"
);
},
{
closed = 1;
nodes = (
"191 417 OFFCURVE",
"241 440 OFFCURVE",
"286 440 CURVE SMOOTH",
"337 440 OFFCURVE",
"362 410 OFFCURVE",
"362 350 CURVE SMOOTH",
"362 0 LINE",
"456 0 LINE",
"456 358 LINE SMOOTH",
"456 460 OFFCURVE",
"406 514 OFFCURVE",
"312 514 CURVE SMOOTH",
"240 514 OFFCURVE",
"178 483 OFFCURVE",
"132 427 CURVE",
"152 378 LINE"
);
}
);
width = 524;
},
{
associatedMasterId = "037EC45F-2845-4C9D-A982-99EFE46CDFCF";
layerId = "2AC5FE79-E631-4285-8510-CC8E4F9997CE";
name = "Sep 15 21, 00:52";
paths = (
{
closed = 1;
nodes = (
"52 500 LINE",
"68 452 OFFCURVE",
"74 411 OFFCURVE",
"74 347 CURVE SMOOTH",
"74 0 LINE",
"168 0 LINE",
"168 420 LINE",
"166 443 OFFCURVE",
"155 477 OFFCURVE",
"138 500 CURVE"
);
},
{
closed = 1;
nodes = (
"190 417 OFFCURVE",
"240 440 OFFCURVE",
"288 440 CURVE SMOOTH",
"337 440 OFFCURVE",
"362 410 OFFCURVE",
"362 350 CURVE SMOOTH",
"362 0 LINE",
"456 0 LINE",
"456 358 LINE SMOOTH",
"456 460 OFFCURVE",
"406 514 OFFCURVE",
"312 514 CURVE SMOOTH",
"240 514 OFFCURVE",
"178 484 OFFCURVE",
"132 428 CURVE",
"152 378 LINE"
);
}
);
width = 524;
},
{
associatedMasterId = "037EC45F-2845-4C9D-A982-99EFE46CDFCF";
layerId = "640E41BD-AF7F-49BC-93FE-3D8BBE3EC7E2";
name = "Sep 15 21, 00:53";
paths = (
{
closed = 1;
nodes = (
"238 514 OFFCURVE",
"176 484 OFFCURVE",
"132 428 CURVE",
"152 378 LINE",
"188 417 OFFCURVE",
"236 440 OFFCURVE",
"284 440 CURVE SMOOTH",
"337 440 OFFCURVE",
"362 413 OFFCURVE",
"362 346 CURVE SMOOTH",
"362 0 LINE",
"456 0 LINE",
"456 354 LINE SMOOTH",
"456 460 OFFCURVE",
"404 514 OFFCURVE",
"308 514 CURVE SMOOTH"
);
},
{
closed = 1;
nodes = (
"52 500 LINE",
"68 452 OFFCURVE",
"74 411 OFFCURVE",
"74 347 CURVE SMOOTH",
"74 0 LINE",
"168 0 LINE",
"168 420 LINE",
"166 443 OFFCURVE",
"155 477 OFFCURVE",
"138 500 CURVE"
);
},
{
closed = 0;
nodes = (
"298 544 LINE",
"122 458 LINE"
);
},
{
closed = 0;
nodes = (
"361 564 LINE",
"509 404 LINE"
);
}
);
width = 524;
},
{
associatedMasterId = "037EC45F-2845-4C9D-A982-99EFE46CDFCF";
layerId = "912BC583-8EAF-46D4-BABB-4A3C6B3090FC";
name = "Sep 15 21, 00:54";
paths = (
{
closed = 1;
nodes = (
"238 514 OFFCURVE",
"176 484 OFFCURVE",
"132 428 CURVE",
"152 378 LINE",
"188 417 OFFCURVE",
"236 440 OFFCURVE",
"284 440 CURVE SMOOTH",
"338 440 OFFCURVE",
"362 411 OFFCURVE",
"362 346 CURVE SMOOTH",
"362 0 LINE",
"456 0 LINE",
"456 354 LINE SMOOTH",
"456 458 OFFCURVE",
"404 514 OFFCURVE",
"308 514 CURVE SMOOTH"
);
},
{
closed = 1;
nodes = (
"52 500 LINE",
"68 452 OFFCURVE",
"74 411 OFFCURVE",
"74 347 CURVE SMOOTH",
"74 0 LINE",
"168 0 LINE",
"168 420 LINE",
"166 443 OFFCURVE",
"155 477 OFFCURVE",
"138 500 CURVE"
);
}
);
width = 524;
},
{
associatedMasterId = "037EC45F-2845-4C9D-A982-99EFE46CDFCF";
layerId = "6D5ABD50-EFFE-4B53-94CA-B43AFD566E8D";
name = "Sep 15 21, 01:46";
paths = (
{
closed = 0;
nodes = (
"166 387 LINE",
"206 422 OFFCURVE",
"247 440 OFFCURVE",
"287 440 CURVE SMOOTH",
"341 440 OFFCURVE",
"362 410 OFFCURVE",
"362 340 CURVE SMOOTH"
);
}
);
width = 524;
},
{
associatedMasterId = "037EC45F-2845-4C9D-A982-99EFE46CDFCF";
layerId = "9FB2262D-2EB1-4CAF-92E3-BA68B01AEC5D";
name = "Sep 15 21, 01:46";
paths = (
{
closed = 1;
nodes = (
"238 514 OFFCURVE",
"176 484 OFFCURVE",
"132 428 CURVE",
"152 378 LINE",
"188 417 OFFCURVE",
"236 440 OFFCURVE",
"284 440 CURVE SMOOTH",
"338 440 OFFCURVE",
"362 411 OFFCURVE",
"362 346 CURVE SMOOTH",
"362 0 LINE",
"456 0 LINE",
"456 354 LINE SMOOTH",
"456 458 OFFCURVE",
"404 514 OFFCURVE",
"308 514 CURVE SMOOTH"
);
},
{
closed = 1;
nodes = (
"52 500 LINE",
"68 452 OFFCURVE",
"74 411 OFFCURVE",
"74 347 CURVE SMOOTH",
"74 0 LINE",
"168 0 LINE",
"168 420 LINE",
"166 443 OFFCURVE",
"155 477 OFFCURVE",
"138 500 CURVE"
);
}
);
width = 524;
},
{
associatedMasterId = "037EC45F-2845-4C9D-A982-99EFE46CDFCF";
layerId = "3F306847-7100-493D-8FD7-52BC7C977712";
name = "Sep 15 21, 02:16";
paths = (
{
closed = 1;
nodes = (
"52 500 LINE",
"68 452 OFFCURVE",
"74 411 OFFCURVE",
"74 347 CURVE SMOOTH",
"74 0 LINE",
"168 0 LINE",
"168 420 LINE",
"166 443 OFFCURVE",
"155 477 OFFCURVE",
"138 500 CURVE"
);
},
{
closed = 1;
nodes = (
"203 420 OFFCURVE",
"247 440 OFFCURVE",
"292 440 CURVE SMOOTH",
"341 440 OFFCURVE",
"362 410 OFFCURVE",
"362 340 CURVE SMOOTH",
"362 0 LINE",
"456 0 LINE",
"456 354 LINE SMOOTH",
"456 458 OFFCURVE",
"407 514 OFFCURVE",
"316 514 CURVE SMOOTH",
"243 514 OFFCURVE",
"174 478 OFFCURVE",
"126 418 CURVE",
"154 376 LINE"
);
},
{
closed = 0;
nodes = (
"292 460 LINE",
"154 396 LINE"
);
}
);
width = 524;
}
);
},
